<svg width="1534" height="481" viewBox="0 0 1534 481" fill="none" xmlns="http://www.w3.org/2000/svg">
<path d="M322.781 250.801C325.385 244.616 328.396 240.303 331.814 237.861C335.395 235.42 340.115 234.199 345.975 234.199L327.908 275.703L301.053 337.959C283.475 378.812 260.118 411.364 230.984 435.615C198.921 462.308 163.113 475.654 123.562 475.654C85.3138 475.654 56.1797 461.576 36.1602 433.418C15.8151 405.098 5.64258 363.838 5.64258 309.639C5.64258 259.183 15.4082 209.378 34.9395 160.225C44.7051 135.648 56.2611 113.431 69.6074 93.5742C89.1387 65.5794 110.949 43.9323 135.037 28.6328C159.126 13.3333 184.516 5.68359 211.209 5.68359C239.692 5.68359 261.339 13.6589 276.15 29.6094C282.498 36.4453 287.299 44.4206 290.555 53.5352C293.484 61.9987 294.949 70.8691 294.949 80.1465C294.949 94.7949 292.426 108.548 287.381 121.406C282.661 133.451 276.069 144.03 267.605 153.145C259.467 162.096 250.271 169.014 240.018 173.896C229.764 178.779 219.428 181.221 209.012 181.221C209.012 180.081 214.139 171.699 224.393 156.074C234.809 140.286 240.018 121.081 240.018 98.457C240.018 84.6224 237.658 73.7988 232.938 65.9863C227.566 57.36 219.347 53.0469 208.279 53.0469C188.911 53.0469 170.275 61.9987 152.371 79.9023C135.932 96.1784 121.121 118.721 107.938 147.529C95.4049 174.548 85.6393 204.251 78.6406 236.641C71.4792 268.867 67.8984 299.466 67.8984 328.438C67.8984 398.424 90.7663 433.418 136.502 433.418C160.916 433.418 183.54 427.64 204.373 416.084C222.602 405.993 239.692 391.263 255.643 371.895C268.663 355.944 281.359 336.25 293.729 312.812C301.867 297.188 311.551 276.517 322.781 250.801ZM352.078 235.42C355.984 235.42 359.565 234.443 362.82 232.49C365.262 231.025 367.378 228.991 369.168 226.387L370.633 222.236C371.935 218.818 375.19 217.109 380.398 217.109C383.328 217.109 387.234 217.516 392.117 218.33C397.651 219.469 402.859 220.771 407.742 222.236C420.6 226.468 427.029 231.27 427.029 236.641C427.029 240.872 424.995 248.685 420.926 260.078C419.624 263.822 415.636 274.727 408.963 292.793C402.29 310.859 397.407 325.345 394.314 336.25C390.408 351.224 388.455 363.757 388.455 373.848C388.455 379.707 389.757 384.427 392.361 388.008C395.128 391.751 398.872 393.623 403.592 393.623C418.403 393.623 432.238 385.973 445.096 370.674C453.071 361.234 460.558 348.457 467.557 332.344L502.713 250.801C505.317 244.616 508.328 240.303 511.746 237.861C515.327 235.42 519.965 234.199 525.662 234.199L480.984 337.959C473.335 355.7 465.278 370.755 456.814 383.125C435.167 414.375 409.777 430 380.643 430C365.506 430 353.868 423.571 345.73 410.713C338.895 400.133 335.477 387.601 335.477 373.115C335.477 355.049 338.162 334.541 343.533 311.592C347.439 294.502 353.543 273.506 361.844 248.604C356.473 253.486 350.532 257.474 344.021 260.566C337.023 263.984 330.675 265.693 324.979 265.693C311.795 265.693 301.948 261.136 295.438 252.021C289.904 244.209 287.137 233.304 287.137 219.307C287.137 207.1 290.066 196.276 295.926 186.836C298.53 182.767 301.378 179.512 304.471 177.07C307.563 174.629 310.656 173.408 313.748 173.408C321.561 173.408 330.024 178.047 339.139 187.324C342.882 190.905 345.975 194.648 348.416 198.555C350.857 202.298 352.078 205.146 352.078 207.1C352.078 209.541 351.264 213.04 349.637 217.598C349.148 218.9 348.253 221.26 346.951 224.678C346.137 226.305 345.568 227.689 345.242 228.828C344.591 230.618 343.94 232.246 343.289 233.711C345.73 234.85 348.66 235.42 352.078 235.42ZM544.949 396.064C581.896 395.576 611.193 374.336 632.84 332.344L667.996 250.801C670.6 244.616 673.693 240.303 677.273 237.861C680.691 235.42 685.33 234.199 691.189 234.199L673.367 275.703L646.512 337.959C634.63 365.465 618.68 387.601 598.66 404.365C575.711 423.734 550.158 433.418 522 433.418C512.072 433.418 503.038 431.546 494.9 427.803C486.925 424.059 480.089 418.77 474.393 411.934C462.674 397.611 456.814 378.568 456.814 354.805C456.814 334.785 459.988 315.173 466.336 295.967C472.684 277.249 481.391 260.566 492.459 245.918C503.852 230.944 516.792 219.307 531.277 211.006C546.414 202.217 562.202 197.822 578.641 197.822C590.034 197.822 599.393 201.484 606.717 208.809C613.553 215.482 616.971 223.62 616.971 233.223C616.971 248.685 613.064 264.066 605.252 279.365C598.416 293.037 589.057 305.814 577.176 317.695C566.434 328.6 554.878 337.308 542.508 343.818C530.626 350.166 520.21 353.34 511.258 353.34C511.258 366.686 513.455 376.859 517.85 383.857C523.383 391.995 532.417 396.064 544.949 396.064ZM570.828 236.885C570.828 235.42 570.503 234.199 569.852 233.223C569.038 232.246 568.061 231.758 566.922 231.758C564.318 231.758 560.411 234.281 555.203 239.326C549.181 244.86 543.403 252.021 537.869 260.811C522.732 284.248 514.106 310.29 511.99 338.936C513.618 338.936 517.524 335.192 523.709 327.705C530.219 319.73 536.893 310.534 543.729 300.117C551.541 288.073 557.807 276.924 562.527 266.67C568.061 254.3 570.828 244.372 570.828 236.885ZM710.477 396.064C747.423 395.576 776.72 374.336 798.367 332.344L833.523 250.801C836.128 244.616 839.22 240.303 842.801 237.861C846.219 235.42 850.857 234.199 856.717 234.199L838.895 275.703L812.039 337.959C800.158 365.465 784.207 387.601 764.188 404.365C741.238 423.734 715.685 433.418 687.527 433.418C677.599 433.418 668.566 431.546 660.428 427.803C652.452 424.059 645.617 418.77 639.92 411.934C628.201 397.611 622.342 378.568 622.342 354.805C622.342 334.785 625.516 315.173 631.863 295.967C638.211 277.249 646.919 260.566 657.986 245.918C669.38 230.944 682.319 219.307 696.805 211.006C711.941 202.217 727.729 197.822 744.168 197.822C755.561 197.822 764.92 201.484 772.244 208.809C779.08 215.482 782.498 223.62 782.498 233.223C782.498 248.685 778.592 264.066 770.779 279.365C763.943 293.037 754.585 305.814 742.703 317.695C731.961 328.6 720.405 337.308 708.035 343.818C696.154 350.166 685.737 353.34 676.785 353.34C676.785 366.686 678.982 376.859 683.377 383.857C688.911 391.995 697.944 396.064 710.477 396.064ZM736.355 236.885C736.355 235.42 736.03 234.199 735.379 233.223C734.565 232.246 733.589 231.758 732.449 231.758C729.845 231.758 725.939 234.281 720.73 239.326C714.708 244.86 708.93 252.021 703.396 260.811C688.26 284.248 679.633 310.29 677.518 338.936C679.145 338.936 683.051 335.192 689.236 327.705C695.747 319.73 702.42 310.534 709.256 300.117C717.068 288.073 723.335 276.924 728.055 266.67C733.589 254.3 736.355 244.372 736.355 236.885ZM961.697 182.197C965.278 182.197 968.696 183.581 971.951 186.348C974.881 188.789 977.566 192.207 980.008 196.602C984.891 205.391 987.332 213.936 987.332 222.236C987.332 227.445 985.216 236.478 980.984 249.336C979.52 253.73 975.206 266.019 968.045 286.201C961.046 306.383 956.001 322.822 952.908 335.518C948.676 352.933 946.561 368.07 946.561 380.928C948.188 370.348 952.013 354.154 958.035 332.344C966.01 309.883 975.939 287.747 987.82 265.938C1001 241.361 1014.27 221.829 1027.62 207.344C1043.08 190.579 1057.16 182.197 1069.85 182.197C1073.43 182.197 1077.09 183.581 1080.84 186.348C1084.26 188.952 1087.51 192.37 1090.6 196.602C1093.53 200.833 1095.89 205.228 1097.68 209.785C1099.47 214.505 1100.37 218.656 1100.37 222.236C1100.37 226.305 1098.09 234.85 1093.53 247.871C1092.07 252.266 1087.59 264.717 1080.11 285.225C1072.78 305.732 1067.41 322.008 1063.99 334.053C1059.6 350.492 1057.4 363.757 1057.4 373.848C1057.4 379.707 1058.78 384.427 1061.55 388.008C1064.32 391.751 1068.06 393.623 1072.78 393.623C1087.43 393.623 1101.18 385.973 1114.04 370.674C1122.02 361.234 1129.5 348.457 1136.5 332.344L1171.66 250.801C1174.26 244.616 1177.35 240.303 1180.94 237.861C1184.35 235.42 1188.99 234.199 1194.85 234.199L1177.03 275.703L1149.93 337.959C1142.44 355.7 1134.39 370.755 1125.76 383.125C1104.11 414.375 1078.72 430 1049.59 430C1034.45 430 1022.81 423.571 1014.68 410.713C1008 400.133 1004.67 387.601 1004.67 373.115C1004.67 356.514 1007.68 335.273 1013.7 309.395C1018.09 290.84 1024.44 268.542 1032.74 242.5C1029.32 242.5 1023.38 248.848 1014.92 261.543C1006.62 273.75 997.911 288.724 988.797 306.465C979.031 325.345 971.137 342.842 965.115 358.955C958.279 377.347 954.861 391.263 954.861 400.703C954.861 404.935 955.187 407.783 955.838 409.248C956.652 410.713 957.059 411.689 957.059 412.178C957.059 412.992 956.814 413.643 956.326 414.131C955.838 414.619 955.35 414.863 954.861 414.863C944.77 414.863 937.12 414.538 931.912 413.887C924.262 413.073 918.077 411.445 913.357 409.004C907.661 406.237 903.429 402.087 900.662 396.553C897.57 390.531 896.023 382.718 896.023 373.115C896.023 352.77 899.035 330.635 905.057 306.709C907.335 297.594 913.764 276.191 924.344 242.5C919.949 242.5 913.276 248.929 904.324 261.787C896.186 273.669 887.56 288.805 878.445 307.197C869.331 325.589 861.844 343.167 855.984 359.932C849.799 377.998 846.707 391.589 846.707 400.703C846.707 405.098 847.033 408.027 847.684 409.492C848.497 410.794 848.904 411.689 848.904 412.178C848.904 412.992 848.66 413.643 848.172 414.131C847.684 414.619 847.195 414.863 846.707 414.863C836.616 414.863 828.966 414.538 823.758 413.887C816.108 413.073 809.923 411.445 805.203 409.004C799.507 406.237 795.275 402.087 792.508 396.553C789.415 390.531 787.869 382.718 787.869 373.115C787.869 364.163 789.741 351.549 793.484 335.273C796.089 324.694 801.948 304.268 811.062 273.994C820.177 243.558 824.734 221.667 824.734 208.32C824.734 207.344 824.572 205.96 824.246 204.17C824.083 202.217 824.002 201.077 824.002 200.752C824.002 200.101 824.246 199.45 824.734 198.799C825.223 198.311 825.792 198.066 826.443 198.066C829.048 198.066 833.035 198.392 838.406 199.043C844.591 199.857 850.369 200.833 855.74 201.973C871.04 205.553 878.689 209.785 878.689 214.668C878.689 219.714 876.574 229.154 872.342 242.988C870.877 247.708 864.773 266.751 854.031 300.117C843.452 333.483 838.162 360.42 838.162 380.928C839.79 369.535 843.777 352.77 850.125 330.635C858.1 308.337 868.191 286.283 880.398 264.473C893.745 240.384 907.01 221.178 920.193 206.855C935.656 190.417 949.49 182.197 961.697 182.197ZM1214.38 396.064C1251.33 395.576 1280.63 374.336 1302.27 332.344L1337.43 250.801C1340.03 244.616 1343.13 240.303 1346.71 237.861C1350.12 235.42 1354.76 234.199 1360.62 234.199L1342.8 275.703L1315.95 337.959C1304.06 365.465 1288.11 387.601 1268.09 404.365C1245.14 423.734 1219.59 433.418 1191.43 433.418C1181.51 433.418 1172.47 431.546 1164.33 427.803C1156.36 424.059 1149.52 418.77 1143.83 411.934C1132.11 397.611 1126.25 378.568 1126.25 354.805C1126.25 334.785 1129.42 315.173 1135.77 295.967C1142.12 277.249 1150.82 260.566 1161.89 245.918C1173.29 230.944 1186.23 219.307 1200.71 211.006C1215.85 202.217 1231.64 197.822 1248.07 197.822C1259.47 197.822 1268.83 201.484 1276.15 208.809C1282.99 215.482 1286.4 223.62 1286.4 233.223C1286.4 248.685 1282.5 264.066 1274.69 279.365C1267.85 293.037 1258.49 305.814 1246.61 317.695C1235.87 328.6 1224.31 337.308 1211.94 343.818C1200.06 350.166 1189.64 353.34 1180.69 353.34C1180.69 366.686 1182.89 376.859 1187.28 383.857C1192.82 391.995 1201.85 396.064 1214.38 396.064ZM1240.26 236.885C1240.26 235.42 1239.94 234.199 1239.29 233.223C1238.47 232.246 1237.49 231.758 1236.36 231.758C1233.75 231.758 1229.85 234.281 1224.64 239.326C1218.61 244.86 1212.84 252.021 1207.3 260.811C1192.17 284.248 1183.54 310.29 1181.42 338.936C1183.05 338.936 1186.96 335.192 1193.14 327.705C1199.65 319.73 1206.33 310.534 1213.16 300.117C1220.97 288.073 1227.24 276.924 1231.96 266.67C1237.49 254.3 1240.26 244.372 1240.26 236.885ZM1379.91 396.064C1416.86 395.576 1446.15 374.336 1467.8 332.344L1502.96 250.801C1505.56 244.616 1508.65 240.303 1512.23 237.861C1515.65 235.42 1520.29 234.199 1526.15 234.199L1508.33 275.703L1481.47 337.959C1469.59 365.465 1453.64 387.601 1433.62 404.365C1410.67 423.734 1385.12 433.418 1356.96 433.418C1347.03 433.418 1338 431.546 1329.86 427.803C1321.89 424.059 1315.05 418.77 1309.35 411.934C1297.63 397.611 1291.78 378.568 1291.78 354.805C1291.78 334.785 1294.95 315.173 1301.3 295.967C1307.64 277.249 1316.35 260.566 1327.42 245.918C1338.81 230.944 1351.75 219.307 1366.24 211.006C1381.38 202.217 1397.16 197.822 1413.6 197.822C1424.99 197.822 1434.35 201.484 1441.68 208.809C1448.51 215.482 1451.93 223.62 1451.93 233.223C1451.93 248.685 1448.03 264.066 1440.21 279.365C1433.38 293.037 1424.02 305.814 1412.14 317.695C1401.39 328.6 1389.84 337.308 1377.47 343.818C1365.59 350.166 1355.17 353.34 1346.22 353.34C1346.22 366.686 1348.42 376.859 1352.81 383.857C1358.34 391.995 1367.38 396.064 1379.91 396.064ZM1405.79 236.885C1405.79 235.42 1405.46 234.199 1404.81 233.223C1404 232.246 1403.02 231.758 1401.88 231.758C1399.28 231.758 1395.37 234.281 1390.16 239.326C1384.14 244.86 1378.36 252.021 1372.83 260.811C1357.69 284.248 1349.07 310.29 1346.95 338.936C1348.58 338.936 1352.49 335.192 1358.67 327.705C1365.18 319.73 1371.85 310.534 1378.69 300.117C1386.5 288.073 1392.77 276.924 1397.49 266.67C1403.02 254.3 1405.79 244.372 1405.79 236.885Z" fill="#C23616"/>
<path d="M322.781 250.801L327.363 252.802L327.377 252.772L327.389 252.741L322.781 250.801ZM331.814 237.861L328.998 233.73L328.953 233.761L328.908 233.793L331.814 237.861ZM345.975 234.199L350.559 236.195L353.604 229.199H345.975V234.199ZM327.908 275.703L323.324 273.708L323.32 273.715L323.317 273.723L327.908 275.703ZM301.053 337.959L296.462 335.979L296.46 335.983L301.053 337.959ZM230.984 435.615L227.786 431.772L227.785 431.773L230.984 435.615ZM36.1602 433.418L40.2352 430.521L40.2281 430.511L40.2209 430.501L36.1602 433.418ZM69.6074 93.5742L65.5068 90.7133L65.4819 90.749L65.4577 90.785L69.6074 93.5742ZM276.15 29.6094L279.814 26.2071L276.15 29.6094ZM290.555 53.5352L295.28 51.8996L295.272 51.8765L295.263 51.8535L290.555 53.5352ZM287.381 121.406L282.726 119.58L282.726 119.582L287.381 121.406ZM267.605 153.145L263.942 149.742L263.924 149.762L263.906 149.781L267.605 153.145ZM209.012 181.221H204.012V186.221H209.012V181.221ZM224.393 156.074L220.219 153.321L220.212 153.331L224.393 156.074ZM232.938 65.9863L237.217 63.4007L237.2 63.372L237.182 63.3435L232.938 65.9863ZM152.371 79.9023L155.889 83.4554L155.898 83.4467L155.907 83.4379L152.371 79.9023ZM107.938 147.529L112.473 149.633L112.479 149.622L112.484 149.61L107.938 147.529ZM78.6406 236.641L83.5216 237.725L83.5247 237.711L83.5278 237.697L78.6406 236.641ZM204.373 416.084L201.951 411.71L201.948 411.712L204.373 416.084ZM255.643 371.895L259.502 375.073L259.509 375.065L259.516 375.056L255.643 371.895ZM293.729 312.812L298.15 315.146L298.157 315.134L298.163 315.122L293.729 312.812ZM327.389 252.741C329.829 246.947 332.381 243.601 334.721 241.93L328.908 233.793C324.412 237.004 320.942 242.285 318.173 248.86L327.389 252.741ZM334.631 241.992C337.136 240.285 340.774 239.199 345.975 239.199V229.199C339.456 229.199 333.655 230.555 328.998 233.73L334.631 241.992ZM341.39 232.204L323.324 273.708L332.493 277.699L350.559 236.195L341.39 232.204ZM323.317 273.723L296.462 335.979L305.644 339.939L332.499 277.684L323.317 273.723ZM296.46 335.983C279.139 376.237 256.218 408.105 227.786 431.772L234.183 439.458C264.019 414.623 287.81 381.386 305.646 339.935L296.46 335.983ZM227.785 431.773C196.567 457.762 161.877 470.654 123.562 470.654V480.654C164.35 480.654 201.275 466.854 234.183 439.458L227.785 431.773ZM123.562 470.654C86.7308 470.654 59.2057 457.203 40.2352 430.521L32.0851 436.315C53.1536 465.948 83.8968 480.654 123.562 480.654V470.654ZM40.2209 430.501C20.7405 403.384 10.6426 363.332 10.6426 309.639H0.642578C0.642578 364.344 10.8897 406.811 32.0994 436.335L40.2209 430.501ZM10.6426 309.639C10.6426 259.845 20.2768 210.666 39.5861 162.071L30.2928 158.378C10.5396 208.091 0.642578 258.52 0.642578 309.639H10.6426ZM39.5861 162.071C49.2337 137.791 60.6291 115.895 73.7572 96.3634L65.4577 90.785C51.893 110.967 40.1764 133.505 30.2928 158.378L39.5861 162.071ZM73.7081 96.4351C92.9334 68.8788 114.286 47.7358 137.718 32.8535L132.356 24.4122C107.611 40.1288 85.3439 62.2801 65.5068 90.7133L73.7081 96.4351ZM137.718 32.8535C161.063 18.0263 185.532 10.6836 211.209 10.6836V0.683594C183.501 0.683594 157.189 8.64038 132.356 24.4122L137.718 32.8535ZM211.209 10.6836C238.753 10.6836 258.89 18.3693 272.486 33.0116L279.814 26.2071C263.788 8.94836 240.631 0.683594 211.209 0.683594V10.6836ZM272.486 33.0116C278.355 39.3321 282.81 46.7162 285.846 55.2168L295.263 51.8535C291.789 42.1249 286.641 33.5585 279.814 26.2071L272.486 33.0116ZM285.83 55.1707C288.571 63.0894 289.949 71.4056 289.949 80.1465H299.949C299.949 70.3326 298.398 60.908 295.28 51.8996L285.83 55.1707ZM289.949 80.1465C289.949 94.2081 287.53 107.338 282.726 119.58L292.035 123.233C297.323 109.758 299.949 95.3817 299.949 80.1465H289.949ZM282.726 119.582C278.225 131.066 271.962 141.105 263.942 149.742L271.269 156.547C280.176 146.955 287.097 135.835 292.036 123.231L282.726 119.582ZM263.906 149.781C256.176 158.284 247.498 164.797 237.868 169.382L242.167 178.411C253.045 173.231 262.759 165.909 271.305 156.508L263.906 149.781ZM237.868 169.382C228.224 173.975 218.619 176.221 209.012 176.221V186.221C220.237 186.221 231.303 183.584 242.167 178.411L237.868 169.382ZM214.012 181.221C214.012 181.924 213.846 182.408 213.843 182.418C213.811 182.52 213.797 182.54 213.838 182.446C213.917 182.263 214.083 181.921 214.375 181.379C214.951 180.309 215.857 178.758 217.122 176.689C219.644 172.566 223.454 166.618 228.573 158.818L220.212 153.331C215.077 161.156 211.197 167.211 208.592 171.471C207.294 173.592 206.277 175.327 205.571 176.638C205.222 177.285 204.907 177.907 204.666 178.461C204.547 178.736 204.413 179.069 204.301 179.427C204.218 179.692 204.012 180.375 204.012 181.221H214.012ZM228.566 158.828C239.62 142.074 245.018 121.865 245.018 98.457H235.018C235.018 120.297 229.999 138.499 220.219 153.321L228.566 158.828ZM245.018 98.457C245.018 84.146 242.592 72.2965 237.217 63.4007L228.658 68.5719C232.723 75.3011 235.018 85.0988 235.018 98.457H245.018ZM237.182 63.3435C230.805 53.1011 220.889 48.0469 208.279 48.0469V58.0469C217.805 58.0469 224.328 61.6189 228.693 68.6291L237.182 63.3435ZM208.279 48.0469C187.214 48.0469 167.377 57.8252 148.836 76.3668L155.907 83.4379C173.172 66.1722 190.608 58.0469 208.279 58.0469V48.0469ZM148.853 76.3493C131.859 93.1751 116.739 116.28 103.391 145.449L112.484 149.61C125.503 121.161 140.006 99.1816 155.889 83.4554L148.853 76.3493ZM103.402 145.425C90.6974 172.814 80.8215 202.874 73.7534 235.585L83.5278 237.697C90.4571 205.629 100.113 176.281 112.473 149.633L103.402 145.425ZM73.7597 235.556C66.5298 268.09 62.8984 299.055 62.8984 328.438H72.8984C72.8984 299.877 76.4285 269.644 83.5216 237.725L73.7597 235.556ZM62.8984 328.438C62.8984 363.816 68.6494 391.217 80.8638 409.908C93.3196 428.969 112.134 438.418 136.502 438.418V428.418C115.134 428.418 99.6468 420.371 89.2349 404.438C78.5814 388.135 72.8984 363.046 72.8984 328.438H62.8984ZM136.502 438.418C161.743 438.418 185.204 432.435 206.798 420.456L201.948 411.712C181.875 422.845 160.089 428.418 136.502 428.418V438.418ZM206.795 420.458C225.674 410.007 243.231 394.83 259.502 375.073L251.783 368.716C236.153 387.696 219.53 401.978 201.951 411.71L206.795 420.458ZM259.516 375.056C272.796 358.788 285.667 338.798 298.15 315.146L289.307 310.479C277.05 333.702 264.53 353.1 251.769 368.733L259.516 375.056ZM298.163 315.122C306.375 299.355 316.111 278.569 327.363 252.802L318.199 248.8C306.991 274.465 297.358 295.02 289.294 310.503L298.163 315.122ZM362.82 232.49L360.248 228.203L362.82 232.49ZM369.168 226.387L373.288 229.219L373.663 228.674L373.883 228.051L369.168 226.387ZM370.633 222.236L365.96 220.456L365.938 220.514L365.918 220.572L370.633 222.236ZM392.117 218.33L393.125 213.433L393.033 213.414L392.939 213.398L392.117 218.33ZM407.742 222.236L409.305 217.487L409.242 217.466L409.179 217.447L407.742 222.236ZM420.926 260.078L416.217 258.396L416.21 258.416L416.203 258.436L420.926 260.078ZM394.314 336.25L389.504 334.886L389.49 334.937L389.476 334.988L394.314 336.25ZM392.361 388.008L388.318 390.949L388.329 390.964L388.34 390.98L392.361 388.008ZM445.096 370.674L441.276 367.447L441.268 367.457L445.096 370.674ZM467.557 332.344L472.143 334.336L472.148 334.323L467.557 332.344ZM502.713 250.801L507.304 252.78L507.313 252.761L507.321 252.741L502.713 250.801ZM511.746 237.861L508.929 233.73L508.884 233.761L508.84 233.793L511.746 237.861ZM525.662 234.199L530.254 236.177L533.259 229.199H525.662V234.199ZM480.984 337.959L485.576 339.939L485.577 339.936L480.984 337.959ZM456.814 383.125L460.925 385.972L460.933 385.96L460.941 385.948L456.814 383.125ZM345.73 410.713L349.955 408.039L349.943 408.019L349.93 407.999L345.73 410.713ZM343.533 311.592L348.402 312.731L348.405 312.719L348.407 312.706L343.533 311.592ZM361.844 248.604L366.587 250.185L372.637 232.034L358.48 244.904L361.844 248.604ZM344.021 260.566L341.876 256.05L341.852 256.062L341.827 256.074L344.021 260.566ZM295.438 252.021L291.357 254.912L291.363 254.92L291.369 254.928L295.438 252.021ZM295.926 186.836L291.714 184.141L291.696 184.17L291.678 184.199L295.926 186.836ZM339.139 187.324L335.572 190.828L335.626 190.884L335.683 190.937L339.139 187.324ZM348.416 198.555L344.176 201.205L344.202 201.246L344.228 201.286L348.416 198.555ZM349.637 217.598L354.318 219.353L354.332 219.316L354.345 219.279L349.637 217.598ZM346.951 224.678L351.423 226.914L351.535 226.691L351.624 226.458L346.951 224.678ZM345.242 228.828L349.941 230.537L350.001 230.371L350.05 230.202L345.242 228.828ZM343.289 233.711L338.72 231.68L336.726 236.166L341.175 238.242L343.289 233.711ZM352.078 240.42C356.863 240.42 361.337 239.211 365.393 236.778L360.248 228.203C357.793 229.676 355.106 230.42 352.078 230.42V240.42ZM365.393 236.778C368.513 234.906 371.137 232.348 373.288 229.219L365.048 223.554C363.618 225.633 362.011 227.145 360.248 228.203L365.393 236.778ZM373.883 228.051L375.348 223.9L365.918 220.572L364.453 224.723L373.883 228.051ZM375.305 224.016C375.52 223.453 375.82 223.109 376.375 222.818C377.05 222.464 378.287 222.109 380.398 222.109V212.109C377.301 212.109 374.307 212.609 371.727 213.964C369.026 215.382 367.048 217.602 365.96 220.456L375.305 224.016ZM380.398 222.109C382.929 222.109 386.526 222.467 391.295 223.262L392.939 213.398C387.943 212.565 383.727 212.109 380.398 212.109V222.109ZM391.109 223.227C396.514 224.34 401.578 225.607 406.305 227.025L409.179 217.447C404.141 215.936 398.788 214.599 393.125 213.433L391.109 223.227ZM406.179 226.986C412.396 229.032 416.631 231.087 419.216 233.017C421.815 234.959 422.029 236.196 422.029 236.641H432.029C432.029 231.714 429.029 227.865 425.199 225.005C421.355 222.134 415.946 219.672 409.305 217.487L406.179 226.986ZM422.029 236.641C422.029 238.105 421.653 240.619 420.665 244.414C419.698 248.126 418.224 252.777 416.217 258.396L425.634 261.76C427.697 255.986 429.274 251.034 430.342 246.934C431.388 242.917 432.029 239.408 432.029 236.641H422.029ZM416.203 258.436C414.921 262.122 410.954 272.972 404.273 291.061L413.653 294.525C420.318 276.481 424.326 265.521 425.648 261.721L416.203 258.436ZM404.273 291.061C397.581 309.177 392.648 323.801 389.504 334.886L399.125 337.614C402.166 326.89 406.999 312.542 413.653 294.525L404.273 291.061ZM389.476 334.988C385.513 350.18 383.455 363.168 383.455 373.848H393.455C393.455 364.345 395.303 352.268 399.153 337.512L389.476 334.988ZM383.455 373.848C383.455 380.425 384.918 386.275 388.318 390.949L396.405 385.067C394.596 382.579 393.455 378.989 393.455 373.848H383.455ZM388.34 390.98C392.066 396.02 397.312 398.623 403.592 398.623V388.623C400.432 388.623 398.191 387.483 396.382 385.036L388.34 390.98ZM403.592 398.623C420.35 398.623 435.467 389.903 448.923 373.891L441.268 367.457C429.009 382.044 416.456 388.623 403.592 388.623V398.623ZM448.915 373.901C457.306 363.968 465.025 350.724 472.143 334.336L462.971 330.352C456.091 346.19 448.836 358.499 441.276 367.447L448.915 373.901ZM472.148 334.323L507.304 252.78L498.121 248.821L462.965 330.364L472.148 334.323ZM507.321 252.741C509.761 246.947 512.312 243.601 514.652 241.93L508.84 233.793C504.344 237.004 500.873 242.285 498.105 248.86L507.321 252.741ZM514.563 241.992C517.088 240.271 520.658 239.199 525.662 239.199V229.199C519.273 229.199 513.565 230.569 508.929 233.73L514.563 241.992ZM521.07 232.222L476.392 335.982L485.577 339.936L530.254 236.177L521.07 232.222ZM476.393 335.979C468.836 353.504 460.926 368.261 452.688 380.302L460.941 385.948C469.63 373.25 477.833 357.895 485.576 339.939L476.393 335.979ZM452.704 380.278C431.675 410.635 407.651 425 380.643 425V435C411.903 435 438.659 418.115 460.925 385.972L452.704 380.278ZM380.643 425C367.231 425 357.183 419.458 349.955 408.039L341.506 413.387C350.554 427.684 363.781 435 380.643 435V425ZM349.93 407.999C343.692 398.344 340.477 386.786 340.477 373.115H330.477C330.477 388.416 334.098 401.922 341.531 413.426L349.93 407.999ZM340.477 373.115C340.477 355.528 343.093 335.413 348.402 312.731L338.665 310.452C333.231 333.669 330.477 354.57 330.477 373.115H340.477ZM348.407 312.706C352.265 295.83 358.315 275.001 366.587 250.185L357.1 247.022C348.771 272.011 342.614 293.173 338.659 310.478L348.407 312.706ZM358.48 244.904C353.47 249.458 347.939 253.17 341.876 256.05L346.167 265.083C353.124 261.778 359.475 257.514 365.207 252.303L358.48 244.904ZM341.827 256.074C335.274 259.274 329.688 260.693 324.979 260.693V270.693C331.662 270.693 338.771 268.695 346.216 265.059L341.827 256.074ZM324.979 260.693C313.083 260.693 304.903 256.671 299.506 249.115L291.369 254.928C298.993 265.601 310.506 270.693 324.979 270.693V260.693ZM299.518 249.131C294.801 242.472 292.137 232.725 292.137 219.307H282.137C282.137 233.883 285.007 245.946 291.357 254.912L299.518 249.131ZM292.137 219.307C292.137 207.936 294.854 198.044 300.174 189.473L291.678 184.199C285.279 194.508 282.137 206.263 282.137 219.307H292.137ZM300.137 189.531C302.507 185.829 304.999 183.023 307.569 180.995L301.372 173.146C297.757 176 294.553 179.705 291.714 184.141L300.137 189.531ZM307.569 180.995C310.024 179.056 312.057 178.408 313.748 178.408V168.408C309.254 168.408 305.102 170.202 301.372 173.146L307.569 180.995ZM313.748 178.408C319.56 178.408 326.805 181.905 335.572 190.828L342.705 183.82C333.243 174.189 323.561 168.408 313.748 168.408V178.408ZM335.683 190.937C339.162 194.266 341.98 197.691 344.176 201.205L352.656 195.905C349.969 191.605 346.602 187.544 342.595 183.711L335.683 190.937ZM344.228 201.286C345.354 203.012 346.108 204.397 346.567 205.468C346.794 205.998 346.928 206.404 347.003 206.699C347.08 206.998 347.078 207.12 347.078 207.1H357.078C357.078 205.165 356.497 203.252 355.758 201.529C354.997 199.752 353.92 197.841 352.604 195.823L344.228 201.286ZM347.078 207.1C347.078 208.646 346.514 211.476 344.928 215.916L354.345 219.279C356.015 214.605 357.078 210.436 357.078 207.1H347.078ZM344.955 215.842C344.472 217.13 343.581 219.479 342.279 222.898L351.624 226.458C352.925 223.041 353.825 220.669 354.318 219.353L344.955 215.842ZM342.479 222.442C341.592 224.216 340.877 225.905 340.435 227.455L350.05 230.202C350.258 229.473 350.683 228.395 351.423 226.914L342.479 222.442ZM340.543 227.119C339.925 228.821 339.316 230.339 338.72 231.68L347.858 235.742C348.564 234.154 349.258 232.416 349.941 230.537L340.543 227.119ZM341.175 238.242C344.431 239.761 348.119 240.42 352.078 240.42V230.42C349.201 230.42 347.03 229.939 345.403 229.18L341.175 238.242ZM544.949 396.064V401.064H544.982L545.015 401.064L544.949 396.064ZM632.84 332.344L637.284 334.635L637.363 334.482L637.431 334.323L632.84 332.344ZM667.996 250.801L672.588 252.78L672.596 252.761L672.604 252.741L667.996 250.801ZM677.273 237.861L680.09 241.992L680.135 241.962L680.18 241.93L677.273 237.861ZM691.189 234.199L695.784 236.172L698.778 229.199H691.189V234.199ZM673.367 275.703L677.958 277.684L677.962 277.676L673.367 275.703ZM646.512 337.959L651.102 339.942L651.103 339.939L646.512 337.959ZM598.66 404.365L595.45 400.532L595.443 400.538L595.435 400.544L598.66 404.365ZM494.9 427.803L492.776 432.329L492.793 432.337L492.811 432.345L494.9 427.803ZM474.393 411.934L470.523 415.1L470.537 415.117L470.551 415.135L474.393 411.934ZM466.336 295.967L461.601 294.361L461.595 294.379L461.589 294.398L466.336 295.967ZM492.459 245.918L488.48 242.89L488.475 242.897L488.47 242.904L492.459 245.918ZM531.277 211.006L533.763 215.344L533.776 215.337L533.788 215.33L531.277 211.006ZM606.717 208.809L603.181 212.344L603.203 212.365L603.224 212.386L606.717 208.809ZM605.252 279.365L600.799 277.091L600.789 277.11L600.78 277.129L605.252 279.365ZM577.176 317.695L573.64 314.16L573.627 314.173L573.614 314.186L577.176 317.695ZM542.508 343.818L540.179 339.394L540.165 339.401L540.152 339.408L542.508 343.818ZM511.258 353.34V348.34H506.258V353.34H511.258ZM517.85 383.857L513.615 386.516L513.664 386.594L513.715 386.669L517.85 383.857ZM569.852 233.223L574.012 230.449L573.864 230.227L573.693 230.022L569.852 233.223ZM555.203 239.326L558.586 243.008L558.635 242.963L558.682 242.917L555.203 239.326ZM537.869 260.811L542.069 263.523L542.085 263.499L542.1 263.475L537.869 260.811ZM511.99 338.936L507.004 338.567L506.607 343.936H511.99V338.936ZM523.709 327.705L527.564 330.889L527.573 330.878L527.582 330.867L523.709 327.705ZM543.729 300.117L547.909 302.86L547.916 302.849L547.923 302.838L543.729 300.117ZM562.527 266.67L567.069 268.761L567.08 268.736L567.091 268.712L562.527 266.67ZM545.015 401.064C584.344 400.544 615.067 377.732 637.284 334.635L628.396 330.053C607.318 370.939 579.447 390.608 544.883 391.065L545.015 401.064ZM637.431 334.323L672.588 252.78L663.405 248.821L628.248 330.364L637.431 334.323ZM672.604 252.741C675.024 246.994 677.63 243.67 680.09 241.992L674.457 233.73C669.755 236.936 666.176 242.238 663.388 248.86L672.604 252.741ZM680.18 241.93C682.474 240.291 685.972 239.199 691.189 239.199V229.199C684.688 229.199 678.909 230.548 674.367 233.793L680.18 241.93ZM686.595 232.226L668.773 273.73L677.962 277.676L695.784 236.172L686.595 232.226ZM668.776 273.723L641.921 335.979L651.103 339.939L677.958 277.684L668.776 273.723ZM641.922 335.976C630.304 362.873 614.789 384.338 595.45 400.532L601.87 408.199C622.571 390.864 638.957 368.058 651.102 339.942L641.922 335.976ZM595.435 400.544C573.323 419.206 548.895 428.418 522 428.418V438.418C551.42 438.418 578.099 428.261 601.885 408.186L595.435 400.544ZM522 428.418C512.714 428.418 504.405 426.671 496.99 423.26L492.811 432.345C501.672 436.421 511.429 438.418 522 438.418V428.418ZM497.025 423.277C489.719 419.847 483.467 415.012 478.234 408.733L470.551 415.135C476.712 422.527 484.132 428.271 492.776 432.329L497.025 423.277ZM478.262 408.767C467.461 395.566 461.814 377.747 461.814 354.805H451.814C451.814 379.388 457.887 399.656 470.523 415.1L478.262 408.767ZM461.814 354.805C461.814 335.324 464.901 316.241 471.083 297.536L461.589 294.398C455.075 314.104 451.814 334.246 451.814 354.805H461.814ZM471.071 297.573C477.26 279.323 485.727 263.123 496.448 248.932L488.47 242.904C477.056 258.01 468.107 275.176 461.601 294.361L471.071 297.573ZM496.438 248.946C507.478 234.437 519.927 223.273 533.763 215.344L528.791 206.668C513.656 215.341 500.227 227.452 488.48 242.89L496.438 248.946ZM533.788 215.33C548.213 206.954 563.141 202.822 578.641 202.822V192.822C561.263 192.822 544.615 197.48 528.767 206.682L533.788 215.33ZM578.641 202.822C588.853 202.822 596.893 206.056 603.181 212.344L610.252 205.273C601.892 196.913 591.214 192.822 578.641 192.822V202.822ZM603.224 212.386C609.091 218.113 611.971 224.959 611.971 233.223H621.971C621.971 222.281 618.015 212.85 610.209 205.231L603.224 212.386ZM611.971 233.223C611.971 247.81 608.292 262.417 600.799 277.091L609.705 281.639C617.837 265.715 621.971 249.56 621.971 233.223H611.971ZM600.78 277.129C594.207 290.275 585.179 302.621 573.64 314.16L580.711 321.231C592.935 309.007 602.625 295.799 609.724 281.601L600.78 277.129ZM573.614 314.186C563.199 324.759 552.052 333.145 540.179 339.394L544.837 348.243C557.703 341.471 569.668 332.441 580.738 321.204L573.614 314.186ZM540.152 339.408C528.659 345.548 519.076 348.34 511.258 348.34V358.34C521.343 358.34 532.594 354.784 544.864 348.228L540.152 339.408ZM506.258 353.34C506.258 367.103 508.5 378.371 513.615 386.516L522.084 381.199C518.41 375.347 516.258 366.269 516.258 353.34H506.258ZM513.715 386.669C520.433 396.548 531.269 401.064 544.949 401.064V391.064C533.564 391.064 526.334 387.442 521.984 381.046L513.715 386.669ZM575.828 236.885C575.828 234.678 575.332 232.43 574.012 230.449L565.691 235.996C565.693 235.999 565.7 236.009 565.71 236.032C565.72 236.054 565.736 236.095 565.753 236.159C565.787 236.288 565.828 236.52 565.828 236.885H575.828ZM573.693 230.022C572.053 228.054 569.729 226.758 566.922 226.758V236.758C566.75 236.758 566.509 236.714 566.273 236.596C566.051 236.485 565.973 236.379 566.01 236.424L573.693 230.022ZM566.922 226.758C564.163 226.758 561.536 228.023 559.326 229.45C556.991 230.958 554.449 233.096 551.724 235.735L558.682 242.917C561.166 240.511 563.181 238.864 564.752 237.85C566.448 236.754 567.077 236.758 566.922 236.758V226.758ZM551.82 235.645C545.397 241.546 539.348 249.078 533.638 258.146L542.1 263.475C547.458 254.965 552.965 248.174 558.586 243.008L551.82 235.645ZM533.669 258.098C518.064 282.26 509.179 309.112 507.004 338.567L516.977 339.304C519.033 311.467 527.401 286.236 542.069 263.523L533.669 258.098ZM511.99 343.936C514.003 343.936 515.632 342.921 516.44 342.375C517.463 341.683 518.528 340.765 519.6 339.738C521.762 337.666 524.428 334.685 527.564 330.889L519.854 324.521C516.805 328.212 514.426 330.846 512.681 332.518C511.8 333.362 511.196 333.849 510.837 334.092C510.261 334.482 510.792 333.936 511.99 333.936V343.936ZM527.582 330.867C534.222 322.733 540.997 313.393 547.909 302.86L539.548 297.374C532.788 307.675 526.217 316.726 519.836 324.543L527.582 330.867ZM547.923 302.838C555.833 290.644 562.226 279.282 567.069 268.761L557.985 264.579C553.388 274.566 547.249 285.502 539.534 297.396L547.923 302.838ZM567.091 268.712C572.717 256.137 575.828 245.434 575.828 236.885H565.828C565.828 243.31 563.405 252.463 557.963 264.628L567.091 268.712ZM710.477 396.064V401.064H710.51L710.543 401.064L710.477 396.064ZM798.367 332.344L802.811 334.635L802.89 334.482L802.959 334.323L798.367 332.344ZM833.523 250.801L838.115 252.78L838.123 252.761L838.132 252.741L833.523 250.801ZM842.801 237.861L845.617 241.992L845.663 241.962L845.707 241.93L842.801 237.861ZM856.717 234.199L861.311 236.172L864.305 229.199H856.717V234.199ZM838.895 275.703L843.486 277.684L843.489 277.676L838.895 275.703ZM812.039 337.959L816.629 339.942L816.63 339.939L812.039 337.959ZM764.188 404.365L760.977 400.532L760.97 400.538L760.963 400.544L764.188 404.365ZM660.428 427.803L658.303 432.329L658.321 432.337L658.338 432.345L660.428 427.803ZM639.92 411.934L636.05 415.1L636.064 415.117L636.079 415.135L639.92 411.934ZM631.863 295.967L627.128 294.361L627.122 294.379L627.116 294.398L631.863 295.967ZM657.986 245.918L654.007 242.89L654.002 242.897L653.997 242.904L657.986 245.918ZM696.805 211.006L699.291 215.344L699.303 215.337L699.315 215.33L696.805 211.006ZM772.244 208.809L768.709 212.344L768.73 212.365L768.751 212.386L772.244 208.809ZM770.779 279.365L766.326 277.091L766.317 277.11L766.307 277.129L770.779 279.365ZM742.703 317.695L739.168 314.16L739.154 314.173L739.141 314.186L742.703 317.695ZM708.035 343.818L705.706 339.394L705.693 339.401L705.679 339.408L708.035 343.818ZM676.785 353.34V348.34H671.785V353.34H676.785ZM683.377 383.857L679.143 386.516L679.191 386.594L679.242 386.669L683.377 383.857ZM735.379 233.223L739.539 230.449L739.391 230.227L739.22 230.022L735.379 233.223ZM720.73 239.326L724.114 243.008L724.162 242.963L724.209 242.917L720.73 239.326ZM703.396 260.811L707.597 263.523L707.612 263.499L707.628 263.475L703.396 260.811ZM677.518 338.936L672.531 338.567L672.135 343.936H677.518V338.936ZM689.236 327.705L693.091 330.889L693.1 330.878L693.11 330.867L689.236 327.705ZM709.256 300.117L713.436 302.86L713.443 302.849L713.451 302.838L709.256 300.117ZM728.055 266.67L732.597 268.761L732.608 268.736L732.619 268.712L728.055 266.67ZM710.543 401.064C749.872 400.544 780.594 377.732 802.811 334.635L793.923 330.053C772.846 370.939 744.975 390.608 710.41 391.065L710.543 401.064ZM802.959 334.323L838.115 252.78L828.932 248.821L793.776 330.364L802.959 334.323ZM838.132 252.741C840.551 246.994 843.157 243.67 845.617 241.992L839.984 233.73C835.283 236.936 831.704 242.238 828.915 248.86L838.132 252.741ZM845.707 241.93C848.001 240.291 851.5 239.199 856.717 239.199V229.199C850.215 229.199 844.436 230.548 839.895 233.793L845.707 241.93ZM852.122 232.226L834.3 273.73L843.489 277.676L861.311 236.172L852.122 232.226ZM834.303 273.723L807.448 335.979L816.63 339.939L843.486 277.684L834.303 273.723ZM807.449 335.976C795.831 362.873 780.316 384.338 760.977 400.532L767.398 408.199C788.098 390.864 804.484 368.058 816.629 339.942L807.449 335.976ZM760.963 400.544C738.851 419.206 714.422 428.418 687.527 428.418V438.418C716.947 438.418 743.626 428.261 767.412 408.186L760.963 400.544ZM687.527 428.418C678.242 428.418 669.932 426.671 662.517 423.26L658.338 432.345C667.2 436.421 676.956 438.418 687.527 438.418V428.418ZM662.552 423.277C655.246 419.847 648.994 415.012 643.761 408.733L636.079 415.135C642.239 422.527 649.659 428.271 658.303 432.329L662.552 423.277ZM643.79 408.767C632.988 395.566 627.342 377.747 627.342 354.805H617.342C617.342 379.388 623.414 399.656 636.05 415.1L643.79 408.767ZM627.342 354.805C627.342 335.324 630.429 316.241 636.611 297.536L627.116 294.398C620.603 314.104 617.342 334.246 617.342 354.805H627.342ZM636.598 297.573C642.787 279.323 651.254 263.123 661.976 248.932L653.997 242.904C642.583 258.01 633.634 275.176 627.128 294.361L636.598 297.573ZM661.965 248.946C673.005 234.437 685.455 223.273 699.291 215.344L694.319 206.668C679.183 215.341 665.754 227.452 654.007 242.89L661.965 248.946ZM699.315 215.33C713.741 206.954 728.668 202.822 744.168 202.822V192.822C726.79 192.822 710.142 197.48 694.294 206.682L699.315 215.33ZM744.168 202.822C754.381 202.822 762.42 206.056 768.709 212.344L775.78 205.273C767.42 196.913 756.742 192.822 744.168 192.822V202.822ZM768.751 212.386C774.618 218.113 777.498 224.959 777.498 233.223H787.498C787.498 222.281 783.542 212.85 775.737 205.231L768.751 212.386ZM777.498 233.223C777.498 247.81 773.82 262.417 766.326 277.091L775.232 281.639C783.364 265.715 787.498 249.56 787.498 233.223H777.498ZM766.307 277.129C759.734 290.275 750.707 302.621 739.168 314.16L746.239 321.231C758.463 309.007 768.153 295.799 775.251 281.601L766.307 277.129ZM739.141 314.186C728.726 324.759 717.579 333.145 705.706 339.394L710.364 348.243C723.231 341.471 735.196 332.441 746.265 321.204L739.141 314.186ZM705.679 339.408C694.186 345.548 684.604 348.34 676.785 348.34V358.34C686.87 358.34 698.121 354.784 710.391 348.228L705.679 339.408ZM671.785 353.34C671.785 367.103 674.028 378.371 679.143 386.516L687.611 381.199C683.937 375.347 681.785 366.269 681.785 353.34H671.785ZM679.242 386.669C685.96 396.548 696.797 401.064 710.477 401.064V391.064C699.091 391.064 691.861 387.442 687.512 381.046L679.242 386.669ZM741.355 236.885C741.355 234.678 740.86 232.43 739.539 230.449L731.219 235.996C731.221 235.999 731.227 236.009 731.237 236.032C731.247 236.054 731.263 236.095 731.28 236.159C731.315 236.288 731.355 236.52 731.355 236.885H741.355ZM739.22 230.022C737.58 228.054 735.256 226.758 732.449 226.758V236.758C732.277 236.758 732.037 236.714 731.8 236.596C731.578 236.485 731.501 236.379 731.538 236.424L739.22 230.022ZM732.449 226.758C729.69 226.758 727.063 228.023 724.854 229.45C722.518 230.958 719.976 233.096 717.251 235.735L724.209 242.917C726.693 240.511 728.708 238.864 730.279 237.85C731.976 236.754 732.604 236.758 732.449 236.758V226.758ZM717.347 235.645C710.925 241.546 704.875 249.078 699.165 258.146L707.628 263.475C712.986 254.965 718.492 248.174 724.114 243.008L717.347 235.645ZM699.196 258.098C683.592 282.26 674.707 309.112 672.531 338.567L682.504 339.304C684.56 311.467 692.928 286.236 707.597 263.523L699.196 258.098ZM677.518 343.936C679.53 343.936 681.159 342.921 681.967 342.375C682.991 341.683 684.055 340.765 685.127 339.738C687.289 337.666 689.956 334.685 693.091 330.889L685.382 324.521C682.332 328.212 679.953 330.846 678.208 332.518C677.327 333.362 676.724 333.849 676.364 334.092C675.788 334.482 676.319 333.936 677.518 333.936V343.936ZM693.11 330.867C699.749 322.733 706.524 313.393 713.436 302.86L705.076 297.374C698.316 307.675 691.744 316.726 685.363 324.543L693.11 330.867ZM713.451 302.838C721.361 290.644 727.753 279.282 732.597 268.761L723.513 264.579C718.916 274.566 712.776 285.502 705.061 297.396L713.451 302.838ZM732.619 268.712C738.244 256.137 741.355 245.434 741.355 236.885H731.355C731.355 243.31 728.933 252.463 723.491 264.628L732.619 268.712ZM971.951 186.348L968.713 190.157L968.732 190.173L968.75 190.189L971.951 186.348ZM980.984 249.336L985.728 250.917L985.731 250.908L985.734 250.899L980.984 249.336ZM968.045 286.201L963.333 284.529L963.327 284.546L963.321 284.563L968.045 286.201ZM952.908 335.518L948.05 334.334L948.05 334.337L952.908 335.518ZM946.561 380.928H941.561L951.502 381.688L946.561 380.928ZM958.035 332.344L953.323 330.671L953.263 330.84L953.216 331.013L958.035 332.344ZM987.82 265.938L992.211 268.329L992.219 268.315L992.226 268.301L987.82 265.938ZM1027.62 207.344L1023.94 203.954L1023.94 203.956L1027.62 207.344ZM1080.84 186.348L1083.87 182.37L1083.84 182.348L1083.81 182.327L1080.84 186.348ZM1090.6 196.602L1094.71 193.756L1094.68 193.703L1094.64 193.651L1090.6 196.602ZM1097.68 209.785L1102.36 208.012L1102.35 207.984L1102.34 207.957L1097.68 209.785ZM1093.53 247.871L1088.81 246.219L1088.8 246.255L1088.79 246.29L1093.53 247.871ZM1080.11 285.225L1075.41 283.51L1075.4 283.526L1075.4 283.543L1080.11 285.225ZM1063.99 334.053L1059.18 332.688L1059.17 332.725L1059.16 332.761L1063.99 334.053ZM1061.55 388.008L1065.57 385.036L1065.54 384.993L1065.51 384.951L1061.55 388.008ZM1114.04 370.674L1110.22 367.447L1110.21 367.457L1114.04 370.674ZM1136.5 332.344L1141.09 334.336L1141.09 334.323L1136.5 332.344ZM1171.66 250.801L1176.25 252.78L1176.26 252.761L1176.27 252.741L1171.66 250.801ZM1180.94 237.861L1183.75 241.992L1183.8 241.962L1183.84 241.93L1180.94 237.861ZM1194.85 234.199L1199.45 236.172L1202.44 229.199H1194.85V234.199ZM1177.03 275.703L1181.61 277.699L1181.62 277.687L1181.62 277.676L1177.03 275.703ZM1149.93 337.959L1145.35 335.963L1145.33 335.989L1145.32 336.015L1149.93 337.959ZM1125.76 383.125L1121.66 380.265L1121.65 380.271L1121.65 380.278L1125.76 383.125ZM1014.68 410.713L1010.45 413.38L1010.45 413.387L1014.68 410.713ZM1013.7 309.395L1008.83 308.242L1008.83 308.252L1008.83 308.261L1013.7 309.395ZM1032.74 242.5L1037.51 244.018L1039.58 237.5H1032.74V242.5ZM1014.92 261.543L1019.05 264.355L1019.07 264.336L1019.08 264.316L1014.92 261.543ZM988.797 306.465L993.238 308.762L993.244 308.75L988.797 306.465ZM965.115 358.955L960.432 357.205L960.428 357.213L965.115 358.955ZM955.838 409.248L951.269 411.279L951.359 411.482L951.467 411.676L955.838 409.248ZM931.912 413.887L932.532 408.925L932.487 408.92L932.441 408.915L931.912 413.887ZM913.357 409.004L915.655 404.563L915.599 404.534L915.542 404.506L913.357 409.004ZM900.662 396.553L905.134 394.317L905.122 394.293L905.11 394.269L900.662 396.553ZM905.057 306.709L909.905 307.929L909.907 307.922L905.057 306.709ZM924.344 242.5L929.114 243.998L931.155 237.5H924.344V242.5ZM904.324 261.787L900.221 258.93L900.21 258.946L900.199 258.962L904.324 261.787ZM855.984 359.932L851.264 358.282L851.259 358.297L851.254 358.312L855.984 359.932ZM847.684 409.492L843.115 411.523L843.257 411.844L843.444 412.142L847.684 409.492ZM823.758 413.887L824.378 408.925L824.332 408.92L824.287 408.915L823.758 413.887ZM805.203 409.004L807.5 404.563L807.444 404.534L807.388 404.506L805.203 409.004ZM792.508 396.553L796.98 394.317L796.968 394.293L796.956 394.269L792.508 396.553ZM793.484 335.273L788.629 334.078L788.62 334.115L788.612 334.153L793.484 335.273ZM811.062 273.994L815.85 275.436L815.852 275.429L811.062 273.994ZM824.246 204.17L819.263 204.585L819.283 204.826L819.327 205.064L824.246 204.17ZM824.734 198.799L821.199 195.263L820.948 195.515L820.734 195.799L824.734 198.799ZM838.406 199.043L839.059 194.086L839.033 194.082L839.008 194.079L838.406 199.043ZM855.74 201.973L856.88 197.104L856.829 197.092L856.778 197.081L855.74 201.973ZM872.342 242.988L877.117 244.47L877.12 244.461L877.123 244.451L872.342 242.988ZM854.031 300.117L849.272 298.585L849.268 298.595L849.265 298.606L854.031 300.117ZM838.162 380.928H833.162L843.112 381.635L838.162 380.928ZM850.125 330.635L845.417 328.951L845.363 329.102L845.319 329.256L850.125 330.635ZM880.398 264.473L884.762 266.915L884.767 266.905L884.772 266.896L880.398 264.473ZM920.193 206.855L916.551 203.43L916.533 203.449L916.515 203.469L920.193 206.855ZM961.697 187.197C963.872 187.197 966.179 188.003 968.713 190.157L975.189 182.538C971.213 179.158 966.684 177.197 961.697 177.197V187.197ZM968.75 190.189C971.082 192.132 973.405 195.012 975.637 199.03L984.379 194.173C981.728 189.402 978.68 185.446 975.152 182.507L968.75 190.189ZM975.637 199.03C980.194 207.232 982.332 214.948 982.332 222.236H992.332C992.332 212.924 989.587 203.549 984.379 194.173L975.637 199.03ZM982.332 222.236C982.332 226.54 980.484 234.862 976.235 247.773L985.734 250.899C989.948 238.093 992.332 228.349 992.332 222.236H982.332ZM976.241 247.755C974.795 252.092 970.502 264.326 963.333 284.529L972.757 287.873C979.911 267.712 984.244 255.369 985.728 250.917L976.241 247.755ZM963.321 284.563C956.298 304.814 951.196 321.42 948.05 334.334L957.766 336.701C960.805 324.224 965.794 307.953 972.769 287.839L963.321 284.563ZM948.05 334.337C943.758 352 941.561 367.551 941.561 380.928H951.561C951.561 368.589 953.595 353.866 957.767 336.698L948.05 334.337ZM951.502 381.688C953.083 371.414 956.841 355.455 962.855 333.675L953.216 331.013C947.185 352.852 943.293 369.282 941.619 380.167L951.502 381.688ZM962.747 334.017C970.631 311.814 980.45 289.918 992.211 268.329L983.43 263.546C971.428 285.577 961.39 307.952 953.323 330.671L962.747 334.017ZM992.226 268.301C1005.29 243.955 1018.32 224.809 1031.29 210.732L1023.94 203.956C1010.22 218.849 996.721 238.767 983.414 263.574L992.226 268.301ZM1031.29 210.734C1046.5 194.239 1059.33 187.197 1069.85 187.197V177.197C1054.99 177.197 1039.65 186.92 1023.94 203.954L1031.29 210.734ZM1069.85 187.197C1072.08 187.197 1074.72 188.047 1077.87 190.369L1083.81 182.327C1079.46 179.115 1074.78 177.197 1069.85 177.197V187.197ZM1077.81 190.325C1080.77 192.581 1083.7 195.627 1086.57 199.552L1094.64 193.651C1091.32 189.113 1087.74 185.323 1083.87 182.37L1077.81 190.325ZM1086.49 199.448C1089.21 203.378 1091.39 207.433 1093.03 211.613L1102.34 207.957C1100.4 203.023 1097.85 198.288 1094.71 193.756L1086.49 199.448ZM1093.01 211.558C1094.67 215.926 1095.37 219.455 1095.37 222.236H1105.37C1105.37 217.856 1104.28 213.084 1102.36 208.012L1093.01 211.558ZM1095.37 222.236C1095.37 223.571 1094.96 226.184 1093.83 230.408C1092.74 234.511 1091.07 239.77 1088.81 246.219L1098.25 249.523C1100.55 242.951 1102.31 237.428 1103.49 232.985C1104.64 228.665 1105.37 224.971 1105.37 222.236H1095.37ZM1088.79 246.29C1087.35 250.6 1082.91 262.97 1075.41 283.51L1084.8 286.939C1092.28 266.463 1096.78 253.931 1098.28 249.452L1088.79 246.29ZM1075.4 283.543C1068.06 304.091 1062.64 320.487 1059.18 332.688L1068.8 335.418C1072.18 323.53 1077.5 307.374 1084.81 286.906L1075.4 283.543ZM1059.16 332.761C1054.72 349.376 1052.4 363.124 1052.4 373.848H1062.4C1062.4 364.389 1064.47 351.607 1068.82 335.344L1059.16 332.761ZM1052.4 373.848C1052.4 380.485 1053.97 386.38 1057.59 391.065L1065.51 384.951C1063.59 382.474 1062.4 378.929 1062.4 373.848H1052.4ZM1057.53 390.98C1061.26 396.02 1066.5 398.623 1072.78 398.623V388.623C1069.62 388.623 1067.38 387.483 1065.57 385.036L1057.53 390.98ZM1072.78 398.623C1089.39 398.623 1104.43 389.887 1117.87 373.891L1110.21 367.457C1097.94 382.06 1085.47 388.623 1072.78 388.623V398.623ZM1117.86 373.901C1126.25 363.968 1133.97 350.724 1141.09 334.336L1131.92 330.352C1125.04 346.19 1117.78 358.499 1110.22 367.447L1117.86 373.901ZM1141.09 334.323L1176.25 252.78L1167.07 248.821L1131.91 330.364L1141.09 334.323ZM1176.27 252.741C1178.69 246.994 1181.29 243.67 1183.75 241.992L1178.12 233.73C1173.42 236.936 1169.84 242.238 1167.05 248.86L1176.27 252.741ZM1183.84 241.93C1186.14 240.291 1189.63 239.199 1194.85 239.199V229.199C1188.35 229.199 1182.57 230.548 1178.03 233.793L1183.84 241.93ZM1190.26 232.226L1172.43 273.73L1181.62 277.676L1199.45 236.172L1190.26 232.226ZM1172.44 273.708L1145.35 335.963L1154.51 339.955L1181.61 277.699L1172.44 273.708ZM1145.32 336.015C1137.94 353.517 1130.04 368.248 1121.66 380.265L1129.86 385.985C1138.73 373.262 1146.95 357.882 1154.54 339.903L1145.32 336.015ZM1121.65 380.278C1100.62 410.635 1076.6 425 1049.59 425V435C1080.85 435 1107.6 418.115 1129.87 385.972L1121.65 380.278ZM1049.59 425C1036.18 425 1026.13 419.458 1018.9 408.039L1010.45 413.387C1019.5 427.684 1032.73 435 1049.59 435V425ZM1018.9 408.045C1012.81 398.384 1009.67 386.809 1009.67 373.115H999.666C999.666 388.393 1003.19 401.883 1010.45 413.38L1018.9 408.045ZM1009.67 373.115C1009.67 357.052 1012.59 336.228 1018.57 310.528L1008.83 308.261C1002.77 334.319 999.666 355.975 999.666 373.115H1009.67ZM1018.56 310.547C1022.92 292.156 1029.23 269.986 1037.51 244.018L1027.98 240.982C1019.65 267.097 1013.27 289.524 1008.83 308.242L1018.56 310.547ZM1032.74 237.5C1030.43 237.5 1028.41 238.529 1026.9 239.552C1025.3 240.634 1023.69 242.114 1022.07 243.844C1018.83 247.313 1015.05 252.337 1010.76 258.769L1019.08 264.316C1023.26 258.054 1026.68 253.556 1029.37 250.677C1030.73 249.233 1031.77 248.334 1032.51 247.828C1033.34 247.265 1033.35 247.5 1032.74 247.5V237.5ZM1010.79 258.731C1002.34 271.154 993.527 286.316 984.349 304.18L993.244 308.75C1002.3 291.132 1010.9 276.346 1019.05 264.355L1010.79 258.731ZM984.356 304.168C974.519 323.186 966.538 340.867 960.432 357.205L969.799 360.706C975.737 344.817 983.544 327.504 993.238 308.762L984.356 304.168ZM960.428 357.213C953.56 375.693 949.861 390.317 949.861 400.703H959.861C959.861 392.209 962.999 379.001 969.802 360.697L960.428 357.213ZM949.861 400.703C949.861 402.929 949.946 404.903 950.138 406.581C950.32 408.179 950.635 409.852 951.269 411.279L960.407 407.217C960.416 407.237 960.362 407.117 960.287 406.786C960.215 406.467 960.14 406.027 960.073 405.445C959.939 404.275 959.861 402.709 959.861 400.703H949.861ZM951.467 411.676C951.829 412.328 952.036 412.756 952.138 413.002C952.189 413.123 952.186 413.134 952.165 413.058C952.153 413.017 952.129 412.925 952.108 412.794C952.086 412.667 952.059 412.454 952.059 412.178H962.059C962.059 410.866 961.599 409.708 961.369 409.156C961.064 408.425 960.661 407.633 960.209 406.82L951.467 411.676ZM952.059 412.178C952.059 412.085 952.073 411.843 952.194 411.521C952.321 411.183 952.526 410.859 952.791 410.595L959.862 417.666C961.454 416.074 962.059 414.063 962.059 412.178H952.059ZM952.791 410.595C952.847 410.539 953.556 409.863 954.861 409.863V419.863C957.143 419.863 958.828 418.7 959.862 417.666L952.791 410.595ZM954.861 409.863C944.826 409.863 937.425 409.537 932.532 408.925L931.292 418.848C936.816 419.539 944.715 419.863 954.861 419.863V409.863ZM932.441 408.915C925.156 408.14 919.635 406.622 915.655 404.563L911.06 413.445C916.52 416.269 923.369 418.006 931.383 418.859L932.441 408.915ZM915.542 404.506C910.811 402.208 907.396 398.84 905.134 394.317L896.19 398.789C899.462 405.333 904.511 410.266 911.173 413.501L915.542 404.506ZM905.11 394.269C902.5 389.186 901.023 382.235 901.023 373.115H891.023C891.023 383.201 892.639 391.875 896.214 398.837L905.11 394.269ZM901.023 373.115C901.023 353.258 903.963 331.537 909.905 307.929L900.208 305.489C894.106 329.732 891.023 352.283 891.023 373.115H901.023ZM909.907 307.922C912.142 298.982 918.52 277.736 929.114 243.998L919.573 241.002C909.009 274.647 902.528 296.207 900.206 305.496L909.907 307.922ZM924.344 237.5C922.05 237.5 919.929 238.325 918.109 239.382C916.262 240.455 914.415 241.948 912.574 243.721C908.896 247.264 904.774 252.39 900.221 258.93L908.428 264.644C912.826 258.327 916.517 253.808 919.512 250.923C921.008 249.481 922.212 248.563 923.132 248.029C924.079 247.479 924.44 247.5 924.344 247.5V237.5ZM900.199 258.962C891.886 271.098 883.144 286.456 873.965 304.977L882.925 309.417C891.976 291.155 900.486 276.239 908.449 264.613L900.199 258.962ZM873.965 304.977C864.773 323.526 857.201 341.295 851.264 358.282L860.704 361.581C866.486 345.039 873.889 327.652 882.925 309.417L873.965 304.977ZM851.254 358.312C845.042 376.458 841.707 390.711 841.707 400.703H851.707C851.707 392.467 854.557 379.539 860.715 361.551L851.254 358.312ZM841.707 400.703C841.707 403.005 841.791 405.035 841.982 406.748C842.162 408.372 842.474 410.081 843.115 411.523L852.253 407.461C852.267 407.494 852.214 407.378 852.137 407.034C852.064 406.705 851.988 406.249 851.921 405.644C851.785 404.428 851.707 402.796 851.707 400.703H841.707ZM843.444 412.142C843.611 412.41 843.744 412.635 843.847 412.821C843.951 413.008 844.014 413.135 844.047 413.209C844.084 413.291 844.065 413.262 844.031 413.146C844.013 413.084 843.984 412.974 843.958 412.825C843.933 412.678 843.904 412.457 843.904 412.178H853.904C853.904 410.807 853.41 409.641 853.151 409.071C852.821 408.345 852.39 407.589 851.924 406.842L843.444 412.142ZM843.904 412.178C843.904 412.085 843.919 411.843 844.04 411.521C844.166 411.183 844.372 410.859 844.636 410.595L851.707 417.666C853.299 416.074 853.904 414.063 853.904 412.178H843.904ZM844.636 410.595C844.693 410.539 845.402 409.863 846.707 409.863V419.863C848.989 419.863 850.674 418.7 851.707 417.666L844.636 410.595ZM846.707 409.863C836.671 409.863 829.271 409.537 824.378 408.925L823.138 418.848C828.661 419.539 836.561 419.863 846.707 419.863V409.863ZM824.287 408.915C817.001 408.14 811.481 406.622 807.5 404.563L802.906 413.445C808.365 416.269 815.215 418.006 823.229 418.859L824.287 408.915ZM807.388 404.506C802.657 402.208 799.242 398.84 796.98 394.317L788.036 398.789C791.308 405.333 796.356 410.266 803.019 413.501L807.388 404.506ZM796.956 394.269C794.346 389.186 792.869 382.235 792.869 373.115H782.869C782.869 383.201 784.485 391.875 788.06 398.837L796.956 394.269ZM792.869 373.115C792.869 364.736 794.639 352.561 798.357 336.394L788.612 334.153C784.843 350.538 782.869 363.591 782.869 373.115H792.869ZM798.339 336.469C800.908 326.033 806.73 305.726 815.85 275.436L806.275 272.553C797.165 302.809 791.269 323.355 788.629 334.078L798.339 336.469ZM815.852 275.429C824.967 244.991 829.734 222.473 829.734 208.32H819.734C819.734 220.861 815.387 242.125 806.273 272.56L815.852 275.429ZM829.734 208.32C829.734 206.889 829.507 205.155 829.165 203.275L819.327 205.064C819.636 206.766 819.734 207.798 819.734 208.32H829.734ZM829.229 203.755C829.148 202.786 829.089 202.035 829.05 201.494C829.031 201.223 829.018 201.018 829.01 200.871C829 200.696 829.002 200.683 829.002 200.752H819.002C819.002 201.344 819.111 202.762 819.263 204.585L829.229 203.755ZM829.002 200.752C829.002 201.066 828.941 201.334 828.867 201.531C828.796 201.719 828.728 201.807 828.734 201.799L820.734 195.799C819.762 197.096 819.002 198.773 819.002 200.752H829.002ZM828.27 202.334C828.116 202.489 827.86 202.69 827.497 202.845C827.129 203.003 826.76 203.066 826.443 203.066V193.066C824.38 193.066 822.562 193.9 821.199 195.263L828.27 202.334ZM826.443 203.066C828.73 203.066 832.468 203.36 837.805 204.007L839.008 194.079C833.602 193.424 829.365 193.066 826.443 193.066V203.066ZM837.754 204C843.827 204.799 849.475 205.755 854.703 206.864L856.778 197.081C851.263 195.912 845.356 194.914 839.059 194.086L837.754 204ZM854.601 206.841C862.098 208.596 867.309 210.424 870.532 212.207C874.037 214.146 873.689 215.141 873.689 214.668H883.689C883.689 209.312 879.517 205.749 875.372 203.457C870.946 201.008 864.682 198.93 856.88 197.104L854.601 206.841ZM873.689 214.668C873.689 218.85 871.823 227.589 867.56 241.526L877.123 244.451C881.324 230.718 883.689 220.578 883.689 214.668H873.689ZM867.566 241.506C866.112 246.194 860.02 265.201 849.272 298.585L858.791 301.649C869.527 268.302 875.642 249.223 877.117 244.47L867.566 241.506ZM849.265 298.606C838.624 332.167 833.162 359.67 833.162 380.928H843.162C843.162 361.169 848.28 334.799 858.797 301.628L849.265 298.606ZM843.112 381.635C844.689 370.595 848.597 354.1 854.931 332.013L845.319 329.256C838.957 351.44 834.89 368.474 833.212 380.221L843.112 381.635ZM854.833 332.319C862.71 310.296 872.683 288.495 884.762 266.915L876.035 262.031C863.7 284.07 853.491 306.377 845.417 328.951L854.833 332.319ZM884.772 266.896C897.998 243.024 911.043 224.18 923.872 210.242L916.515 203.469C902.977 218.177 889.491 237.744 876.025 262.049L884.772 266.896ZM923.835 210.281C939.083 194.071 951.659 187.197 961.697 187.197V177.197C947.321 177.197 932.229 186.762 916.551 203.43L923.835 210.281ZM1214.38 396.064V401.064H1214.42L1214.45 401.064L1214.38 396.064ZM1302.27 332.344L1306.72 334.635L1306.8 334.482L1306.86 334.323L1302.27 332.344ZM1337.43 250.801L1342.02 252.78L1342.03 252.761L1342.04 252.741L1337.43 250.801ZM1346.71 237.861L1349.52 241.992L1349.57 241.962L1349.61 241.93L1346.71 237.861ZM1360.62 234.199L1365.22 236.172L1368.21 229.199H1360.62V234.199ZM1342.8 275.703L1347.39 277.684L1347.4 277.676L1342.8 275.703ZM1315.95 337.959L1320.54 339.942L1320.54 339.939L1315.95 337.959ZM1268.09 404.365L1264.88 400.532L1264.88 400.538L1264.87 400.544L1268.09 404.365ZM1164.33 427.803L1162.21 432.329L1162.23 432.337L1162.24 432.345L1164.33 427.803ZM1143.83 411.934L1139.96 415.1L1139.97 415.117L1139.99 415.135L1143.83 411.934ZM1135.77 295.967L1131.03 294.361L1131.03 294.379L1131.02 294.398L1135.77 295.967ZM1161.89 245.918L1157.91 242.89L1157.91 242.897L1157.9 242.904L1161.89 245.918ZM1200.71 211.006L1203.2 215.344L1203.21 215.337L1203.22 215.33L1200.71 211.006ZM1276.15 208.809L1272.61 212.344L1272.64 212.365L1272.66 212.386L1276.15 208.809ZM1274.69 279.365L1270.23 277.091L1270.22 277.11L1270.21 277.129L1274.69 279.365ZM1246.61 317.695L1243.07 314.16L1243.06 314.173L1243.05 314.186L1246.61 317.695ZM1211.94 343.818L1209.61 339.394L1209.6 339.401L1209.59 339.408L1211.94 343.818ZM1180.69 353.34V348.34H1175.69V353.34H1180.69ZM1187.28 383.857L1183.05 386.516L1183.1 386.594L1183.15 386.669L1187.28 383.857ZM1239.29 233.223L1243.45 230.449L1243.3 230.227L1243.13 230.022L1239.29 233.223ZM1224.64 239.326L1228.02 243.008L1228.07 242.963L1228.12 242.917L1224.64 239.326ZM1207.3 260.811L1211.5 263.523L1211.52 263.499L1211.53 263.475L1207.3 260.811ZM1181.42 338.936L1176.44 338.567L1176.04 343.936H1181.42V338.936ZM1193.14 327.705L1197 330.889L1197.01 330.878L1197.02 330.867L1193.14 327.705ZM1213.16 300.117L1217.34 302.86L1217.35 302.849L1217.36 302.838L1213.16 300.117ZM1231.96 266.67L1236.5 268.761L1236.51 268.736L1236.53 268.712L1231.96 266.67ZM1214.45 401.064C1253.78 400.544 1284.5 377.732 1306.72 334.635L1297.83 330.053C1276.75 370.939 1248.88 390.608 1214.32 391.065L1214.45 401.064ZM1306.86 334.323L1342.02 252.78L1332.84 248.821L1297.68 330.364L1306.86 334.323ZM1342.04 252.741C1344.46 246.994 1347.06 243.67 1349.52 241.992L1343.89 233.73C1339.19 236.936 1335.61 242.238 1332.82 248.86L1342.04 252.741ZM1349.61 241.93C1351.91 240.291 1355.41 239.199 1360.62 239.199V229.199C1354.12 229.199 1348.34 230.548 1343.8 233.793L1349.61 241.93ZM1356.03 232.226L1338.21 273.73L1347.4 277.676L1365.22 236.172L1356.03 232.226ZM1338.21 273.723L1311.35 335.979L1320.54 339.939L1347.39 277.684L1338.21 273.723ZM1311.36 335.976C1299.74 362.873 1284.22 384.338 1264.88 400.532L1271.3 408.199C1292 390.864 1308.39 368.058 1320.54 339.942L1311.36 335.976ZM1264.87 400.544C1242.76 419.206 1218.33 428.418 1191.43 428.418V438.418C1220.85 438.418 1247.53 428.261 1271.32 408.186L1264.87 400.544ZM1191.43 428.418C1182.15 428.418 1173.84 426.671 1166.42 423.26L1162.24 432.345C1171.11 436.421 1180.86 438.418 1191.43 438.418V428.418ZM1166.46 423.277C1159.15 419.847 1152.9 415.012 1147.67 408.733L1139.99 415.135C1146.15 422.527 1153.57 428.271 1162.21 432.329L1166.46 423.277ZM1147.7 408.767C1136.89 395.566 1131.25 377.747 1131.25 354.805H1121.25C1121.25 379.388 1127.32 399.656 1139.96 415.1L1147.7 408.767ZM1131.25 354.805C1131.25 335.324 1134.33 316.241 1140.52 297.536L1131.02 294.398C1124.51 314.104 1121.25 334.246 1121.25 354.805H1131.25ZM1140.5 297.573C1146.69 279.323 1155.16 263.123 1165.88 248.932L1157.9 242.904C1146.49 258.01 1137.54 275.176 1131.03 294.361L1140.5 297.573ZM1165.87 248.946C1176.91 234.437 1189.36 223.273 1203.2 215.344L1198.22 206.668C1183.09 215.341 1169.66 227.452 1157.91 242.89L1165.87 248.946ZM1203.22 215.33C1217.65 206.954 1232.57 202.822 1248.07 202.822V192.822C1230.7 192.822 1214.05 197.48 1198.2 206.682L1203.22 215.33ZM1248.07 202.822C1258.29 202.822 1266.33 206.056 1272.61 212.344L1279.69 205.273C1271.33 196.913 1260.65 192.822 1248.07 192.822V202.822ZM1272.66 212.386C1278.52 218.113 1281.4 224.959 1281.4 233.223H1291.4C1291.4 222.281 1287.45 212.85 1279.64 205.231L1272.66 212.386ZM1281.4 233.223C1281.4 247.81 1277.73 262.417 1270.23 277.091L1279.14 281.639C1287.27 265.715 1291.4 249.56 1291.4 233.223H1281.4ZM1270.21 277.129C1263.64 290.275 1254.61 302.621 1243.07 314.16L1250.14 321.231C1262.37 309.007 1272.06 295.799 1279.16 281.601L1270.21 277.129ZM1243.05 314.186C1232.63 324.759 1221.49 333.145 1209.61 339.394L1214.27 348.243C1227.14 341.471 1239.1 332.441 1250.17 321.204L1243.05 314.186ZM1209.59 339.408C1198.09 345.548 1188.51 348.34 1180.69 348.34V358.34C1190.78 358.34 1202.03 354.784 1214.3 348.228L1209.59 339.408ZM1175.69 353.34C1175.69 367.103 1177.93 378.371 1183.05 386.516L1191.52 381.199C1187.84 375.347 1185.69 366.269 1185.69 353.34H1175.69ZM1183.15 386.669C1189.87 396.548 1200.7 401.064 1214.38 401.064V391.064C1203 391.064 1195.77 387.442 1191.42 381.046L1183.15 386.669ZM1245.26 236.885C1245.26 234.678 1244.77 232.43 1243.45 230.449L1235.12 235.996C1235.13 235.999 1235.13 236.009 1235.14 236.032C1235.15 236.054 1235.17 236.095 1235.19 236.159C1235.22 236.288 1235.26 236.52 1235.26 236.885H1245.26ZM1243.13 230.022C1241.49 228.054 1239.16 226.758 1236.36 226.758V236.758C1236.18 236.758 1235.94 236.714 1235.71 236.596C1235.48 236.485 1235.41 236.379 1235.44 236.424L1243.13 230.022ZM1236.36 226.758C1233.6 226.758 1230.97 228.023 1228.76 229.45C1226.42 230.958 1223.88 233.096 1221.16 235.735L1228.12 242.917C1230.6 240.511 1232.61 238.864 1234.19 237.85C1235.88 236.754 1236.51 236.758 1236.36 236.758V226.758ZM1221.25 235.645C1214.83 241.546 1208.78 249.078 1203.07 258.146L1211.53 263.475C1216.89 254.965 1222.4 248.174 1228.02 243.008L1221.25 235.645ZM1203.1 258.098C1187.5 282.26 1178.61 309.112 1176.44 338.567L1186.41 339.304C1188.47 311.467 1196.83 286.236 1211.5 263.523L1203.1 258.098ZM1181.42 343.936C1183.44 343.936 1185.07 342.921 1185.87 342.375C1186.9 341.683 1187.96 340.765 1189.03 339.738C1191.2 337.666 1193.86 334.685 1197 330.889L1189.29 324.521C1186.24 328.212 1183.86 330.846 1182.11 332.518C1181.23 333.362 1180.63 333.849 1180.27 334.092C1179.69 334.482 1180.23 333.936 1181.42 333.936V343.936ZM1197.02 330.867C1203.66 322.733 1210.43 313.393 1217.34 302.86L1208.98 297.374C1202.22 307.675 1195.65 316.726 1189.27 324.543L1197.02 330.867ZM1217.36 302.838C1225.27 290.644 1231.66 279.282 1236.5 268.761L1227.42 264.579C1222.82 274.566 1216.68 285.502 1208.97 297.396L1217.36 302.838ZM1236.53 268.712C1242.15 256.137 1245.26 245.434 1245.26 236.885H1235.26C1235.26 243.31 1232.84 252.463 1227.4 264.628L1236.53 268.712ZM1379.91 396.064V401.064H1379.94L1379.98 401.064L1379.91 396.064ZM1467.8 332.344L1472.25 334.635L1472.32 334.482L1472.39 334.323L1467.8 332.344ZM1502.96 250.801L1507.55 252.78L1507.56 252.761L1507.57 252.741L1502.96 250.801ZM1512.23 237.861L1515.05 241.992L1515.1 241.962L1515.14 241.93L1512.23 237.861ZM1526.15 234.199L1530.74 236.172L1533.74 229.199H1526.15V234.199ZM1508.33 275.703L1512.92 277.684L1512.92 277.676L1508.33 275.703ZM1481.47 337.959L1486.06 339.942L1486.06 339.939L1481.47 337.959ZM1433.62 404.365L1430.41 400.532L1430.4 400.538L1430.4 400.544L1433.62 404.365ZM1329.86 427.803L1327.74 432.329L1327.75 432.337L1327.77 432.345L1329.86 427.803ZM1309.35 411.934L1305.48 415.1L1305.5 415.117L1305.51 415.135L1309.35 411.934ZM1301.3 295.967L1296.56 294.361L1296.56 294.379L1296.55 294.398L1301.3 295.967ZM1327.42 245.918L1323.44 242.89L1323.44 242.897L1323.43 242.904L1327.42 245.918ZM1366.24 211.006L1368.72 215.344L1368.74 215.337L1368.75 215.33L1366.24 211.006ZM1441.68 208.809L1438.14 212.344L1438.16 212.365L1438.19 212.386L1441.68 208.809ZM1440.21 279.365L1435.76 277.091L1435.75 277.11L1435.74 277.129L1440.21 279.365ZM1412.14 317.695L1408.6 314.16L1408.59 314.173L1408.57 314.186L1412.14 317.695ZM1377.47 343.818L1375.14 339.394L1375.13 339.401L1375.11 339.408L1377.47 343.818ZM1346.22 353.34V348.34H1341.22V353.34H1346.22ZM1352.81 383.857L1348.58 386.516L1348.62 386.594L1348.68 386.669L1352.81 383.857ZM1404.81 233.223L1408.97 230.449L1408.82 230.227L1408.65 230.022L1404.81 233.223ZM1390.16 239.326L1393.55 243.008L1393.6 242.963L1393.64 242.917L1390.16 239.326ZM1372.83 260.811L1377.03 263.523L1377.05 263.499L1377.06 263.475L1372.83 260.811ZM1346.95 338.936L1341.96 338.567L1341.57 343.936H1346.95V338.936ZM1358.67 327.705L1362.52 330.889L1362.53 330.878L1362.54 330.867L1358.67 327.705ZM1378.69 300.117L1382.87 302.86L1382.88 302.849L1382.88 302.838L1378.69 300.117ZM1397.49 266.67L1402.03 268.761L1402.04 268.736L1402.05 268.712L1397.49 266.67ZM1379.98 401.064C1419.31 400.544 1450.03 377.732 1472.25 334.635L1463.36 330.053C1442.28 370.939 1414.41 390.608 1379.84 391.065L1379.98 401.064ZM1472.39 334.323L1507.55 252.78L1498.37 248.821L1463.21 330.364L1472.39 334.323ZM1507.57 252.741C1509.98 246.994 1512.59 243.67 1515.05 241.992L1509.42 233.73C1504.72 236.936 1501.14 242.238 1498.35 248.86L1507.57 252.741ZM1515.14 241.93C1517.43 240.291 1520.93 239.199 1526.15 239.199V229.199C1519.65 229.199 1513.87 230.548 1509.33 233.793L1515.14 241.93ZM1521.56 232.226L1503.73 273.73L1512.92 277.676L1530.74 236.172L1521.56 232.226ZM1503.74 273.723L1476.88 335.979L1486.06 339.939L1512.92 277.684L1503.74 273.723ZM1476.88 335.976C1465.26 362.873 1449.75 384.338 1430.41 400.532L1436.83 408.199C1457.53 390.864 1473.92 368.058 1486.06 339.942L1476.88 335.976ZM1430.4 400.544C1408.28 419.206 1383.86 428.418 1356.96 428.418V438.418C1386.38 438.418 1413.06 428.261 1436.85 408.186L1430.4 400.544ZM1356.96 428.418C1347.68 428.418 1339.37 426.671 1331.95 423.26L1327.77 432.345C1336.63 436.421 1346.39 438.418 1356.96 438.418V428.418ZM1331.99 423.277C1324.68 419.847 1318.43 415.012 1313.19 408.733L1305.51 415.135C1311.67 422.527 1319.09 428.271 1327.74 432.329L1331.99 423.277ZM1313.22 408.767C1302.42 395.566 1296.78 377.747 1296.78 354.805H1286.78C1286.78 379.388 1292.85 399.656 1305.48 415.1L1313.22 408.767ZM1296.78 354.805C1296.78 335.324 1299.86 316.241 1306.04 297.536L1296.55 294.398C1290.04 314.104 1286.78 334.246 1286.78 354.805H1296.78ZM1306.03 297.573C1312.22 279.323 1320.69 263.123 1331.41 248.932L1323.43 242.904C1312.02 258.01 1303.07 275.176 1296.56 294.361L1306.03 297.573ZM1331.4 248.946C1342.44 234.437 1354.89 223.273 1368.72 215.344L1363.75 206.668C1348.62 215.341 1335.19 227.452 1323.44 242.89L1331.4 248.946ZM1368.75 215.33C1383.17 206.954 1398.1 202.822 1413.6 202.822V192.822C1396.22 192.822 1379.58 197.48 1363.73 206.682L1368.75 215.33ZM1413.6 202.822C1423.81 202.822 1431.85 206.056 1438.14 212.344L1445.21 205.273C1436.85 196.913 1426.18 192.822 1413.6 192.822V202.822ZM1438.19 212.386C1444.05 218.113 1446.93 224.959 1446.93 233.223H1456.93C1456.93 222.281 1452.98 212.85 1445.17 205.231L1438.19 212.386ZM1446.93 233.223C1446.93 247.81 1443.25 262.417 1435.76 277.091L1444.67 281.639C1452.8 265.715 1456.93 249.56 1456.93 233.223H1446.93ZM1435.74 277.129C1429.17 290.275 1420.14 302.621 1408.6 314.16L1415.67 321.231C1427.9 309.007 1437.59 295.799 1444.69 281.601L1435.74 277.129ZM1408.57 314.186C1398.16 324.759 1387.01 333.145 1375.14 339.394L1379.8 348.243C1392.66 341.471 1404.63 332.441 1415.7 321.204L1408.57 314.186ZM1375.11 339.408C1363.62 345.548 1354.04 348.34 1346.22 348.34V358.34C1356.3 358.34 1367.55 354.784 1379.82 348.228L1375.11 339.408ZM1341.22 353.34C1341.22 367.103 1343.46 378.371 1348.58 386.516L1357.04 381.199C1353.37 375.347 1351.22 366.269 1351.22 353.34H1341.22ZM1348.68 386.669C1355.39 396.548 1366.23 401.064 1379.91 401.064V391.064C1368.53 391.064 1361.29 387.442 1356.95 381.046L1348.68 386.669ZM1410.79 236.885C1410.79 234.678 1410.29 232.43 1408.97 230.449L1400.65 235.996C1400.65 235.999 1400.66 236.009 1400.67 236.032C1400.68 236.054 1400.7 236.095 1400.71 236.159C1400.75 236.288 1400.79 236.52 1400.79 236.885H1410.79ZM1408.65 230.022C1407.01 228.054 1404.69 226.758 1401.88 226.758V236.758C1401.71 236.758 1401.47 236.714 1401.23 236.596C1401.01 236.485 1400.93 236.379 1400.97 236.424L1408.65 230.022ZM1401.88 226.758C1399.12 226.758 1396.5 228.023 1394.29 229.45C1391.95 230.958 1389.41 233.096 1386.69 235.735L1393.64 242.917C1396.13 240.511 1398.14 238.864 1399.71 237.85C1401.41 236.754 1402.04 236.758 1401.88 236.758V226.758ZM1386.78 235.645C1380.36 241.546 1374.31 249.078 1368.6 258.146L1377.06 263.475C1382.42 254.965 1387.93 248.174 1393.55 243.008L1386.78 235.645ZM1368.63 258.098C1353.03 282.26 1344.14 309.112 1341.96 338.567L1351.94 339.304C1353.99 311.467 1362.36 286.236 1377.03 263.523L1368.63 258.098ZM1346.95 343.936C1348.96 343.936 1350.59 342.921 1351.4 342.375C1352.42 341.683 1353.49 340.765 1354.56 339.738C1356.72 337.666 1359.39 334.685 1362.52 330.889L1354.82 324.521C1351.77 328.212 1349.39 330.846 1347.64 332.518C1346.76 333.362 1346.16 333.849 1345.8 334.092C1345.22 334.482 1345.75 333.936 1346.95 333.936V343.936ZM1362.54 330.867C1369.18 322.733 1375.96 313.393 1382.87 302.86L1374.51 297.374C1367.75 307.675 1361.18 316.726 1354.8 324.543L1362.54 330.867ZM1382.88 302.838C1390.79 290.644 1397.19 279.282 1402.03 268.761L1392.95 264.579C1388.35 274.566 1382.21 285.502 1374.49 297.396L1382.88 302.838ZM1402.05 268.712C1407.68 256.137 1410.79 245.434 1410.79 236.885H1400.79C1400.79 243.31 1398.37 252.463 1392.92 264.628L1402.05 268.712Z" fill="#C23616"/>
</svg>
