<svg width="1575" height="558" viewBox="0 0 1575 558" fill="none" xmlns="http://www.w3.org/2000/svg">
<g clip-path="url(#clip0)">
<path d="M339.781 268.801C342.385 262.616 345.396 258.303 348.814 255.861C352.395 253.42 357.115 252.199 362.975 252.199L344.908 293.703L318.053 355.959C300.475 396.812 277.118 429.364 247.984 453.615C215.921 480.308 180.113 493.654 140.562 493.654C102.314 493.654 73.1797 479.576 53.1602 451.418C32.8151 423.098 22.6426 381.838 22.6426 327.639C22.6426 277.183 32.4082 227.378 51.9395 178.225C61.7051 153.648 73.2611 131.431 86.6074 111.574C106.139 83.5794 127.949 61.9323 152.037 46.6328C176.126 31.3333 201.516 23.6836 228.209 23.6836C256.692 23.6836 278.339 31.6589 293.15 47.6094C299.498 54.4453 304.299 62.4206 307.555 71.5352C310.484 79.9987 311.949 88.8691 311.949 98.1465C311.949 112.795 309.426 126.548 304.381 139.406C299.661 151.451 293.069 162.03 284.605 171.145C276.467 180.096 267.271 187.014 257.018 191.896C246.764 196.779 236.428 199.221 226.012 199.221C226.012 198.081 231.139 189.699 241.393 174.074C251.809 158.286 257.018 139.081 257.018 116.457C257.018 102.622 254.658 91.7988 249.938 83.9863C244.566 75.36 236.347 71.0469 225.279 71.0469C205.911 71.0469 187.275 79.9987 169.371 97.9023C152.932 114.178 138.121 136.721 124.938 165.529C112.405 192.548 102.639 222.251 95.6406 254.641C88.4792 286.867 84.8984 317.466 84.8984 346.438C84.8984 416.424 107.766 451.418 153.502 451.418C177.916 451.418 200.54 445.64 221.373 434.084C239.602 423.993 256.692 409.263 272.643 389.895C285.663 373.944 298.359 354.25 310.729 330.812C318.867 315.188 328.551 294.517 339.781 268.801ZM369.078 253.42C372.984 253.42 376.565 252.443 379.82 250.49C382.262 249.025 384.378 246.991 386.168 244.387L387.633 240.236C388.935 236.818 392.19 235.109 397.398 235.109C400.328 235.109 404.234 235.516 409.117 236.33C414.651 237.469 419.859 238.771 424.742 240.236C437.6 244.468 444.029 249.27 444.029 254.641C444.029 258.872 441.995 266.685 437.926 278.078C436.624 281.822 432.636 292.727 425.963 310.793C419.29 328.859 414.407 343.345 411.314 354.25C407.408 369.224 405.455 381.757 405.455 391.848C405.455 397.707 406.757 402.427 409.361 406.008C412.128 409.751 415.872 411.623 420.592 411.623C435.403 411.623 449.238 403.973 462.096 388.674C470.071 379.234 477.558 366.457 484.557 350.344L519.713 268.801C522.317 262.616 525.328 258.303 528.746 255.861C532.327 253.42 536.965 252.199 542.662 252.199L497.984 355.959C490.335 373.7 482.278 388.755 473.814 401.125C452.167 432.375 426.777 448 397.643 448C382.506 448 370.868 441.571 362.73 428.713C355.895 418.133 352.477 405.601 352.477 391.115C352.477 373.049 355.162 352.541 360.533 329.592C364.439 312.502 370.543 291.506 378.844 266.604C373.473 271.486 367.532 275.474 361.021 278.566C354.023 281.984 347.675 283.693 341.979 283.693C328.795 283.693 318.948 279.136 312.438 270.021C306.904 262.209 304.137 251.304 304.137 237.307C304.137 225.1 307.066 214.276 312.926 204.836C315.53 200.767 318.378 197.512 321.471 195.07C324.563 192.629 327.656 191.408 330.748 191.408C338.561 191.408 347.024 196.047 356.139 205.324C359.882 208.905 362.975 212.648 365.416 216.555C367.857 220.298 369.078 223.146 369.078 225.1C369.078 227.541 368.264 231.04 366.637 235.598C366.148 236.9 365.253 239.26 363.951 242.678C363.137 244.305 362.568 245.689 362.242 246.828C361.591 248.618 360.94 250.246 360.289 251.711C362.73 252.85 365.66 253.42 369.078 253.42ZM561.949 414.064C598.896 413.576 628.193 392.336 649.84 350.344L684.996 268.801C687.6 262.616 690.693 258.303 694.273 255.861C697.691 253.42 702.33 252.199 708.189 252.199L690.367 293.703L663.512 355.959C651.63 383.465 635.68 405.601 615.66 422.365C592.711 441.734 567.158 451.418 539 451.418C529.072 451.418 520.038 449.546 511.9 445.803C503.925 442.059 497.089 436.77 491.393 429.934C479.674 415.611 473.814 396.568 473.814 372.805C473.814 352.785 476.988 333.173 483.336 313.967C489.684 295.249 498.391 278.566 509.459 263.918C520.852 248.944 533.792 237.307 548.277 229.006C563.414 220.217 579.202 215.822 595.641 215.822C607.034 215.822 616.393 219.484 623.717 226.809C630.553 233.482 633.971 241.62 633.971 251.223C633.971 266.685 630.064 282.066 622.252 297.365C615.416 311.037 606.057 323.814 594.176 335.695C583.434 346.6 571.878 355.308 559.508 361.818C547.626 368.166 537.21 371.34 528.258 371.34C528.258 384.686 530.455 394.859 534.85 401.857C540.383 409.995 549.417 414.064 561.949 414.064ZM587.828 254.885C587.828 253.42 587.503 252.199 586.852 251.223C586.038 250.246 585.061 249.758 583.922 249.758C581.318 249.758 577.411 252.281 572.203 257.326C566.181 262.86 560.403 270.021 554.869 278.811C539.732 302.248 531.106 328.29 528.99 356.936C530.618 356.936 534.524 353.192 540.709 345.705C547.219 337.73 553.893 328.534 560.729 318.117C568.541 306.073 574.807 294.924 579.527 284.67C585.061 272.3 587.828 262.372 587.828 254.885ZM727.477 414.064C764.423 413.576 793.72 392.336 815.367 350.344L850.523 268.801C853.128 262.616 856.22 258.303 859.801 255.861C863.219 253.42 867.857 252.199 873.717 252.199L855.895 293.703L829.039 355.959C817.158 383.465 801.207 405.601 781.188 422.365C758.238 441.734 732.685 451.418 704.527 451.418C694.599 451.418 685.566 449.546 677.428 445.803C669.452 442.059 662.617 436.77 656.92 429.934C645.201 415.611 639.342 396.568 639.342 372.805C639.342 352.785 642.516 333.173 648.863 313.967C655.211 295.249 663.919 278.566 674.986 263.918C686.38 248.944 699.319 237.307 713.805 229.006C728.941 220.217 744.729 215.822 761.168 215.822C772.561 215.822 781.92 219.484 789.244 226.809C796.08 233.482 799.498 241.62 799.498 251.223C799.498 266.685 795.592 282.066 787.779 297.365C780.943 311.037 771.585 323.814 759.703 335.695C748.961 346.6 737.405 355.308 725.035 361.818C713.154 368.166 702.737 371.34 693.785 371.34C693.785 384.686 695.982 394.859 700.377 401.857C705.911 409.995 714.944 414.064 727.477 414.064ZM753.355 254.885C753.355 253.42 753.03 252.199 752.379 251.223C751.565 250.246 750.589 249.758 749.449 249.758C746.845 249.758 742.939 252.281 737.73 257.326C731.708 262.86 725.93 270.021 720.396 278.811C705.26 302.248 696.633 328.29 694.518 356.936C696.145 356.936 700.051 353.192 706.236 345.705C712.747 337.73 719.42 328.534 726.256 318.117C734.068 306.073 740.335 294.924 745.055 284.67C750.589 272.3 753.355 262.372 753.355 254.885ZM978.697 200.197C982.278 200.197 985.696 201.581 988.951 204.348C991.881 206.789 994.566 210.207 997.008 214.602C1001.89 223.391 1004.33 231.936 1004.33 240.236C1004.33 245.445 1002.22 254.478 997.984 267.336C996.52 271.73 992.206 284.019 985.045 304.201C978.046 324.383 973.001 340.822 969.908 353.518C965.676 370.933 963.561 386.07 963.561 398.928C965.188 388.348 969.013 372.154 975.035 350.344C983.01 327.883 992.939 305.747 1004.82 283.938C1018 259.361 1031.27 239.829 1044.62 225.344C1060.08 208.579 1074.16 200.197 1086.85 200.197C1090.43 200.197 1094.09 201.581 1097.84 204.348C1101.26 206.952 1104.51 210.37 1107.6 214.602C1110.53 218.833 1112.89 223.228 1114.68 227.785C1116.47 232.505 1117.37 236.656 1117.37 240.236C1117.37 244.305 1115.09 252.85 1110.53 265.871C1109.07 270.266 1104.59 282.717 1097.11 303.225C1089.78 323.732 1084.41 340.008 1080.99 352.053C1076.6 368.492 1074.4 381.757 1074.4 391.848C1074.4 397.707 1075.78 402.427 1078.55 406.008C1081.32 409.751 1085.06 411.623 1089.78 411.623C1104.43 411.623 1118.18 403.973 1131.04 388.674C1139.02 379.234 1146.5 366.457 1153.5 350.344L1188.66 268.801C1191.26 262.616 1194.35 258.303 1197.94 255.861C1201.35 253.42 1205.99 252.199 1211.85 252.199L1194.03 293.703L1166.93 355.959C1159.44 373.7 1151.39 388.755 1142.76 401.125C1121.11 432.375 1095.72 448 1066.59 448C1051.45 448 1039.81 441.571 1031.68 428.713C1025 418.133 1021.67 405.601 1021.67 391.115C1021.67 374.514 1024.68 353.273 1030.7 327.395C1035.09 308.84 1041.44 286.542 1049.74 260.5C1046.32 260.5 1040.38 266.848 1031.92 279.543C1023.62 291.75 1014.91 306.724 1005.8 324.465C996.031 343.345 988.137 360.842 982.115 376.955C975.279 395.347 971.861 409.263 971.861 418.703C971.861 422.935 972.187 425.783 972.838 427.248C973.652 428.713 974.059 429.689 974.059 430.178C974.059 430.992 973.814 431.643 973.326 432.131C972.838 432.619 972.35 432.863 971.861 432.863C961.77 432.863 954.12 432.538 948.912 431.887C941.262 431.073 935.077 429.445 930.357 427.004C924.661 424.237 920.429 420.087 917.662 414.553C914.57 408.531 913.023 400.718 913.023 391.115C913.023 370.77 916.035 348.635 922.057 324.709C924.335 315.594 930.764 294.191 941.344 260.5C936.949 260.5 930.276 266.929 921.324 279.787C913.186 291.669 904.56 306.805 895.445 325.197C886.331 343.589 878.844 361.167 872.984 377.932C866.799 395.998 863.707 409.589 863.707 418.703C863.707 423.098 864.033 426.027 864.684 427.492C865.497 428.794 865.904 429.689 865.904 430.178C865.904 430.992 865.66 431.643 865.172 432.131C864.684 432.619 864.195 432.863 863.707 432.863C853.616 432.863 845.966 432.538 840.758 431.887C833.108 431.073 826.923 429.445 822.203 427.004C816.507 424.237 812.275 420.087 809.508 414.553C806.415 408.531 804.869 400.718 804.869 391.115C804.869 382.163 806.741 369.549 810.484 353.273C813.089 342.694 818.948 322.268 828.062 291.994C837.177 261.558 841.734 239.667 841.734 226.32C841.734 225.344 841.572 223.96 841.246 222.17C841.083 220.217 841.002 219.077 841.002 218.752C841.002 218.101 841.246 217.45 841.734 216.799C842.223 216.311 842.792 216.066 843.443 216.066C846.048 216.066 850.035 216.392 855.406 217.043C861.591 217.857 867.369 218.833 872.74 219.973C888.04 223.553 895.689 227.785 895.689 232.668C895.689 237.714 893.574 247.154 889.342 260.988C887.877 265.708 881.773 284.751 871.031 318.117C860.452 351.483 855.162 378.42 855.162 398.928C856.79 387.535 860.777 370.77 867.125 348.635C875.1 326.337 885.191 304.283 897.398 282.473C910.745 258.384 924.01 239.178 937.193 224.855C952.656 208.417 966.49 200.197 978.697 200.197ZM1231.38 414.064C1268.33 413.576 1297.63 392.336 1319.27 350.344L1354.43 268.801C1357.03 262.616 1360.13 258.303 1363.71 255.861C1367.12 253.42 1371.76 252.199 1377.62 252.199L1359.8 293.703L1332.95 355.959C1321.06 383.465 1305.11 405.601 1285.09 422.365C1262.14 441.734 1236.59 451.418 1208.43 451.418C1198.51 451.418 1189.47 449.546 1181.33 445.803C1173.36 442.059 1166.52 436.77 1160.83 429.934C1149.11 415.611 1143.25 396.568 1143.25 372.805C1143.25 352.785 1146.42 333.173 1152.77 313.967C1159.12 295.249 1167.82 278.566 1178.89 263.918C1190.29 248.944 1203.23 237.307 1217.71 229.006C1232.85 220.217 1248.64 215.822 1265.07 215.822C1276.47 215.822 1285.83 219.484 1293.15 226.809C1299.99 233.482 1303.4 241.62 1303.4 251.223C1303.4 266.685 1299.5 282.066 1291.69 297.365C1284.85 311.037 1275.49 323.814 1263.61 335.695C1252.87 346.6 1241.31 355.308 1228.94 361.818C1217.06 368.166 1206.64 371.34 1197.69 371.34C1197.69 384.686 1199.89 394.859 1204.28 401.857C1209.82 409.995 1218.85 414.064 1231.38 414.064ZM1257.26 254.885C1257.26 253.42 1256.94 252.199 1256.29 251.223C1255.47 250.246 1254.49 249.758 1253.36 249.758C1250.75 249.758 1246.85 252.281 1241.64 257.326C1235.61 262.86 1229.84 270.021 1224.3 278.811C1209.17 302.248 1200.54 328.29 1198.42 356.936C1200.05 356.936 1203.96 353.192 1210.14 345.705C1216.65 337.73 1223.33 328.534 1230.16 318.117C1237.97 306.073 1244.24 294.924 1248.96 284.67C1254.49 272.3 1257.26 262.372 1257.26 254.885ZM1396.91 414.064C1433.86 413.576 1463.15 392.336 1484.8 350.344L1519.96 268.801C1522.56 262.616 1525.65 258.303 1529.23 255.861C1532.65 253.42 1537.29 252.199 1543.15 252.199L1525.33 293.703L1498.47 355.959C1486.59 383.465 1470.64 405.601 1450.62 422.365C1427.67 441.734 1402.12 451.418 1373.96 451.418C1364.03 451.418 1355 449.546 1346.86 445.803C1338.89 442.059 1332.05 436.77 1326.35 429.934C1314.63 415.611 1308.78 396.568 1308.78 372.805C1308.78 352.785 1311.95 333.173 1318.3 313.967C1324.64 295.249 1333.35 278.566 1344.42 263.918C1355.81 248.944 1368.75 237.307 1383.24 229.006C1398.38 220.217 1414.16 215.822 1430.6 215.822C1441.99 215.822 1451.35 219.484 1458.68 226.809C1465.51 233.482 1468.93 241.62 1468.93 251.223C1468.93 266.685 1465.03 282.066 1457.21 297.365C1450.38 311.037 1441.02 323.814 1429.14 335.695C1418.39 346.6 1406.84 355.308 1394.47 361.818C1382.59 368.166 1372.17 371.34 1363.22 371.34C1363.22 384.686 1365.42 394.859 1369.81 401.857C1375.34 409.995 1384.38 414.064 1396.91 414.064ZM1422.79 254.885C1422.79 253.42 1422.46 252.199 1421.81 251.223C1421 250.246 1420.02 249.758 1418.88 249.758C1416.28 249.758 1412.37 252.281 1407.16 257.326C1401.14 262.86 1395.36 270.021 1389.83 278.811C1374.69 302.248 1366.07 328.29 1363.95 356.936C1365.58 356.936 1369.49 353.192 1375.67 345.705C1382.18 337.73 1388.85 328.534 1395.69 318.117C1403.5 306.073 1409.77 294.924 1414.49 284.67C1420.02 272.3 1422.79 262.372 1422.79 254.885Z" fill="#C23616"/>
<path d="M339.781 268.801L344.363 270.802L344.377 270.772L344.389 270.741L339.781 268.801ZM348.814 255.861L345.998 251.73L345.953 251.761L345.908 251.793L348.814 255.861ZM362.975 252.199L367.559 254.195L370.604 247.199H362.975V252.199ZM344.908 293.703L340.324 291.708L340.32 291.715L340.317 291.723L344.908 293.703ZM318.053 355.959L313.462 353.979L313.46 353.983L318.053 355.959ZM247.984 453.615L244.786 449.772L244.785 449.773L247.984 453.615ZM53.1602 451.418L57.2352 448.521L57.2281 448.511L57.2209 448.501L53.1602 451.418ZM86.6074 111.574L82.5068 108.713L82.4819 108.749L82.4577 108.785L86.6074 111.574ZM293.15 47.6094L296.814 44.2071L293.15 47.6094ZM307.555 71.5352L312.28 69.8996L312.272 69.8765L312.263 69.8535L307.555 71.5352ZM304.381 139.406L299.726 137.58L299.726 137.582L304.381 139.406ZM284.605 171.145L280.942 167.742L280.924 167.762L280.906 167.781L284.605 171.145ZM226.012 199.221H221.012V204.221H226.012V199.221ZM241.393 174.074L237.219 171.321L237.212 171.331L241.393 174.074ZM249.938 83.9863L254.217 81.4007L254.2 81.372L254.182 81.3435L249.938 83.9863ZM169.371 97.9023L172.889 101.455L172.898 101.447L172.907 101.438L169.371 97.9023ZM124.938 165.529L129.473 167.633L129.479 167.622L129.484 167.61L124.938 165.529ZM95.6406 254.641L100.522 255.725L100.525 255.711L100.528 255.697L95.6406 254.641ZM221.373 434.084L218.951 429.71L218.948 429.712L221.373 434.084ZM272.643 389.895L276.502 393.073L276.509 393.065L276.516 393.056L272.643 389.895ZM310.729 330.812L315.15 333.146L315.157 333.134L315.163 333.122L310.729 330.812ZM344.389 270.741C346.829 264.947 349.381 261.601 351.721 259.93L345.908 251.793C341.412 255.004 337.942 260.285 335.173 266.86L344.389 270.741ZM351.631 259.992C354.136 258.285 357.774 257.199 362.975 257.199V247.199C356.456 247.199 350.655 248.555 345.998 251.73L351.631 259.992ZM358.39 250.204L340.324 291.708L349.493 295.699L367.559 254.195L358.39 250.204ZM340.317 291.723L313.462 353.979L322.644 357.939L349.499 295.684L340.317 291.723ZM313.46 353.983C296.139 394.237 273.218 426.105 244.786 449.772L251.183 457.458C281.019 432.623 304.81 399.386 322.646 357.935L313.46 353.983ZM244.785 449.773C213.567 475.762 178.877 488.654 140.562 488.654V498.654C181.35 498.654 218.275 484.854 251.183 457.458L244.785 449.773ZM140.562 488.654C103.731 488.654 76.2057 475.203 57.2352 448.521L49.0851 454.315C70.1536 483.948 100.897 498.654 140.562 498.654V488.654ZM57.2209 448.501C37.7405 421.384 27.6426 381.332 27.6426 327.639H17.6426C17.6426 382.344 27.8897 424.811 49.0994 454.335L57.2209 448.501ZM27.6426 327.639C27.6426 277.845 37.2768 228.666 56.5861 180.071L47.2928 176.378C27.5396 226.091 17.6426 276.52 17.6426 327.639H27.6426ZM56.5861 180.071C66.2337 155.791 77.6291 133.895 90.7572 114.363L82.4577 108.785C68.893 128.967 57.1764 151.505 47.2928 176.378L56.5861 180.071ZM90.7081 114.435C109.933 86.8788 131.286 65.7358 154.718 50.8535L149.356 42.4122C124.611 58.1288 102.344 80.2801 82.5068 108.713L90.7081 114.435ZM154.718 50.8535C178.063 36.0263 202.532 28.6836 228.209 28.6836V18.6836C200.501 18.6836 174.189 26.6404 149.356 42.4122L154.718 50.8535ZM228.209 28.6836C255.753 28.6836 275.89 36.3693 289.486 51.0116L296.814 44.2071C280.788 26.9484 257.631 18.6836 228.209 18.6836V28.6836ZM289.486 51.0116C295.355 57.3321 299.81 64.7162 302.846 73.2168L312.263 69.8535C308.789 60.1249 303.641 51.5585 296.814 44.2071L289.486 51.0116ZM302.83 73.1707C305.571 81.0894 306.949 89.4056 306.949 98.1465H316.949C316.949 88.3326 315.398 78.908 312.28 69.8996L302.83 73.1707ZM306.949 98.1465C306.949 112.208 304.53 125.338 299.726 137.58L309.035 141.233C314.323 127.758 316.949 113.382 316.949 98.1465H306.949ZM299.726 137.582C295.225 149.066 288.962 159.105 280.942 167.742L288.269 174.547C297.176 164.955 304.097 153.835 309.036 141.231L299.726 137.582ZM280.906 167.781C273.176 176.284 264.498 182.797 254.868 187.382L259.167 196.411C270.045 191.231 279.759 183.909 288.305 174.508L280.906 167.781ZM254.868 187.382C245.224 191.975 235.619 194.221 226.012 194.221V204.221C237.237 204.221 248.303 201.584 259.167 196.411L254.868 187.382ZM231.012 199.221C231.012 199.924 230.846 200.408 230.843 200.418C230.811 200.52 230.797 200.54 230.838 200.446C230.917 200.263 231.083 199.921 231.375 199.379C231.951 198.309 232.857 196.758 234.122 194.689C236.644 190.566 240.454 184.618 245.573 176.818L237.212 171.331C232.077 179.156 228.197 185.211 225.592 189.471C224.294 191.592 223.277 193.327 222.571 194.638C222.222 195.285 221.907 195.907 221.666 196.461C221.547 196.736 221.413 197.069 221.301 197.427C221.218 197.692 221.012 198.375 221.012 199.221H231.012ZM245.566 176.828C256.62 160.074 262.018 139.865 262.018 116.457H252.018C252.018 138.297 246.999 156.499 237.219 171.321L245.566 176.828ZM262.018 116.457C262.018 102.146 259.592 90.2965 254.217 81.4007L245.658 86.5719C249.723 93.3011 252.018 103.099 252.018 116.457H262.018ZM254.182 81.3435C247.805 71.1011 237.889 66.0469 225.279 66.0469V76.0469C234.805 76.0469 241.328 79.6189 245.693 86.6291L254.182 81.3435ZM225.279 66.0469C204.214 66.0469 184.377 75.8252 165.836 94.3668L172.907 101.438C190.172 84.1722 207.608 76.0469 225.279 76.0469V66.0469ZM165.853 94.3493C148.859 111.175 133.739 134.28 120.391 163.449L129.484 167.61C142.503 139.161 157.006 117.182 172.889 101.455L165.853 94.3493ZM120.402 163.425C107.697 190.814 97.8215 220.874 90.7534 253.585L100.528 255.697C107.457 223.629 117.113 194.281 129.473 167.633L120.402 163.425ZM90.7597 253.556C83.5298 286.09 79.8984 317.055 79.8984 346.438H89.8984C89.8984 317.877 93.4285 287.644 100.522 255.725L90.7597 253.556ZM79.8984 346.438C79.8984 381.816 85.6494 409.217 97.8638 427.908C110.32 446.969 129.134 456.418 153.502 456.418V446.418C132.134 446.418 116.647 438.371 106.235 422.438C95.5814 406.135 89.8984 381.046 89.8984 346.438H79.8984ZM153.502 456.418C178.743 456.418 202.204 450.435 223.798 438.456L218.948 429.712C198.875 440.845 177.089 446.418 153.502 446.418V456.418ZM223.795 438.458C242.674 428.007 260.231 412.83 276.502 393.073L268.783 386.716C253.153 405.696 236.53 419.978 218.951 429.71L223.795 438.458ZM276.516 393.056C289.796 376.788 302.667 356.798 315.15 333.146L306.307 328.479C294.05 351.702 281.53 371.1 268.769 386.733L276.516 393.056ZM315.163 333.122C323.375 317.355 333.111 296.569 344.363 270.802L335.199 266.8C323.991 292.465 314.358 313.02 306.294 328.503L315.163 333.122ZM379.82 250.49L377.248 246.203L379.82 250.49ZM386.168 244.387L390.288 247.219L390.663 246.674L390.883 246.051L386.168 244.387ZM387.633 240.236L382.96 238.456L382.938 238.514L382.918 238.572L387.633 240.236ZM409.117 236.33L410.125 231.433L410.033 231.414L409.939 231.398L409.117 236.33ZM424.742 240.236L426.305 235.487L426.242 235.466L426.179 235.447L424.742 240.236ZM437.926 278.078L433.217 276.396L433.21 276.416L433.203 276.436L437.926 278.078ZM411.314 354.25L406.504 352.886L406.49 352.937L406.476 352.988L411.314 354.25ZM409.361 406.008L405.318 408.949L405.329 408.964L405.34 408.98L409.361 406.008ZM462.096 388.674L458.276 385.447L458.268 385.457L462.096 388.674ZM484.557 350.344L489.143 352.336L489.148 352.323L484.557 350.344ZM519.713 268.801L524.304 270.78L524.313 270.761L524.321 270.741L519.713 268.801ZM528.746 255.861L525.929 251.73L525.884 251.761L525.84 251.793L528.746 255.861ZM542.662 252.199L547.254 254.177L550.259 247.199H542.662V252.199ZM497.984 355.959L502.576 357.939L502.577 357.936L497.984 355.959ZM473.814 401.125L477.925 403.972L477.933 403.96L477.941 403.948L473.814 401.125ZM362.73 428.713L366.955 426.039L366.943 426.019L366.93 425.999L362.73 428.713ZM360.533 329.592L365.402 330.731L365.405 330.719L365.407 330.706L360.533 329.592ZM378.844 266.604L383.587 268.185L389.637 250.034L375.48 262.904L378.844 266.604ZM361.021 278.566L358.876 274.05L358.852 274.062L358.827 274.074L361.021 278.566ZM312.438 270.021L308.357 272.912L308.363 272.92L308.369 272.928L312.438 270.021ZM312.926 204.836L308.714 202.141L308.696 202.17L308.678 202.199L312.926 204.836ZM356.139 205.324L352.572 208.828L352.626 208.884L352.683 208.937L356.139 205.324ZM365.416 216.555L361.176 219.205L361.202 219.246L361.228 219.286L365.416 216.555ZM366.637 235.598L371.318 237.353L371.332 237.316L371.345 237.279L366.637 235.598ZM363.951 242.678L368.423 244.914L368.535 244.691L368.624 244.458L363.951 242.678ZM362.242 246.828L366.941 248.537L367.001 248.371L367.05 248.202L362.242 246.828ZM360.289 251.711L355.72 249.68L353.726 254.166L358.175 256.242L360.289 251.711ZM369.078 258.42C373.863 258.42 378.337 257.211 382.393 254.778L377.248 246.203C374.793 247.676 372.106 248.42 369.078 248.42V258.42ZM382.393 254.778C385.513 252.906 388.137 250.348 390.288 247.219L382.048 241.554C380.618 243.633 379.011 245.145 377.248 246.203L382.393 254.778ZM390.883 246.051L392.348 241.9L382.918 238.572L381.453 242.723L390.883 246.051ZM392.305 242.016C392.52 241.453 392.82 241.109 393.375 240.818C394.05 240.464 395.287 240.109 397.398 240.109V230.109C394.301 230.109 391.307 230.609 388.727 231.964C386.026 233.382 384.048 235.602 382.96 238.456L392.305 242.016ZM397.398 240.109C399.929 240.109 403.526 240.467 408.295 241.262L409.939 231.398C404.943 230.565 400.727 230.109 397.398 230.109V240.109ZM408.109 241.227C413.514 242.34 418.578 243.607 423.305 245.025L426.179 235.447C421.141 233.936 415.788 232.599 410.125 231.433L408.109 241.227ZM423.179 244.986C429.396 247.032 433.631 249.087 436.216 251.017C438.815 252.959 439.029 254.196 439.029 254.641H449.029C449.029 249.714 446.029 245.865 442.199 243.005C438.355 240.134 432.946 237.672 426.305 235.487L423.179 244.986ZM439.029 254.641C439.029 256.105 438.653 258.619 437.665 262.414C436.698 266.126 435.224 270.777 433.217 276.396L442.634 279.76C444.697 273.986 446.274 269.034 447.342 264.934C448.388 260.917 449.029 257.408 449.029 254.641H439.029ZM433.203 276.436C431.921 280.122 427.954 290.972 421.273 309.061L430.653 312.525C437.318 294.481 441.326 283.521 442.648 279.721L433.203 276.436ZM421.273 309.061C414.581 327.177 409.648 341.801 406.504 352.886L416.125 355.614C419.166 344.89 423.999 330.542 430.653 312.525L421.273 309.061ZM406.476 352.988C402.513 368.18 400.455 381.168 400.455 391.848H410.455C410.455 382.345 412.303 370.268 416.153 355.512L406.476 352.988ZM400.455 391.848C400.455 398.425 401.918 404.275 405.318 408.949L413.405 403.067C411.596 400.579 410.455 396.989 410.455 391.848H400.455ZM405.34 408.98C409.066 414.02 414.312 416.623 420.592 416.623V406.623C417.432 406.623 415.191 405.483 413.382 403.036L405.34 408.98ZM420.592 416.623C437.35 416.623 452.467 407.903 465.923 391.891L458.268 385.457C446.009 400.044 433.456 406.623 420.592 406.623V416.623ZM465.915 391.901C474.306 381.968 482.025 368.724 489.143 352.336L479.971 348.352C473.091 364.19 465.836 376.499 458.276 385.447L465.915 391.901ZM489.148 352.323L524.304 270.78L515.121 266.821L479.965 348.364L489.148 352.323ZM524.321 270.741C526.761 264.947 529.312 261.601 531.652 259.93L525.84 251.793C521.344 255.004 517.873 260.285 515.105 266.86L524.321 270.741ZM531.563 259.992C534.088 258.271 537.658 257.199 542.662 257.199V247.199C536.273 247.199 530.565 248.569 525.929 251.73L531.563 259.992ZM538.07 250.222L493.392 353.982L502.577 357.936L547.254 254.177L538.07 250.222ZM493.393 353.979C485.836 371.504 477.926 386.261 469.688 398.302L477.941 403.948C486.63 391.25 494.833 375.895 502.576 357.939L493.393 353.979ZM469.704 398.278C448.675 428.635 424.651 443 397.643 443V453C428.903 453 455.659 436.115 477.925 403.972L469.704 398.278ZM397.643 443C384.231 443 374.183 437.458 366.955 426.039L358.506 431.387C367.554 445.684 380.781 453 397.643 453V443ZM366.93 425.999C360.692 416.344 357.477 404.786 357.477 391.115H347.477C347.477 406.416 351.098 419.922 358.531 431.426L366.93 425.999ZM357.477 391.115C357.477 373.528 360.093 353.413 365.402 330.731L355.665 328.452C350.231 351.669 347.477 372.57 347.477 391.115H357.477ZM365.407 330.706C369.265 313.83 375.315 293.001 383.587 268.185L374.1 265.022C365.771 290.011 359.614 311.173 355.659 328.478L365.407 330.706ZM375.48 262.904C370.47 267.458 364.939 271.17 358.876 274.05L363.167 283.083C370.124 279.778 376.475 275.514 382.207 270.303L375.48 262.904ZM358.827 274.074C352.274 277.274 346.688 278.693 341.979 278.693V288.693C348.662 288.693 355.771 286.695 363.216 283.059L358.827 274.074ZM341.979 278.693C330.083 278.693 321.903 274.671 316.506 267.115L308.369 272.928C315.993 283.601 327.506 288.693 341.979 288.693V278.693ZM316.518 267.131C311.801 260.472 309.137 250.725 309.137 237.307H299.137C299.137 251.883 302.007 263.946 308.357 272.912L316.518 267.131ZM309.137 237.307C309.137 225.936 311.854 216.044 317.174 207.473L308.678 202.199C302.279 212.508 299.137 224.263 299.137 237.307H309.137ZM317.137 207.531C319.507 203.829 321.999 201.023 324.569 198.995L318.372 191.146C314.757 194 311.553 197.705 308.714 202.141L317.137 207.531ZM324.569 198.995C327.024 197.056 329.057 196.408 330.748 196.408V186.408C326.254 186.408 322.102 188.202 318.372 191.146L324.569 198.995ZM330.748 196.408C336.56 196.408 343.805 199.905 352.572 208.828L359.705 201.82C350.243 192.189 340.561 186.408 330.748 186.408V196.408ZM352.683 208.937C356.162 212.266 358.98 215.691 361.176 219.205L369.656 213.905C366.969 209.605 363.602 205.544 359.595 201.711L352.683 208.937ZM361.228 219.286C362.354 221.012 363.108 222.397 363.567 223.468C363.794 223.998 363.928 224.404 364.003 224.699C364.08 224.998 364.078 225.12 364.078 225.1H374.078C374.078 223.165 373.497 221.252 372.758 219.529C371.997 217.752 370.92 215.841 369.604 213.823L361.228 219.286ZM364.078 225.1C364.078 226.646 363.514 229.476 361.928 233.916L371.345 237.279C373.015 232.605 374.078 228.436 374.078 225.1H364.078ZM361.955 233.842C361.472 235.13 360.581 237.479 359.279 240.898L368.624 244.458C369.925 241.041 370.825 238.669 371.318 237.353L361.955 233.842ZM359.479 240.442C358.592 242.216 357.877 243.905 357.435 245.455L367.05 248.202C367.258 247.473 367.683 246.395 368.423 244.914L359.479 240.442ZM357.543 245.119C356.925 246.821 356.316 248.339 355.72 249.68L364.858 253.742C365.564 252.154 366.258 250.416 366.941 248.537L357.543 245.119ZM358.175 256.242C361.431 257.761 365.119 258.42 369.078 258.42V248.42C366.201 248.42 364.03 247.939 362.403 247.18L358.175 256.242ZM561.949 414.064V419.064H561.982L562.015 419.064L561.949 414.064ZM649.84 350.344L654.284 352.635L654.363 352.482L654.431 352.323L649.84 350.344ZM684.996 268.801L689.588 270.78L689.596 270.761L689.604 270.741L684.996 268.801ZM694.273 255.861L697.09 259.992L697.135 259.962L697.18 259.93L694.273 255.861ZM708.189 252.199L712.784 254.172L715.778 247.199H708.189V252.199ZM690.367 293.703L694.958 295.684L694.962 295.676L690.367 293.703ZM663.512 355.959L668.102 357.942L668.103 357.939L663.512 355.959ZM615.66 422.365L612.45 418.532L612.443 418.538L612.435 418.544L615.66 422.365ZM511.9 445.803L509.776 450.329L509.793 450.337L509.811 450.345L511.9 445.803ZM491.393 429.934L487.523 433.1L487.537 433.117L487.551 433.135L491.393 429.934ZM483.336 313.967L478.601 312.361L478.595 312.379L478.589 312.398L483.336 313.967ZM509.459 263.918L505.48 260.89L505.475 260.897L505.47 260.904L509.459 263.918ZM548.277 229.006L550.763 233.344L550.776 233.337L550.788 233.33L548.277 229.006ZM623.717 226.809L620.181 230.344L620.203 230.365L620.224 230.386L623.717 226.809ZM622.252 297.365L617.799 295.091L617.789 295.11L617.78 295.129L622.252 297.365ZM594.176 335.695L590.64 332.16L590.627 332.173L590.614 332.186L594.176 335.695ZM559.508 361.818L557.179 357.394L557.165 357.401L557.152 357.408L559.508 361.818ZM528.258 371.34V366.34H523.258V371.34H528.258ZM534.85 401.857L530.615 404.516L530.664 404.594L530.715 404.669L534.85 401.857ZM586.852 251.223L591.012 248.449L590.864 248.227L590.693 248.022L586.852 251.223ZM572.203 257.326L575.586 261.008L575.635 260.963L575.682 260.917L572.203 257.326ZM554.869 278.811L559.069 281.523L559.085 281.499L559.1 281.475L554.869 278.811ZM528.99 356.936L524.004 356.567L523.607 361.936H528.99V356.936ZM540.709 345.705L544.564 348.889L544.573 348.878L544.582 348.867L540.709 345.705ZM560.729 318.117L564.909 320.86L564.916 320.849L564.923 320.838L560.729 318.117ZM579.527 284.67L584.069 286.761L584.08 286.736L584.091 286.712L579.527 284.67ZM562.015 419.064C601.344 418.544 632.067 395.732 654.284 352.635L645.396 348.053C624.318 388.939 596.447 408.608 561.883 409.065L562.015 419.064ZM654.431 352.323L689.588 270.78L680.405 266.821L645.248 348.364L654.431 352.323ZM689.604 270.741C692.024 264.994 694.63 261.67 697.09 259.992L691.457 251.73C686.755 254.936 683.176 260.238 680.388 266.86L689.604 270.741ZM697.18 259.93C699.474 258.291 702.972 257.199 708.189 257.199V247.199C701.688 247.199 695.909 248.548 691.367 251.793L697.18 259.93ZM703.595 250.226L685.773 291.73L694.962 295.676L712.784 254.172L703.595 250.226ZM685.776 291.723L658.921 353.979L668.103 357.939L694.958 295.684L685.776 291.723ZM658.922 353.976C647.304 380.873 631.789 402.338 612.45 418.532L618.87 426.199C639.571 408.864 655.957 386.058 668.102 357.942L658.922 353.976ZM612.435 418.544C590.323 437.206 565.895 446.418 539 446.418V456.418C568.42 456.418 595.099 446.261 618.885 426.186L612.435 418.544ZM539 446.418C529.714 446.418 521.405 444.671 513.99 441.26L509.811 450.345C518.672 454.421 528.429 456.418 539 456.418V446.418ZM514.025 441.277C506.719 437.847 500.467 433.012 495.234 426.733L487.551 433.135C493.712 440.527 501.132 446.271 509.776 450.329L514.025 441.277ZM495.262 426.767C484.461 413.566 478.814 395.747 478.814 372.805H468.814C468.814 397.388 474.887 417.656 487.523 433.1L495.262 426.767ZM478.814 372.805C478.814 353.324 481.901 334.241 488.083 315.536L478.589 312.398C472.075 332.104 468.814 352.246 468.814 372.805H478.814ZM488.071 315.573C494.26 297.323 502.727 281.123 513.448 266.932L505.47 260.904C494.056 276.01 485.107 293.176 478.601 312.361L488.071 315.573ZM513.438 266.946C524.478 252.437 536.927 241.273 550.763 233.344L545.791 224.668C530.656 233.341 517.227 245.452 505.48 260.89L513.438 266.946ZM550.788 233.33C565.213 224.954 580.141 220.822 595.641 220.822V210.822C578.263 210.822 561.615 215.48 545.767 224.682L550.788 233.33ZM595.641 220.822C605.853 220.822 613.893 224.056 620.181 230.344L627.252 223.273C618.892 214.913 608.214 210.822 595.641 210.822V220.822ZM620.224 230.386C626.091 236.113 628.971 242.959 628.971 251.223H638.971C638.971 240.281 635.015 230.85 627.209 223.231L620.224 230.386ZM628.971 251.223C628.971 265.81 625.292 280.417 617.799 295.091L626.705 299.639C634.837 283.715 638.971 267.56 638.971 251.223H628.971ZM617.78 295.129C611.207 308.275 602.179 320.621 590.64 332.16L597.711 339.231C609.935 327.007 619.625 313.799 626.724 299.601L617.78 295.129ZM590.614 332.186C580.199 342.759 569.052 351.145 557.179 357.394L561.837 366.243C574.703 359.471 586.668 350.441 597.738 339.204L590.614 332.186ZM557.152 357.408C545.659 363.548 536.076 366.34 528.258 366.34V376.34C538.343 376.34 549.594 372.784 561.864 366.228L557.152 357.408ZM523.258 371.34C523.258 385.103 525.5 396.371 530.615 404.516L539.084 399.199C535.41 393.347 533.258 384.269 533.258 371.34H523.258ZM530.715 404.669C537.433 414.548 548.269 419.064 561.949 419.064V409.064C550.564 409.064 543.334 405.442 538.984 399.046L530.715 404.669ZM592.828 254.885C592.828 252.678 592.332 250.43 591.012 248.449L582.691 253.996C582.693 253.999 582.7 254.009 582.71 254.032C582.72 254.054 582.736 254.095 582.753 254.159C582.787 254.288 582.828 254.52 582.828 254.885H592.828ZM590.693 248.022C589.053 246.054 586.729 244.758 583.922 244.758V254.758C583.75 254.758 583.509 254.714 583.273 254.596C583.051 254.485 582.973 254.379 583.01 254.424L590.693 248.022ZM583.922 244.758C581.163 244.758 578.536 246.023 576.326 247.45C573.991 248.958 571.449 251.096 568.724 253.735L575.682 260.917C578.166 258.511 580.181 256.864 581.752 255.85C583.448 254.754 584.077 254.758 583.922 254.758V244.758ZM568.82 253.645C562.397 259.546 556.348 267.078 550.638 276.146L559.1 281.475C564.458 272.965 569.965 266.174 575.586 261.008L568.82 253.645ZM550.669 276.098C535.064 300.26 526.179 327.112 524.004 356.567L533.977 357.304C536.033 329.467 544.401 304.236 559.069 281.523L550.669 276.098ZM528.99 361.936C531.003 361.936 532.632 360.921 533.44 360.375C534.463 359.683 535.528 358.765 536.6 357.738C538.762 355.666 541.428 352.685 544.564 348.889L536.854 342.521C533.805 346.212 531.426 348.846 529.681 350.518C528.8 351.362 528.196 351.849 527.837 352.092C527.261 352.482 527.792 351.936 528.99 351.936V361.936ZM544.582 348.867C551.222 340.733 557.997 331.393 564.909 320.86L556.548 315.374C549.788 325.675 543.217 334.726 536.836 342.543L544.582 348.867ZM564.923 320.838C572.833 308.644 579.226 297.282 584.069 286.761L574.985 282.579C570.388 292.566 564.249 303.502 556.534 315.396L564.923 320.838ZM584.091 286.712C589.717 274.137 592.828 263.434 592.828 254.885H582.828C582.828 261.31 580.405 270.463 574.963 282.628L584.091 286.712ZM727.477 414.064V419.064H727.51L727.543 419.064L727.477 414.064ZM815.367 350.344L819.811 352.635L819.89 352.482L819.959 352.323L815.367 350.344ZM850.523 268.801L855.115 270.78L855.123 270.761L855.132 270.741L850.523 268.801ZM859.801 255.861L862.617 259.992L862.663 259.962L862.707 259.93L859.801 255.861ZM873.717 252.199L878.311 254.172L881.305 247.199H873.717V252.199ZM855.895 293.703L860.486 295.684L860.489 295.676L855.895 293.703ZM829.039 355.959L833.629 357.942L833.63 357.939L829.039 355.959ZM781.188 422.365L777.977 418.532L777.97 418.538L777.963 418.544L781.188 422.365ZM677.428 445.803L675.303 450.329L675.321 450.337L675.338 450.345L677.428 445.803ZM656.92 429.934L653.05 433.1L653.064 433.117L653.079 433.135L656.92 429.934ZM648.863 313.967L644.128 312.361L644.122 312.379L644.116 312.398L648.863 313.967ZM674.986 263.918L671.007 260.89L671.002 260.897L670.997 260.904L674.986 263.918ZM713.805 229.006L716.291 233.344L716.303 233.337L716.315 233.33L713.805 229.006ZM789.244 226.809L785.709 230.344L785.73 230.365L785.751 230.386L789.244 226.809ZM787.779 297.365L783.326 295.091L783.317 295.11L783.307 295.129L787.779 297.365ZM759.703 335.695L756.168 332.16L756.154 332.173L756.141 332.186L759.703 335.695ZM725.035 361.818L722.706 357.394L722.693 357.401L722.679 357.408L725.035 361.818ZM693.785 371.34V366.34H688.785V371.34H693.785ZM700.377 401.857L696.143 404.516L696.191 404.594L696.242 404.669L700.377 401.857ZM752.379 251.223L756.539 248.449L756.391 248.227L756.22 248.022L752.379 251.223ZM737.73 257.326L741.114 261.008L741.162 260.963L741.209 260.917L737.73 257.326ZM720.396 278.811L724.597 281.523L724.612 281.499L724.628 281.475L720.396 278.811ZM694.518 356.936L689.531 356.567L689.135 361.936H694.518V356.936ZM706.236 345.705L710.091 348.889L710.1 348.878L710.11 348.867L706.236 345.705ZM726.256 318.117L730.436 320.86L730.443 320.849L730.451 320.838L726.256 318.117ZM745.055 284.67L749.597 286.761L749.608 286.736L749.619 286.712L745.055 284.67ZM727.543 419.064C766.872 418.544 797.594 395.732 819.811 352.635L810.923 348.053C789.846 388.939 761.975 408.608 727.41 409.065L727.543 419.064ZM819.959 352.323L855.115 270.78L845.932 266.821L810.776 348.364L819.959 352.323ZM855.132 270.741C857.551 264.994 860.157 261.67 862.617 259.992L856.984 251.73C852.283 254.936 848.704 260.238 845.915 266.86L855.132 270.741ZM862.707 259.93C865.001 258.291 868.5 257.199 873.717 257.199V247.199C867.215 247.199 861.436 248.548 856.895 251.793L862.707 259.93ZM869.122 250.226L851.3 291.73L860.489 295.676L878.311 254.172L869.122 250.226ZM851.303 291.723L824.448 353.979L833.63 357.939L860.486 295.684L851.303 291.723ZM824.449 353.976C812.831 380.873 797.316 402.338 777.977 418.532L784.398 426.199C805.098 408.864 821.484 386.058 833.629 357.942L824.449 353.976ZM777.963 418.544C755.851 437.206 731.422 446.418 704.527 446.418V456.418C733.947 456.418 760.626 446.261 784.412 426.186L777.963 418.544ZM704.527 446.418C695.242 446.418 686.932 444.671 679.517 441.26L675.338 450.345C684.2 454.421 693.956 456.418 704.527 456.418V446.418ZM679.552 441.277C672.246 437.847 665.994 433.012 660.761 426.733L653.079 433.135C659.239 440.527 666.659 446.271 675.303 450.329L679.552 441.277ZM660.79 426.767C649.988 413.566 644.342 395.747 644.342 372.805H634.342C634.342 397.388 640.414 417.656 653.05 433.1L660.79 426.767ZM644.342 372.805C644.342 353.324 647.429 334.241 653.611 315.536L644.116 312.398C637.603 332.104 634.342 352.246 634.342 372.805H644.342ZM653.598 315.573C659.787 297.323 668.254 281.123 678.976 266.932L670.997 260.904C659.583 276.01 650.634 293.176 644.128 312.361L653.598 315.573ZM678.965 266.946C690.005 252.437 702.455 241.273 716.291 233.344L711.319 224.668C696.183 233.341 682.754 245.452 671.007 260.89L678.965 266.946ZM716.315 233.33C730.741 224.954 745.668 220.822 761.168 220.822V210.822C743.79 210.822 727.142 215.48 711.294 224.682L716.315 233.33ZM761.168 220.822C771.381 220.822 779.42 224.056 785.709 230.344L792.78 223.273C784.42 214.913 773.742 210.822 761.168 210.822V220.822ZM785.751 230.386C791.618 236.113 794.498 242.959 794.498 251.223H804.498C804.498 240.281 800.542 230.85 792.737 223.231L785.751 230.386ZM794.498 251.223C794.498 265.81 790.82 280.417 783.326 295.091L792.232 299.639C800.364 283.715 804.498 267.56 804.498 251.223H794.498ZM783.307 295.129C776.734 308.275 767.707 320.621 756.168 332.16L763.239 339.231C775.463 327.007 785.153 313.799 792.251 299.601L783.307 295.129ZM756.141 332.186C745.726 342.759 734.579 351.145 722.706 357.394L727.364 366.243C740.231 359.471 752.196 350.441 763.265 339.204L756.141 332.186ZM722.679 357.408C711.186 363.548 701.604 366.34 693.785 366.34V376.34C703.87 376.34 715.121 372.784 727.391 366.228L722.679 357.408ZM688.785 371.34C688.785 385.103 691.028 396.371 696.143 404.516L704.611 399.199C700.937 393.347 698.785 384.269 698.785 371.34H688.785ZM696.242 404.669C702.96 414.548 713.797 419.064 727.477 419.064V409.064C716.091 409.064 708.861 405.442 704.512 399.046L696.242 404.669ZM758.355 254.885C758.355 252.678 757.86 250.43 756.539 248.449L748.219 253.996C748.221 253.999 748.227 254.009 748.237 254.032C748.247 254.054 748.263 254.095 748.28 254.159C748.315 254.288 748.355 254.52 748.355 254.885H758.355ZM756.22 248.022C754.58 246.054 752.256 244.758 749.449 244.758V254.758C749.277 254.758 749.037 254.714 748.8 254.596C748.578 254.485 748.501 254.379 748.538 254.424L756.22 248.022ZM749.449 244.758C746.69 244.758 744.063 246.023 741.854 247.45C739.518 248.958 736.976 251.096 734.251 253.735L741.209 260.917C743.693 258.511 745.708 256.864 747.279 255.85C748.976 254.754 749.604 254.758 749.449 254.758V244.758ZM734.347 253.645C727.925 259.546 721.875 267.078 716.165 276.146L724.628 281.475C729.986 272.965 735.492 266.174 741.114 261.008L734.347 253.645ZM716.196 276.098C700.592 300.26 691.707 327.112 689.531 356.567L699.504 357.304C701.56 329.467 709.928 304.236 724.597 281.523L716.196 276.098ZM694.518 361.936C696.53 361.936 698.159 360.921 698.967 360.375C699.991 359.683 701.055 358.765 702.127 357.738C704.289 355.666 706.956 352.685 710.091 348.889L702.382 342.521C699.332 346.212 696.953 348.846 695.208 350.518C694.327 351.362 693.724 351.849 693.364 352.092C692.788 352.482 693.319 351.936 694.518 351.936V361.936ZM710.11 348.867C716.749 340.733 723.524 331.393 730.436 320.86L722.076 315.374C715.316 325.675 708.744 334.726 702.363 342.543L710.11 348.867ZM730.451 320.838C738.361 308.644 744.753 297.282 749.597 286.761L740.513 282.579C735.916 292.566 729.776 303.502 722.061 315.396L730.451 320.838ZM749.619 286.712C755.244 274.137 758.355 263.434 758.355 254.885H748.355C748.355 261.31 745.933 270.463 740.491 282.628L749.619 286.712ZM988.951 204.348L985.713 208.157L985.732 208.173L985.75 208.189L988.951 204.348ZM997.984 267.336L1002.73 268.917L1002.73 268.908L1002.73 268.899L997.984 267.336ZM985.045 304.201L980.333 302.529L980.327 302.546L980.321 302.563L985.045 304.201ZM969.908 353.518L965.05 352.334L965.05 352.337L969.908 353.518ZM963.561 398.928H958.561L968.502 399.688L963.561 398.928ZM975.035 350.344L970.323 348.671L970.263 348.84L970.216 349.013L975.035 350.344ZM1004.82 283.938L1009.21 286.329L1009.22 286.315L1009.23 286.301L1004.82 283.938ZM1044.62 225.344L1040.94 221.954L1040.94 221.956L1044.62 225.344ZM1097.84 204.348L1100.87 200.37L1100.84 200.348L1100.81 200.327L1097.84 204.348ZM1107.6 214.602L1111.71 211.756L1111.68 211.703L1111.64 211.651L1107.6 214.602ZM1114.68 227.785L1119.36 226.012L1119.35 225.984L1119.34 225.957L1114.68 227.785ZM1110.53 265.871L1105.81 264.219L1105.8 264.255L1105.79 264.29L1110.53 265.871ZM1097.11 303.225L1092.41 301.51L1092.4 301.526L1092.4 301.543L1097.11 303.225ZM1080.99 352.053L1076.18 350.688L1076.17 350.725L1076.16 350.761L1080.99 352.053ZM1078.55 406.008L1082.57 403.036L1082.54 402.993L1082.51 402.951L1078.55 406.008ZM1131.04 388.674L1127.22 385.447L1127.21 385.457L1131.04 388.674ZM1153.5 350.344L1158.09 352.336L1158.09 352.323L1153.5 350.344ZM1188.66 268.801L1193.25 270.78L1193.26 270.761L1193.27 270.741L1188.66 268.801ZM1197.94 255.861L1200.75 259.992L1200.8 259.962L1200.84 259.93L1197.94 255.861ZM1211.85 252.199L1216.45 254.172L1219.44 247.199H1211.85V252.199ZM1194.03 293.703L1198.61 295.699L1198.62 295.687L1198.62 295.676L1194.03 293.703ZM1166.93 355.959L1162.35 353.963L1162.33 353.989L1162.32 354.015L1166.93 355.959ZM1142.76 401.125L1138.66 398.265L1138.65 398.271L1138.65 398.278L1142.76 401.125ZM1031.68 428.713L1027.45 431.38L1027.45 431.387L1031.68 428.713ZM1030.7 327.395L1025.83 326.242L1025.83 326.252L1025.83 326.261L1030.7 327.395ZM1049.74 260.5L1054.51 262.018L1056.58 255.5H1049.74V260.5ZM1031.92 279.543L1036.05 282.355L1036.07 282.336L1036.08 282.316L1031.92 279.543ZM1005.8 324.465L1010.24 326.762L1010.24 326.75L1005.8 324.465ZM982.115 376.955L977.432 375.205L977.428 375.213L982.115 376.955ZM972.838 427.248L968.269 429.279L968.359 429.482L968.467 429.676L972.838 427.248ZM948.912 431.887L949.532 426.925L949.487 426.92L949.441 426.915L948.912 431.887ZM930.357 427.004L932.655 422.563L932.599 422.534L932.542 422.506L930.357 427.004ZM917.662 414.553L922.134 412.317L922.122 412.293L922.11 412.269L917.662 414.553ZM922.057 324.709L926.905 325.929L926.907 325.922L922.057 324.709ZM941.344 260.5L946.114 261.998L948.155 255.5H941.344V260.5ZM921.324 279.787L917.221 276.93L917.21 276.946L917.199 276.962L921.324 279.787ZM872.984 377.932L868.264 376.282L868.259 376.297L868.254 376.312L872.984 377.932ZM864.684 427.492L860.115 429.523L860.257 429.844L860.444 430.142L864.684 427.492ZM840.758 431.887L841.378 426.925L841.332 426.92L841.287 426.915L840.758 431.887ZM822.203 427.004L824.5 422.563L824.444 422.534L824.388 422.506L822.203 427.004ZM809.508 414.553L813.98 412.317L813.968 412.293L813.956 412.269L809.508 414.553ZM810.484 353.273L805.629 352.078L805.62 352.115L805.612 352.153L810.484 353.273ZM828.062 291.994L832.85 293.436L832.852 293.429L828.062 291.994ZM841.246 222.17L836.263 222.585L836.283 222.826L836.327 223.064L841.246 222.17ZM841.734 216.799L838.199 213.263L837.948 213.515L837.734 213.799L841.734 216.799ZM855.406 217.043L856.059 212.086L856.033 212.082L856.008 212.079L855.406 217.043ZM872.74 219.973L873.88 215.104L873.829 215.092L873.778 215.081L872.74 219.973ZM889.342 260.988L894.117 262.47L894.12 262.461L894.123 262.451L889.342 260.988ZM871.031 318.117L866.272 316.585L866.268 316.595L866.265 316.606L871.031 318.117ZM855.162 398.928H850.162L860.112 399.635L855.162 398.928ZM867.125 348.635L862.417 346.951L862.363 347.102L862.319 347.256L867.125 348.635ZM897.398 282.473L901.762 284.915L901.767 284.905L901.772 284.896L897.398 282.473ZM937.193 224.855L933.551 221.43L933.533 221.449L933.515 221.469L937.193 224.855ZM978.697 205.197C980.872 205.197 983.179 206.003 985.713 208.157L992.189 200.538C988.213 197.158 983.684 195.197 978.697 195.197V205.197ZM985.75 208.189C988.082 210.132 990.405 213.012 992.637 217.03L1001.38 212.173C998.728 207.402 995.68 203.446 992.152 200.507L985.75 208.189ZM992.637 217.03C997.194 225.232 999.332 232.948 999.332 240.236H1009.33C1009.33 230.924 1006.59 221.549 1001.38 212.173L992.637 217.03ZM999.332 240.236C999.332 244.54 997.484 252.862 993.235 265.773L1002.73 268.899C1006.95 256.093 1009.33 246.349 1009.33 240.236H999.332ZM993.241 265.755C991.795 270.092 987.502 282.326 980.333 302.529L989.757 305.873C996.911 285.712 1001.24 273.369 1002.73 268.917L993.241 265.755ZM980.321 302.563C973.298 322.814 968.196 339.42 965.05 352.334L974.766 354.701C977.805 342.224 982.794 325.953 989.769 305.839L980.321 302.563ZM965.05 352.337C960.758 370 958.561 385.551 958.561 398.928H968.561C968.561 386.589 970.595 371.866 974.767 354.698L965.05 352.337ZM968.502 399.688C970.083 389.414 973.841 373.455 979.855 351.675L970.216 349.013C964.185 370.852 960.293 387.282 958.619 398.167L968.502 399.688ZM979.747 352.017C987.631 329.814 997.45 307.918 1009.21 286.329L1000.43 281.546C988.428 303.577 978.39 325.952 970.323 348.671L979.747 352.017ZM1009.23 286.301C1022.29 261.955 1035.32 242.809 1048.29 228.732L1040.94 221.956C1027.22 236.849 1013.72 256.767 1000.41 281.574L1009.23 286.301ZM1048.29 228.734C1063.5 212.239 1076.33 205.197 1086.85 205.197V195.197C1071.99 195.197 1056.65 204.92 1040.94 221.954L1048.29 228.734ZM1086.85 205.197C1089.08 205.197 1091.72 206.047 1094.87 208.369L1100.81 200.327C1096.46 197.115 1091.78 195.197 1086.85 195.197V205.197ZM1094.81 208.325C1097.77 210.581 1100.7 213.627 1103.57 217.552L1111.64 211.651C1108.32 207.113 1104.74 203.323 1100.87 200.37L1094.81 208.325ZM1103.49 217.448C1106.21 221.378 1108.39 225.433 1110.03 229.613L1119.34 225.957C1117.4 221.023 1114.85 216.288 1111.71 211.756L1103.49 217.448ZM1110.01 229.558C1111.67 233.926 1112.37 237.455 1112.37 240.236H1122.37C1122.37 235.856 1121.28 231.084 1119.36 226.012L1110.01 229.558ZM1112.37 240.236C1112.37 241.571 1111.96 244.184 1110.83 248.408C1109.74 252.511 1108.07 257.77 1105.81 264.219L1115.25 267.523C1117.55 260.951 1119.31 255.428 1120.49 250.985C1121.64 246.665 1122.37 242.971 1122.37 240.236H1112.37ZM1105.79 264.29C1104.35 268.6 1099.91 280.97 1092.41 301.51L1101.8 304.939C1109.28 284.463 1113.78 271.931 1115.28 267.452L1105.79 264.29ZM1092.4 301.543C1085.06 322.091 1079.64 338.487 1076.18 350.688L1085.8 353.418C1089.18 341.53 1094.5 325.374 1101.81 304.906L1092.4 301.543ZM1076.16 350.761C1071.72 367.376 1069.4 381.124 1069.4 391.848H1079.4C1079.4 382.389 1081.47 369.607 1085.82 353.344L1076.16 350.761ZM1069.4 391.848C1069.4 398.485 1070.97 404.38 1074.59 409.065L1082.51 402.951C1080.59 400.474 1079.4 396.929 1079.4 391.848H1069.4ZM1074.53 408.98C1078.26 414.02 1083.5 416.623 1089.78 416.623V406.623C1086.62 406.623 1084.38 405.483 1082.57 403.036L1074.53 408.98ZM1089.78 416.623C1106.39 416.623 1121.43 407.887 1134.87 391.891L1127.21 385.457C1114.94 400.06 1102.47 406.623 1089.78 406.623V416.623ZM1134.86 391.901C1143.25 381.968 1150.97 368.724 1158.09 352.336L1148.92 348.352C1142.04 364.19 1134.78 376.499 1127.22 385.447L1134.86 391.901ZM1158.09 352.323L1193.25 270.78L1184.07 266.821L1148.91 348.364L1158.09 352.323ZM1193.27 270.741C1195.69 264.994 1198.29 261.67 1200.75 259.992L1195.12 251.73C1190.42 254.936 1186.84 260.238 1184.05 266.86L1193.27 270.741ZM1200.84 259.93C1203.14 258.291 1206.63 257.199 1211.85 257.199V247.199C1205.35 247.199 1199.57 248.548 1195.03 251.793L1200.84 259.93ZM1207.26 250.226L1189.43 291.73L1198.62 295.676L1216.45 254.172L1207.26 250.226ZM1189.44 291.708L1162.35 353.963L1171.51 357.955L1198.61 295.699L1189.44 291.708ZM1162.32 354.015C1154.94 371.517 1147.04 386.248 1138.66 398.265L1146.86 403.985C1155.73 391.262 1163.95 375.882 1171.54 357.903L1162.32 354.015ZM1138.65 398.278C1117.62 428.635 1093.6 443 1066.59 443V453C1097.85 453 1124.6 436.115 1146.87 403.972L1138.65 398.278ZM1066.59 443C1053.18 443 1043.13 437.458 1035.9 426.039L1027.45 431.387C1036.5 445.684 1049.73 453 1066.59 453V443ZM1035.9 426.045C1029.81 416.384 1026.67 404.809 1026.67 391.115H1016.67C1016.67 406.393 1020.19 419.883 1027.45 431.38L1035.9 426.045ZM1026.67 391.115C1026.67 375.052 1029.59 354.228 1035.57 328.528L1025.83 326.261C1019.77 352.319 1016.67 373.975 1016.67 391.115H1026.67ZM1035.56 328.547C1039.92 310.156 1046.23 287.986 1054.51 262.018L1044.98 258.982C1036.65 285.097 1030.27 307.524 1025.83 326.242L1035.56 328.547ZM1049.74 255.5C1047.43 255.5 1045.41 256.529 1043.9 257.552C1042.3 258.634 1040.69 260.114 1039.07 261.844C1035.83 265.313 1032.05 270.337 1027.76 276.769L1036.08 282.316C1040.26 276.054 1043.68 271.556 1046.37 268.677C1047.73 267.233 1048.77 266.334 1049.51 265.828C1050.34 265.265 1050.35 265.5 1049.74 265.5V255.5ZM1027.79 276.731C1019.34 289.154 1010.53 304.316 1001.35 322.18L1010.24 326.75C1019.3 309.132 1027.9 294.346 1036.05 282.355L1027.79 276.731ZM1001.36 322.168C991.519 341.186 983.538 358.867 977.432 375.205L986.799 378.706C992.737 362.817 1000.54 345.504 1010.24 326.762L1001.36 322.168ZM977.428 375.213C970.56 393.693 966.861 408.317 966.861 418.703H976.861C976.861 410.209 979.999 397.001 986.802 378.697L977.428 375.213ZM966.861 418.703C966.861 420.929 966.946 422.903 967.138 424.581C967.32 426.179 967.635 427.852 968.269 429.279L977.407 425.217C977.416 425.237 977.362 425.117 977.287 424.786C977.215 424.467 977.14 424.027 977.073 423.445C976.939 422.275 976.861 420.709 976.861 418.703H966.861ZM968.467 429.676C968.829 430.328 969.036 430.756 969.138 431.002C969.189 431.123 969.186 431.134 969.165 431.058C969.153 431.017 969.129 430.925 969.108 430.794C969.086 430.667 969.059 430.454 969.059 430.178H979.059C979.059 428.866 978.599 427.708 978.369 427.156C978.064 426.425 977.661 425.633 977.209 424.82L968.467 429.676ZM969.059 430.178C969.059 430.085 969.073 429.843 969.194 429.521C969.321 429.183 969.526 428.859 969.791 428.595L976.862 435.666C978.454 434.074 979.059 432.063 979.059 430.178H969.059ZM969.791 428.595C969.847 428.539 970.556 427.863 971.861 427.863V437.863C974.143 437.863 975.828 436.7 976.862 435.666L969.791 428.595ZM971.861 427.863C961.826 427.863 954.425 427.537 949.532 426.925L948.292 436.848C953.816 437.539 961.715 437.863 971.861 437.863V427.863ZM949.441 426.915C942.156 426.14 936.635 424.622 932.655 422.563L928.06 431.445C933.52 434.269 940.369 436.006 948.383 436.859L949.441 426.915ZM932.542 422.506C927.811 420.208 924.396 416.84 922.134 412.317L913.19 416.789C916.462 423.333 921.511 428.266 928.173 431.501L932.542 422.506ZM922.11 412.269C919.5 407.186 918.023 400.235 918.023 391.115H908.023C908.023 401.201 909.639 409.875 913.214 416.837L922.11 412.269ZM918.023 391.115C918.023 371.258 920.963 349.537 926.905 325.929L917.208 323.489C911.106 347.732 908.023 370.283 908.023 391.115H918.023ZM926.907 325.922C929.142 316.982 935.52 295.736 946.114 261.998L936.573 259.002C926.009 292.647 919.528 314.207 917.206 323.496L926.907 325.922ZM941.344 255.5C939.05 255.5 936.929 256.325 935.109 257.382C933.262 258.455 931.415 259.948 929.574 261.721C925.896 265.264 921.774 270.39 917.221 276.93L925.428 282.644C929.826 276.327 933.517 271.808 936.512 268.923C938.008 267.481 939.212 266.563 940.132 266.029C941.079 265.479 941.44 265.5 941.344 265.5V255.5ZM917.199 276.962C908.886 289.098 900.144 304.456 890.965 322.977L899.925 327.417C908.976 309.155 917.486 294.239 925.449 282.613L917.199 276.962ZM890.965 322.977C881.773 341.526 874.201 359.295 868.264 376.282L877.704 379.581C883.486 363.039 890.889 345.652 899.925 327.417L890.965 322.977ZM868.254 376.312C862.042 394.458 858.707 408.711 858.707 418.703H868.707C868.707 410.467 871.557 397.539 877.715 379.551L868.254 376.312ZM858.707 418.703C858.707 421.005 858.791 423.035 858.982 424.748C859.162 426.372 859.474 428.081 860.115 429.523L869.253 425.461C869.267 425.494 869.214 425.378 869.137 425.034C869.064 424.705 868.988 424.249 868.921 423.644C868.785 422.428 868.707 420.796 868.707 418.703H858.707ZM860.444 430.142C860.611 430.41 860.744 430.635 860.847 430.821C860.951 431.008 861.014 431.135 861.047 431.209C861.084 431.291 861.065 431.262 861.031 431.146C861.013 431.084 860.984 430.974 860.958 430.825C860.933 430.678 860.904 430.457 860.904 430.178H870.904C870.904 428.807 870.41 427.641 870.151 427.071C869.821 426.345 869.39 425.589 868.924 424.842L860.444 430.142ZM860.904 430.178C860.904 430.085 860.919 429.843 861.04 429.521C861.166 429.183 861.372 428.859 861.636 428.595L868.707 435.666C870.299 434.074 870.904 432.063 870.904 430.178H860.904ZM861.636 428.595C861.693 428.539 862.402 427.863 863.707 427.863V437.863C865.989 437.863 867.674 436.7 868.707 435.666L861.636 428.595ZM863.707 427.863C853.671 427.863 846.271 427.537 841.378 426.925L840.138 436.848C845.661 437.539 853.561 437.863 863.707 437.863V427.863ZM841.287 426.915C834.001 426.14 828.481 424.622 824.5 422.563L819.906 431.445C825.365 434.269 832.215 436.006 840.229 436.859L841.287 426.915ZM824.388 422.506C819.657 420.208 816.242 416.84 813.98 412.317L805.036 416.789C808.308 423.333 813.356 428.266 820.019 431.501L824.388 422.506ZM813.956 412.269C811.346 407.186 809.869 400.235 809.869 391.115H799.869C799.869 401.201 801.485 409.875 805.06 416.837L813.956 412.269ZM809.869 391.115C809.869 382.736 811.639 370.561 815.357 354.394L805.612 352.153C801.843 368.538 799.869 381.591 799.869 391.115H809.869ZM815.339 354.469C817.908 344.033 823.73 323.726 832.85 293.436L823.275 290.553C814.165 320.809 808.269 341.355 805.629 352.078L815.339 354.469ZM832.852 293.429C841.967 262.991 846.734 240.473 846.734 226.32H836.734C836.734 238.861 832.387 260.125 823.273 290.56L832.852 293.429ZM846.734 226.32C846.734 224.889 846.507 223.155 846.165 221.275L836.327 223.064C836.636 224.766 836.734 225.798 836.734 226.32H846.734ZM846.229 221.755C846.148 220.786 846.089 220.035 846.05 219.494C846.031 219.223 846.018 219.018 846.01 218.871C846 218.696 846.002 218.683 846.002 218.752H836.002C836.002 219.344 836.111 220.762 836.263 222.585L846.229 221.755ZM846.002 218.752C846.002 219.066 845.941 219.334 845.867 219.531C845.796 219.719 845.728 219.807 845.734 219.799L837.734 213.799C836.762 215.096 836.002 216.773 836.002 218.752H846.002ZM845.27 220.334C845.116 220.489 844.86 220.69 844.497 220.845C844.129 221.003 843.76 221.066 843.443 221.066V211.066C841.38 211.066 839.562 211.9 838.199 213.263L845.27 220.334ZM843.443 221.066C845.73 221.066 849.468 221.36 854.805 222.007L856.008 212.079C850.602 211.424 846.365 211.066 843.443 211.066V221.066ZM854.754 222C860.827 222.799 866.475 223.755 871.703 224.864L873.778 215.081C868.263 213.912 862.356 212.914 856.059 212.086L854.754 222ZM871.601 224.841C879.098 226.596 884.309 228.424 887.532 230.207C891.037 232.146 890.689 233.141 890.689 232.668H900.689C900.689 227.312 896.517 223.749 892.372 221.457C887.946 219.008 881.682 216.93 873.88 215.104L871.601 224.841ZM890.689 232.668C890.689 236.85 888.823 245.589 884.56 259.526L894.123 262.451C898.324 248.718 900.689 238.578 900.689 232.668H890.689ZM884.566 259.506C883.112 264.194 877.02 283.201 866.272 316.585L875.791 319.649C886.527 286.302 892.642 267.223 894.117 262.47L884.566 259.506ZM866.265 316.606C855.624 350.167 850.162 377.67 850.162 398.928H860.162C860.162 379.169 865.28 352.799 875.797 319.628L866.265 316.606ZM860.112 399.635C861.689 388.595 865.597 372.1 871.931 350.013L862.319 347.256C855.957 369.44 851.89 386.474 850.212 398.221L860.112 399.635ZM871.833 350.319C879.71 328.296 889.683 306.495 901.762 284.915L893.035 280.031C880.7 302.07 870.491 324.377 862.417 346.951L871.833 350.319ZM901.772 284.896C914.998 261.024 928.043 242.18 940.872 228.242L933.515 221.469C919.977 236.177 906.491 255.744 893.025 280.049L901.772 284.896ZM940.835 228.281C956.083 212.071 968.659 205.197 978.697 205.197V195.197C964.321 195.197 949.229 204.762 933.551 221.43L940.835 228.281ZM1231.38 414.064V419.064H1231.42L1231.45 419.064L1231.38 414.064ZM1319.27 350.344L1323.72 352.635L1323.8 352.482L1323.86 352.323L1319.27 350.344ZM1354.43 268.801L1359.02 270.78L1359.03 270.761L1359.04 270.741L1354.43 268.801ZM1363.71 255.861L1366.52 259.992L1366.57 259.962L1366.61 259.93L1363.71 255.861ZM1377.62 252.199L1382.22 254.172L1385.21 247.199H1377.62V252.199ZM1359.8 293.703L1364.39 295.684L1364.4 295.676L1359.8 293.703ZM1332.95 355.959L1337.54 357.942L1337.54 357.939L1332.95 355.959ZM1285.09 422.365L1281.88 418.532L1281.88 418.538L1281.87 418.544L1285.09 422.365ZM1181.33 445.803L1179.21 450.329L1179.23 450.337L1179.24 450.345L1181.33 445.803ZM1160.83 429.934L1156.96 433.1L1156.97 433.117L1156.99 433.135L1160.83 429.934ZM1152.77 313.967L1148.03 312.361L1148.03 312.379L1148.02 312.398L1152.77 313.967ZM1178.89 263.918L1174.91 260.89L1174.91 260.897L1174.9 260.904L1178.89 263.918ZM1217.71 229.006L1220.2 233.344L1220.21 233.337L1220.22 233.33L1217.71 229.006ZM1293.15 226.809L1289.61 230.344L1289.64 230.365L1289.66 230.386L1293.15 226.809ZM1291.69 297.365L1287.23 295.091L1287.22 295.11L1287.21 295.129L1291.69 297.365ZM1263.61 335.695L1260.07 332.16L1260.06 332.173L1260.05 332.186L1263.61 335.695ZM1228.94 361.818L1226.61 357.394L1226.6 357.401L1226.59 357.408L1228.94 361.818ZM1197.69 371.34V366.34H1192.69V371.34H1197.69ZM1204.28 401.857L1200.05 404.516L1200.1 404.594L1200.15 404.669L1204.28 401.857ZM1256.29 251.223L1260.45 248.449L1260.3 248.227L1260.13 248.022L1256.29 251.223ZM1241.64 257.326L1245.02 261.008L1245.07 260.963L1245.12 260.917L1241.64 257.326ZM1224.3 278.811L1228.5 281.523L1228.52 281.499L1228.53 281.475L1224.3 278.811ZM1198.42 356.936L1193.44 356.567L1193.04 361.936H1198.42V356.936ZM1210.14 345.705L1214 348.889L1214.01 348.878L1214.02 348.867L1210.14 345.705ZM1230.16 318.117L1234.34 320.86L1234.35 320.849L1234.36 320.838L1230.16 318.117ZM1248.96 284.67L1253.5 286.761L1253.51 286.736L1253.53 286.712L1248.96 284.67ZM1231.45 419.064C1270.78 418.544 1301.5 395.732 1323.72 352.635L1314.83 348.053C1293.75 388.939 1265.88 408.608 1231.32 409.065L1231.45 419.064ZM1323.86 352.323L1359.02 270.78L1349.84 266.821L1314.68 348.364L1323.86 352.323ZM1359.04 270.741C1361.46 264.994 1364.06 261.67 1366.52 259.992L1360.89 251.73C1356.19 254.936 1352.61 260.238 1349.82 266.86L1359.04 270.741ZM1366.61 259.93C1368.91 258.291 1372.41 257.199 1377.62 257.199V247.199C1371.12 247.199 1365.34 248.548 1360.8 251.793L1366.61 259.93ZM1373.03 250.226L1355.21 291.73L1364.4 295.676L1382.22 254.172L1373.03 250.226ZM1355.21 291.723L1328.35 353.979L1337.54 357.939L1364.39 295.684L1355.21 291.723ZM1328.36 353.976C1316.74 380.873 1301.22 402.338 1281.88 418.532L1288.3 426.199C1309 408.864 1325.39 386.058 1337.54 357.942L1328.36 353.976ZM1281.87 418.544C1259.76 437.206 1235.33 446.418 1208.43 446.418V456.418C1237.85 456.418 1264.53 446.261 1288.32 426.186L1281.87 418.544ZM1208.43 446.418C1199.15 446.418 1190.84 444.671 1183.42 441.26L1179.24 450.345C1188.11 454.421 1197.86 456.418 1208.43 456.418V446.418ZM1183.46 441.277C1176.15 437.847 1169.9 433.012 1164.67 426.733L1156.99 433.135C1163.15 440.527 1170.57 446.271 1179.21 450.329L1183.46 441.277ZM1164.7 426.767C1153.89 413.566 1148.25 395.747 1148.25 372.805H1138.25C1138.25 397.388 1144.32 417.656 1156.96 433.1L1164.7 426.767ZM1148.25 372.805C1148.25 353.324 1151.33 334.241 1157.52 315.536L1148.02 312.398C1141.51 332.104 1138.25 352.246 1138.25 372.805H1148.25ZM1157.5 315.573C1163.69 297.323 1172.16 281.123 1182.88 266.932L1174.9 260.904C1163.49 276.01 1154.54 293.176 1148.03 312.361L1157.5 315.573ZM1182.87 266.946C1193.91 252.437 1206.36 241.273 1220.2 233.344L1215.22 224.668C1200.09 233.341 1186.66 245.452 1174.91 260.89L1182.87 266.946ZM1220.22 233.33C1234.65 224.954 1249.57 220.822 1265.07 220.822V210.822C1247.7 210.822 1231.05 215.48 1215.2 224.682L1220.22 233.33ZM1265.07 220.822C1275.29 220.822 1283.33 224.056 1289.61 230.344L1296.69 223.273C1288.33 214.913 1277.65 210.822 1265.07 210.822V220.822ZM1289.66 230.386C1295.52 236.113 1298.4 242.959 1298.4 251.223H1308.4C1308.4 240.281 1304.45 230.85 1296.64 223.231L1289.66 230.386ZM1298.4 251.223C1298.4 265.81 1294.73 280.417 1287.23 295.091L1296.14 299.639C1304.27 283.715 1308.4 267.56 1308.4 251.223H1298.4ZM1287.21 295.129C1280.64 308.275 1271.61 320.621 1260.07 332.16L1267.14 339.231C1279.37 327.007 1289.06 313.799 1296.16 299.601L1287.21 295.129ZM1260.05 332.186C1249.63 342.759 1238.49 351.145 1226.61 357.394L1231.27 366.243C1244.14 359.471 1256.1 350.441 1267.17 339.204L1260.05 332.186ZM1226.59 357.408C1215.09 363.548 1205.51 366.34 1197.69 366.34V376.34C1207.78 376.34 1219.03 372.784 1231.3 366.228L1226.59 357.408ZM1192.69 371.34C1192.69 385.103 1194.93 396.371 1200.05 404.516L1208.52 399.199C1204.84 393.347 1202.69 384.269 1202.69 371.34H1192.69ZM1200.15 404.669C1206.87 414.548 1217.7 419.064 1231.38 419.064V409.064C1220 409.064 1212.77 405.442 1208.42 399.046L1200.15 404.669ZM1262.26 254.885C1262.26 252.678 1261.77 250.43 1260.45 248.449L1252.12 253.996C1252.13 253.999 1252.13 254.009 1252.14 254.032C1252.15 254.054 1252.17 254.095 1252.19 254.159C1252.22 254.288 1252.26 254.52 1252.26 254.885H1262.26ZM1260.13 248.022C1258.49 246.054 1256.16 244.758 1253.36 244.758V254.758C1253.18 254.758 1252.94 254.714 1252.71 254.596C1252.48 254.485 1252.41 254.379 1252.44 254.424L1260.13 248.022ZM1253.36 244.758C1250.6 244.758 1247.97 246.023 1245.76 247.45C1243.42 248.958 1240.88 251.096 1238.16 253.735L1245.12 260.917C1247.6 258.511 1249.61 256.864 1251.19 255.85C1252.88 254.754 1253.51 254.758 1253.36 254.758V244.758ZM1238.25 253.645C1231.83 259.546 1225.78 267.078 1220.07 276.146L1228.53 281.475C1233.89 272.965 1239.4 266.174 1245.02 261.008L1238.25 253.645ZM1220.1 276.098C1204.5 300.26 1195.61 327.112 1193.44 356.567L1203.41 357.304C1205.47 329.467 1213.83 304.236 1228.5 281.523L1220.1 276.098ZM1198.42 361.936C1200.44 361.936 1202.07 360.921 1202.87 360.375C1203.9 359.683 1204.96 358.765 1206.03 357.738C1208.2 355.666 1210.86 352.685 1214 348.889L1206.29 342.521C1203.24 346.212 1200.86 348.846 1199.11 350.518C1198.23 351.362 1197.63 351.849 1197.27 352.092C1196.69 352.482 1197.23 351.936 1198.42 351.936V361.936ZM1214.02 348.867C1220.66 340.733 1227.43 331.393 1234.34 320.86L1225.98 315.374C1219.22 325.675 1212.65 334.726 1206.27 342.543L1214.02 348.867ZM1234.36 320.838C1242.27 308.644 1248.66 297.282 1253.5 286.761L1244.42 282.579C1239.82 292.566 1233.68 303.502 1225.97 315.396L1234.36 320.838ZM1253.53 286.712C1259.15 274.137 1262.26 263.434 1262.26 254.885H1252.26C1252.26 261.31 1249.84 270.463 1244.4 282.628L1253.53 286.712ZM1396.91 414.064V419.064H1396.94L1396.98 419.064L1396.91 414.064ZM1484.8 350.344L1489.25 352.635L1489.32 352.482L1489.39 352.323L1484.8 350.344ZM1519.96 268.801L1524.55 270.78L1524.56 270.761L1524.57 270.741L1519.96 268.801ZM1529.23 255.861L1532.05 259.992L1532.1 259.962L1532.14 259.93L1529.23 255.861ZM1543.15 252.199L1547.74 254.172L1550.74 247.199H1543.15V252.199ZM1525.33 293.703L1529.92 295.684L1529.92 295.676L1525.33 293.703ZM1498.47 355.959L1503.06 357.942L1503.06 357.939L1498.47 355.959ZM1450.62 422.365L1447.41 418.532L1447.4 418.538L1447.4 418.544L1450.62 422.365ZM1346.86 445.803L1344.74 450.329L1344.75 450.337L1344.77 450.345L1346.86 445.803ZM1326.35 429.934L1322.48 433.1L1322.5 433.117L1322.51 433.135L1326.35 429.934ZM1318.3 313.967L1313.56 312.361L1313.56 312.379L1313.55 312.398L1318.3 313.967ZM1344.42 263.918L1340.44 260.89L1340.44 260.897L1340.43 260.904L1344.42 263.918ZM1383.24 229.006L1385.72 233.344L1385.74 233.337L1385.75 233.33L1383.24 229.006ZM1458.68 226.809L1455.14 230.344L1455.16 230.365L1455.19 230.386L1458.68 226.809ZM1457.21 297.365L1452.76 295.091L1452.75 295.11L1452.74 295.129L1457.21 297.365ZM1429.14 335.695L1425.6 332.16L1425.59 332.173L1425.57 332.186L1429.14 335.695ZM1394.47 361.818L1392.14 357.394L1392.13 357.401L1392.11 357.408L1394.47 361.818ZM1363.22 371.34V366.34H1358.22V371.34H1363.22ZM1369.81 401.857L1365.58 404.516L1365.62 404.594L1365.68 404.669L1369.81 401.857ZM1421.81 251.223L1425.97 248.449L1425.82 248.227L1425.65 248.022L1421.81 251.223ZM1407.16 257.326L1410.55 261.008L1410.6 260.963L1410.64 260.917L1407.16 257.326ZM1389.83 278.811L1394.03 281.523L1394.05 281.499L1394.06 281.475L1389.83 278.811ZM1363.95 356.936L1358.96 356.567L1358.57 361.936H1363.95V356.936ZM1375.67 345.705L1379.52 348.889L1379.53 348.878L1379.54 348.867L1375.67 345.705ZM1395.69 318.117L1399.87 320.86L1399.88 320.849L1399.88 320.838L1395.69 318.117ZM1414.49 284.67L1419.03 286.761L1419.04 286.736L1419.05 286.712L1414.49 284.67ZM1396.98 419.064C1436.31 418.544 1467.03 395.732 1489.25 352.635L1480.36 348.053C1459.28 388.939 1431.41 408.608 1396.84 409.065L1396.98 419.064ZM1489.39 352.323L1524.55 270.78L1515.37 266.821L1480.21 348.364L1489.39 352.323ZM1524.57 270.741C1526.98 264.994 1529.59 261.67 1532.05 259.992L1526.42 251.73C1521.72 254.936 1518.14 260.238 1515.35 266.86L1524.57 270.741ZM1532.14 259.93C1534.43 258.291 1537.93 257.199 1543.15 257.199V247.199C1536.65 247.199 1530.87 248.548 1526.33 251.793L1532.14 259.93ZM1538.56 250.226L1520.73 291.73L1529.92 295.676L1547.74 254.172L1538.56 250.226ZM1520.74 291.723L1493.88 353.979L1503.06 357.939L1529.92 295.684L1520.74 291.723ZM1493.88 353.976C1482.26 380.873 1466.75 402.338 1447.41 418.532L1453.83 426.199C1474.53 408.864 1490.92 386.058 1503.06 357.942L1493.88 353.976ZM1447.4 418.544C1425.28 437.206 1400.86 446.418 1373.96 446.418V456.418C1403.38 456.418 1430.06 446.261 1453.85 426.186L1447.4 418.544ZM1373.96 446.418C1364.68 446.418 1356.37 444.671 1348.95 441.26L1344.77 450.345C1353.63 454.421 1363.39 456.418 1373.96 456.418V446.418ZM1348.99 441.277C1341.68 437.847 1335.43 433.012 1330.19 426.733L1322.51 433.135C1328.67 440.527 1336.09 446.271 1344.74 450.329L1348.99 441.277ZM1330.22 426.767C1319.42 413.566 1313.78 395.747 1313.78 372.805H1303.78C1303.78 397.388 1309.85 417.656 1322.48 433.1L1330.22 426.767ZM1313.78 372.805C1313.78 353.324 1316.86 334.241 1323.04 315.536L1313.55 312.398C1307.04 332.104 1303.78 352.246 1303.78 372.805H1313.78ZM1323.03 315.573C1329.22 297.323 1337.69 281.123 1348.41 266.932L1340.43 260.904C1329.02 276.01 1320.07 293.176 1313.56 312.361L1323.03 315.573ZM1348.4 266.946C1359.44 252.437 1371.89 241.273 1385.72 233.344L1380.75 224.668C1365.62 233.341 1352.19 245.452 1340.44 260.89L1348.4 266.946ZM1385.75 233.33C1400.17 224.954 1415.1 220.822 1430.6 220.822V210.822C1413.22 210.822 1396.58 215.48 1380.73 224.682L1385.75 233.33ZM1430.6 220.822C1440.81 220.822 1448.85 224.056 1455.14 230.344L1462.21 223.273C1453.85 214.913 1443.18 210.822 1430.6 210.822V220.822ZM1455.19 230.386C1461.05 236.113 1463.93 242.959 1463.93 251.223H1473.93C1473.93 240.281 1469.98 230.85 1462.17 223.231L1455.19 230.386ZM1463.93 251.223C1463.93 265.81 1460.25 280.417 1452.76 295.091L1461.67 299.639C1469.8 283.715 1473.93 267.56 1473.93 251.223H1463.93ZM1452.74 295.129C1446.17 308.275 1437.14 320.621 1425.6 332.16L1432.67 339.231C1444.9 327.007 1454.59 313.799 1461.69 299.601L1452.74 295.129ZM1425.57 332.186C1415.16 342.759 1404.01 351.145 1392.14 357.394L1396.8 366.243C1409.66 359.471 1421.63 350.441 1432.7 339.204L1425.57 332.186ZM1392.11 357.408C1380.62 363.548 1371.04 366.34 1363.22 366.34V376.34C1373.3 376.34 1384.55 372.784 1396.82 366.228L1392.11 357.408ZM1358.22 371.34C1358.22 385.103 1360.46 396.371 1365.58 404.516L1374.04 399.199C1370.37 393.347 1368.22 384.269 1368.22 371.34H1358.22ZM1365.68 404.669C1372.39 414.548 1383.23 419.064 1396.91 419.064V409.064C1385.53 409.064 1378.29 405.442 1373.95 399.046L1365.68 404.669ZM1427.79 254.885C1427.79 252.678 1427.29 250.43 1425.97 248.449L1417.65 253.996C1417.65 253.999 1417.66 254.009 1417.67 254.032C1417.68 254.054 1417.7 254.095 1417.71 254.159C1417.75 254.288 1417.79 254.52 1417.79 254.885H1427.79ZM1425.65 248.022C1424.01 246.054 1421.69 244.758 1418.88 244.758V254.758C1418.71 254.758 1418.47 254.714 1418.23 254.596C1418.01 254.485 1417.93 254.379 1417.97 254.424L1425.65 248.022ZM1418.88 244.758C1416.12 244.758 1413.5 246.023 1411.29 247.45C1408.95 248.958 1406.41 251.096 1403.69 253.735L1410.64 260.917C1413.13 258.511 1415.14 256.864 1416.71 255.85C1418.41 254.754 1419.04 254.758 1418.88 254.758V244.758ZM1403.78 253.645C1397.36 259.546 1391.31 267.078 1385.6 276.146L1394.06 281.475C1399.42 272.965 1404.93 266.174 1410.55 261.008L1403.78 253.645ZM1385.63 276.098C1370.03 300.26 1361.14 327.112 1358.96 356.567L1368.94 357.304C1370.99 329.467 1379.36 304.236 1394.03 281.523L1385.63 276.098ZM1363.95 361.936C1365.96 361.936 1367.59 360.921 1368.4 360.375C1369.42 359.683 1370.49 358.765 1371.56 357.738C1373.72 355.666 1376.39 352.685 1379.52 348.889L1371.82 342.521C1368.77 346.212 1366.39 348.846 1364.64 350.518C1363.76 351.362 1363.16 351.849 1362.8 352.092C1362.22 352.482 1362.75 351.936 1363.95 351.936V361.936ZM1379.54 348.867C1386.18 340.733 1392.96 331.393 1399.87 320.86L1391.51 315.374C1384.75 325.675 1378.18 334.726 1371.8 342.543L1379.54 348.867ZM1399.88 320.838C1407.79 308.644 1414.19 297.282 1419.03 286.761L1409.95 282.579C1405.35 292.566 1399.21 303.502 1391.49 315.396L1399.88 320.838ZM1419.05 286.712C1424.68 274.137 1427.79 263.434 1427.79 254.885H1417.79C1417.79 261.31 1415.37 270.463 1409.92 282.628L1419.05 286.712Z" fill="#C23616"/>
<path d="M317.916 511.06V528H310.986V510.92L291.526 479H299.016L314.696 504.83L330.446 479H337.376L317.916 511.06ZM355.218 528.42C351.531 528.42 348.218 527.603 345.278 525.97C342.338 524.337 340.028 522.097 338.348 519.25C336.715 516.357 335.898 513.09 335.898 509.45C335.898 505.81 336.715 502.567 338.348 499.72C340.028 496.827 342.338 494.587 345.278 493C348.218 491.367 351.531 490.55 355.218 490.55C358.905 490.55 362.195 491.367 365.088 493C368.028 494.587 370.315 496.827 371.948 499.72C373.628 502.567 374.468 505.81 374.468 509.45C374.468 513.09 373.628 516.357 371.948 519.25C370.315 522.097 368.028 524.337 365.088 525.97C362.195 527.603 358.905 528.42 355.218 528.42ZM355.218 522.54C357.598 522.54 359.721 522.003 361.588 520.93C363.501 519.81 364.995 518.27 366.068 516.31C367.141 514.303 367.678 512.017 367.678 509.45C367.678 506.883 367.141 504.62 366.068 502.66C364.995 500.653 363.501 499.113 361.588 498.04C359.721 496.967 357.598 496.43 355.218 496.43C352.838 496.43 350.691 496.967 348.778 498.04C346.911 499.113 345.418 500.653 344.298 502.66C343.225 504.62 342.688 506.883 342.688 509.45C342.688 512.017 343.225 514.303 344.298 516.31C345.418 518.27 346.911 519.81 348.778 520.93C350.691 522.003 352.838 522.54 355.218 522.54ZM418.342 490.9V528H411.972V522.4C410.618 524.313 408.822 525.807 406.582 526.88C404.388 527.907 401.985 528.42 399.372 528.42C394.425 528.42 390.528 527.067 387.682 524.36C384.835 521.607 383.412 517.57 383.412 512.25V490.9H390.132V511.48C390.132 515.073 390.995 517.803 392.722 519.67C394.448 521.49 396.922 522.4 400.142 522.4C403.688 522.4 406.488 521.327 408.542 519.18C410.595 517.033 411.622 514 411.622 510.08V490.9H418.342ZM437.575 497.13C438.741 494.983 440.468 493.35 442.755 492.23C445.041 491.11 447.818 490.55 451.085 490.55V497.06C450.711 497.013 450.198 496.99 449.545 496.99C445.905 496.99 443.035 498.087 440.935 500.28C438.881 502.427 437.855 505.507 437.855 509.52V528H431.135V490.9H437.575V497.13ZM514.134 490.9V522.96C514.134 529.447 512.524 534.23 509.304 537.31C506.084 540.437 501.278 542 494.884 542C491.384 542 488.048 541.51 484.874 540.53C481.701 539.597 479.134 538.243 477.174 536.47L480.394 531.29C482.121 532.783 484.244 533.95 486.764 534.79C489.331 535.677 491.968 536.12 494.674 536.12C499.014 536.12 502.211 535.093 504.264 533.04C506.364 530.987 507.414 527.86 507.414 523.66V520.72C505.828 522.633 503.868 524.08 501.534 525.06C499.248 525.993 496.751 526.46 494.044 526.46C490.498 526.46 487.278 525.713 484.384 524.22C481.538 522.68 479.298 520.557 477.664 517.85C476.031 515.097 475.214 511.97 475.214 508.47C475.214 504.97 476.031 501.867 477.664 499.16C479.298 496.407 481.538 494.283 484.384 492.79C487.278 491.297 490.498 490.55 494.044 490.55C496.844 490.55 499.434 491.063 501.814 492.09C504.241 493.117 506.224 494.633 507.764 496.64V490.9H514.134ZM494.814 520.58C497.241 520.58 499.411 520.067 501.324 519.04C503.284 518.013 504.801 516.59 505.874 514.77C506.994 512.903 507.554 510.803 507.554 508.47C507.554 504.877 506.364 501.983 503.984 499.79C501.604 497.55 498.548 496.43 494.814 496.43C491.034 496.43 487.954 497.55 485.574 499.79C483.194 501.983 482.004 504.877 482.004 508.47C482.004 510.803 482.541 512.903 483.614 514.77C484.734 516.59 486.251 518.013 488.164 519.04C490.124 520.067 492.341 520.58 494.814 520.58ZM561.554 490.9V528H555.184V522.4C553.831 524.313 552.034 525.807 549.794 526.88C547.601 527.907 545.198 528.42 542.584 528.42C537.638 528.42 533.741 527.067 530.894 524.36C528.048 521.607 526.624 517.57 526.624 512.25V490.9H533.344V511.48C533.344 515.073 534.208 517.803 535.934 519.67C537.661 521.49 540.134 522.4 543.354 522.4C546.901 522.4 549.701 521.327 551.754 519.18C553.808 517.033 554.834 514 554.834 510.08V490.9H561.554ZM574.348 490.9H581.068V528H574.348V490.9ZM577.708 483.76C576.401 483.76 575.304 483.34 574.418 482.5C573.578 481.66 573.158 480.633 573.158 479.42C573.158 478.207 573.578 477.18 574.418 476.34C575.304 475.453 576.401 475.01 577.708 475.01C579.014 475.01 580.088 475.43 580.928 476.27C581.814 477.063 582.258 478.067 582.258 479.28C582.258 480.54 581.814 481.613 580.928 482.5C580.088 483.34 579.014 483.76 577.708 483.76ZM628.898 476.06V528H622.458V522.12C620.965 524.173 619.075 525.737 616.788 526.81C614.502 527.883 611.982 528.42 609.228 528.42C605.635 528.42 602.415 527.627 599.568 526.04C596.722 524.453 594.482 522.237 592.848 519.39C591.262 516.497 590.468 513.183 590.468 509.45C590.468 505.717 591.262 502.427 592.848 499.58C594.482 496.733 596.722 494.517 599.568 492.93C602.415 491.343 605.635 490.55 609.228 490.55C611.888 490.55 614.338 491.063 616.578 492.09C618.818 493.07 620.685 494.54 622.178 496.5V476.06H628.898ZM609.788 522.54C612.122 522.54 614.245 522.003 616.158 520.93C618.072 519.81 619.565 518.27 620.638 516.31C621.712 514.303 622.248 512.017 622.248 509.45C622.248 506.883 621.712 504.62 620.638 502.66C619.565 500.653 618.072 499.113 616.158 498.04C614.245 496.967 612.122 496.43 609.788 496.43C607.408 496.43 605.262 496.967 603.348 498.04C601.482 499.113 599.988 500.653 598.868 502.66C597.795 504.62 597.258 506.883 597.258 509.45C597.258 512.017 597.795 514.303 598.868 516.31C599.988 518.27 601.482 519.81 603.348 520.93C605.262 522.003 607.408 522.54 609.788 522.54ZM675.143 509.66C675.143 510.173 675.097 510.85 675.003 511.69H644.903C645.323 514.957 646.746 517.593 649.173 519.6C651.646 521.56 654.703 522.54 658.343 522.54C662.776 522.54 666.346 521.047 669.053 518.06L672.763 522.4C671.083 524.36 668.983 525.853 666.463 526.88C663.99 527.907 661.213 528.42 658.133 528.42C654.213 528.42 650.736 527.627 647.703 526.04C644.67 524.407 642.313 522.143 640.633 519.25C639 516.357 638.183 513.09 638.183 509.45C638.183 505.857 638.976 502.613 640.563 499.72C642.196 496.827 644.413 494.587 647.213 493C650.06 491.367 653.256 490.55 656.803 490.55C660.35 490.55 663.5 491.367 666.253 493C669.053 494.587 671.223 496.827 672.763 499.72C674.35 502.613 675.143 505.927 675.143 509.66ZM656.803 496.22C653.583 496.22 650.876 497.2 648.683 499.16C646.536 501.12 645.276 503.687 644.903 506.86H668.703C668.33 503.733 667.046 501.19 664.853 499.23C662.706 497.223 660.023 496.22 656.803 496.22ZM724.133 525.83C723.153 526.67 721.94 527.323 720.493 527.79C719.047 528.21 717.553 528.42 716.013 528.42C712.28 528.42 709.387 527.417 707.333 525.41C705.28 523.403 704.253 520.533 704.253 516.8V496.43H697.953V490.9H704.253V482.78H710.973V490.9H721.613V496.43H710.973V516.52C710.973 518.527 711.463 520.067 712.443 521.14C713.47 522.213 714.917 522.75 716.783 522.75C718.837 522.75 720.587 522.167 722.033 521L724.133 525.83ZM746.917 528.42C743.231 528.42 739.917 527.603 736.977 525.97C734.037 524.337 731.727 522.097 730.047 519.25C728.414 516.357 727.597 513.09 727.597 509.45C727.597 505.81 728.414 502.567 730.047 499.72C731.727 496.827 734.037 494.587 736.977 493C739.917 491.367 743.231 490.55 746.917 490.55C750.604 490.55 753.894 491.367 756.787 493C759.727 494.587 762.014 496.827 763.647 499.72C765.327 502.567 766.167 505.81 766.167 509.45C766.167 513.09 765.327 516.357 763.647 519.25C762.014 522.097 759.727 524.337 756.787 525.97C753.894 527.603 750.604 528.42 746.917 528.42ZM746.917 522.54C749.297 522.54 751.421 522.003 753.287 520.93C755.201 519.81 756.694 518.27 757.767 516.31C758.841 514.303 759.377 512.017 759.377 509.45C759.377 506.883 758.841 504.62 757.767 502.66C756.694 500.653 755.201 499.113 753.287 498.04C751.421 496.967 749.297 496.43 746.917 496.43C744.537 496.43 742.391 496.967 740.477 498.04C738.611 499.113 737.117 500.653 735.997 502.66C734.924 504.62 734.387 506.883 734.387 509.45C734.387 512.017 734.924 514.303 735.997 516.31C737.117 518.27 738.611 519.81 740.477 520.93C742.391 522.003 744.537 522.54 746.917 522.54ZM837.8 479L816.31 528H809.38L787.82 479H795.38L813.02 519.25L830.8 479H837.8ZM873.796 509.66C873.796 510.173 873.749 510.85 873.656 511.69H843.556C843.976 514.957 845.399 517.593 847.826 519.6C850.299 521.56 853.356 522.54 856.996 522.54C861.429 522.54 864.999 521.047 867.706 518.06L871.416 522.4C869.736 524.36 867.636 525.853 865.116 526.88C862.642 527.907 859.866 528.42 856.786 528.42C852.866 528.42 849.389 527.627 846.356 526.04C843.322 524.407 840.966 522.143 839.286 519.25C837.652 516.357 836.836 513.09 836.836 509.45C836.836 505.857 837.629 502.613 839.216 499.72C840.849 496.827 843.066 494.587 845.866 493C848.712 491.367 851.909 490.55 855.456 490.55C859.002 490.55 862.152 491.367 864.906 493C867.706 494.587 869.876 496.827 871.416 499.72C873.002 502.613 873.796 505.927 873.796 509.66ZM855.456 496.22C852.236 496.22 849.529 497.2 847.336 499.16C845.189 501.12 843.929 503.687 843.556 506.86H867.356C866.982 503.733 865.699 501.19 863.506 499.23C861.359 497.223 858.676 496.22 855.456 496.22ZM889.567 497.13C890.734 494.983 892.46 493.35 894.747 492.23C897.034 491.11 899.81 490.55 903.077 490.55V497.06C902.704 497.013 902.19 496.99 901.537 496.99C897.897 496.99 895.027 498.087 892.927 500.28C890.874 502.427 889.847 505.507 889.847 509.52V528H883.127V490.9H889.567V497.13ZM957.769 490.55C962.436 490.55 966.123 491.903 968.829 494.61C971.583 497.317 972.959 501.33 972.959 506.65V528H966.239V507.42C966.239 503.827 965.399 501.12 963.719 499.3C962.086 497.48 959.729 496.57 956.649 496.57C953.243 496.57 950.536 497.643 948.529 499.79C946.523 501.89 945.519 504.923 945.519 508.89V528H938.799V507.42C938.799 503.827 937.959 501.12 936.279 499.3C934.646 497.48 932.289 496.57 929.209 496.57C925.803 496.57 923.096 497.643 921.089 499.79C919.083 501.89 918.079 504.923 918.079 508.89V528H911.359V490.9H917.799V496.43C919.153 494.517 920.926 493.07 923.119 492.09C925.313 491.063 927.809 490.55 930.609 490.55C933.503 490.55 936.069 491.133 938.309 492.3C940.549 493.467 942.276 495.17 943.489 497.41C944.889 495.263 946.826 493.583 949.299 492.37C951.819 491.157 954.643 490.55 957.769 490.55ZM1001.42 528.42C997.733 528.42 994.419 527.603 991.479 525.97C988.539 524.337 986.229 522.097 984.549 519.25C982.916 516.357 982.099 513.09 982.099 509.45C982.099 505.81 982.916 502.567 984.549 499.72C986.229 496.827 988.539 494.587 991.479 493C994.419 491.367 997.733 490.55 1001.42 490.55C1005.11 490.55 1008.4 491.367 1011.29 493C1014.23 494.587 1016.52 496.827 1018.15 499.72C1019.83 502.567 1020.67 505.81 1020.67 509.45C1020.67 513.09 1019.83 516.357 1018.15 519.25C1016.52 522.097 1014.23 524.337 1011.29 525.97C1008.4 527.603 1005.11 528.42 1001.42 528.42ZM1001.42 522.54C1003.8 522.54 1005.92 522.003 1007.79 520.93C1009.7 519.81 1011.2 518.27 1012.27 516.31C1013.34 514.303 1013.88 512.017 1013.88 509.45C1013.88 506.883 1013.34 504.62 1012.27 502.66C1011.2 500.653 1009.7 499.113 1007.79 498.04C1005.92 496.967 1003.8 496.43 1001.42 496.43C999.039 496.43 996.893 496.967 994.979 498.04C993.113 499.113 991.619 500.653 990.499 502.66C989.426 504.62 988.889 506.883 988.889 509.45C988.889 512.017 989.426 514.303 990.499 516.31C991.619 518.27 993.113 519.81 994.979 520.93C996.893 522.003 999.039 522.54 1001.42 522.54ZM1049.77 490.55C1054.49 490.55 1058.22 491.927 1060.97 494.68C1063.77 497.387 1065.17 501.377 1065.17 506.65V528H1058.45V507.42C1058.45 503.827 1057.59 501.12 1055.86 499.3C1054.14 497.48 1051.66 496.57 1048.44 496.57C1044.8 496.57 1041.93 497.643 1039.83 499.79C1037.73 501.89 1036.68 504.923 1036.68 508.89V528H1029.96V490.9H1036.4V496.5C1037.76 494.587 1039.58 493.117 1041.86 492.09C1044.2 491.063 1046.83 490.55 1049.77 490.55ZM1098.47 525.83C1097.49 526.67 1096.28 527.323 1094.83 527.79C1093.38 528.21 1091.89 528.42 1090.35 528.42C1086.62 528.42 1083.72 527.417 1081.67 525.41C1079.62 523.403 1078.59 520.533 1078.59 516.8V496.43H1072.29V490.9H1078.59V482.78H1085.31V490.9H1095.95V496.43H1085.31V516.52C1085.31 518.527 1085.8 520.067 1086.78 521.14C1087.81 522.213 1089.25 522.75 1091.12 522.75C1093.17 522.75 1094.92 522.167 1096.37 521L1098.47 525.83ZM1125.39 490.9H1132.11V528H1125.39V490.9ZM1128.75 483.76C1127.45 483.76 1126.35 483.34 1125.46 482.5C1124.62 481.66 1124.2 480.633 1124.2 479.42C1124.2 478.207 1124.62 477.18 1125.46 476.34C1126.35 475.453 1127.45 475.01 1128.75 475.01C1130.06 475.01 1131.13 475.43 1131.97 476.27C1132.86 477.063 1133.3 478.067 1133.3 479.28C1133.3 480.54 1132.86 481.613 1131.97 482.5C1131.13 483.34 1130.06 483.76 1128.75 483.76ZM1161.11 528.42C1157.33 528.42 1153.95 527.603 1150.96 525.97C1148.02 524.337 1145.71 522.097 1144.03 519.25C1142.35 516.357 1141.51 513.09 1141.51 509.45C1141.51 505.81 1142.35 502.567 1144.03 499.72C1145.71 496.827 1148.02 494.587 1150.96 493C1153.95 491.367 1157.33 490.55 1161.11 490.55C1164.47 490.55 1167.46 491.227 1170.07 492.58C1172.73 493.933 1174.79 495.893 1176.23 498.46L1171.12 501.75C1169.96 499.977 1168.51 498.647 1166.78 497.76C1165.06 496.873 1163.14 496.43 1161.04 496.43C1158.62 496.43 1156.42 496.967 1154.46 498.04C1152.55 499.113 1151.03 500.653 1149.91 502.66C1148.84 504.62 1148.3 506.883 1148.3 509.45C1148.3 512.063 1148.84 514.373 1149.91 516.38C1151.03 518.34 1152.55 519.857 1154.46 520.93C1156.42 522.003 1158.62 522.54 1161.04 522.54C1163.14 522.54 1165.06 522.097 1166.78 521.21C1168.51 520.323 1169.96 518.993 1171.12 517.22L1176.23 520.44C1174.79 523.007 1172.73 524.99 1170.07 526.39C1167.46 527.743 1164.47 528.42 1161.11 528.42ZM1217.92 509.66C1217.92 510.173 1217.87 510.85 1217.78 511.69H1187.68C1188.1 514.957 1189.52 517.593 1191.95 519.6C1194.42 521.56 1197.48 522.54 1201.12 522.54C1205.55 522.54 1209.12 521.047 1211.83 518.06L1215.54 522.4C1213.86 524.36 1211.76 525.853 1209.24 526.88C1206.76 527.907 1203.99 528.42 1200.91 528.42C1196.99 528.42 1193.51 527.627 1190.48 526.04C1187.44 524.407 1185.09 522.143 1183.41 519.25C1181.77 516.357 1180.96 513.09 1180.96 509.45C1180.96 505.857 1181.75 502.613 1183.34 499.72C1184.97 496.827 1187.19 494.587 1189.99 493C1192.83 491.367 1196.03 490.55 1199.58 490.55C1203.12 490.55 1206.27 491.367 1209.03 493C1211.83 494.587 1214 496.827 1215.54 499.72C1217.12 502.613 1217.92 505.927 1217.92 509.66ZM1199.58 496.22C1196.36 496.22 1193.65 497.2 1191.46 499.16C1189.31 501.12 1188.05 503.687 1187.68 506.86H1211.48C1211.1 503.733 1209.82 501.19 1207.63 499.23C1205.48 497.223 1202.8 496.22 1199.58 496.22ZM1262.22 528.42C1258.44 528.42 1255.05 527.603 1252.07 525.97C1249.13 524.337 1246.82 522.097 1245.14 519.25C1243.46 516.357 1242.62 513.09 1242.62 509.45C1242.62 505.81 1243.46 502.567 1245.14 499.72C1246.82 496.827 1249.13 494.587 1252.07 493C1255.05 491.367 1258.44 490.55 1262.22 490.55C1265.58 490.55 1268.56 491.227 1271.18 492.58C1273.84 493.933 1275.89 495.893 1277.34 498.46L1272.23 501.75C1271.06 499.977 1269.61 498.647 1267.89 497.76C1266.16 496.873 1264.25 496.43 1262.15 496.43C1259.72 496.43 1257.53 496.967 1255.57 498.04C1253.65 499.113 1252.14 500.653 1251.02 502.66C1249.94 504.62 1249.41 506.883 1249.41 509.45C1249.41 512.063 1249.94 514.373 1251.02 516.38C1252.14 518.34 1253.65 519.857 1255.57 520.93C1257.53 522.003 1259.72 522.54 1262.15 522.54C1264.25 522.54 1266.16 522.097 1267.89 521.21C1269.61 520.323 1271.06 518.993 1272.23 517.22L1277.34 520.44C1275.89 523.007 1273.84 524.99 1271.18 526.39C1268.56 527.743 1265.58 528.42 1262.22 528.42ZM1292.48 497.13C1293.64 494.983 1295.37 493.35 1297.66 492.23C1299.94 491.11 1302.72 490.55 1305.99 490.55V497.06C1305.61 497.013 1305.1 496.99 1304.45 496.99C1300.81 496.99 1297.94 498.087 1295.84 500.28C1293.78 502.427 1292.76 505.507 1292.76 509.52V528H1286.04V490.9H1292.48V497.13ZM1347.46 509.66C1347.46 510.173 1347.41 510.85 1347.32 511.69H1317.22C1317.64 514.957 1319.06 517.593 1321.49 519.6C1323.96 521.56 1327.02 522.54 1330.66 522.54C1335.09 522.54 1338.66 521.047 1341.37 518.06L1345.08 522.4C1343.4 524.36 1341.3 525.853 1338.78 526.88C1336.3 527.907 1333.53 528.42 1330.45 528.42C1326.53 528.42 1323.05 527.627 1320.02 526.04C1316.98 524.407 1314.63 522.143 1312.95 519.25C1311.31 516.357 1310.5 513.09 1310.5 509.45C1310.5 505.857 1311.29 502.613 1312.88 499.72C1314.51 496.827 1316.73 494.587 1319.53 493C1322.37 491.367 1325.57 490.55 1329.12 490.55C1332.66 490.55 1335.81 491.367 1338.57 493C1341.37 494.587 1343.54 496.827 1345.08 499.72C1346.66 502.613 1347.46 505.927 1347.46 509.66ZM1329.12 496.22C1325.9 496.22 1323.19 497.2 1321 499.16C1318.85 501.12 1317.59 503.687 1317.22 506.86H1341.02C1340.64 503.733 1339.36 501.19 1337.17 499.23C1335.02 497.223 1332.34 496.22 1329.12 496.22ZM1369.27 490.55C1374.41 490.55 1378.33 491.81 1381.03 494.33C1383.79 496.85 1385.16 500.607 1385.16 505.6V528H1378.79V523.1C1377.67 524.827 1376.06 526.157 1373.96 527.09C1371.91 527.977 1369.46 528.42 1366.61 528.42C1362.46 528.42 1359.12 527.417 1356.6 525.41C1354.13 523.403 1352.89 520.767 1352.89 517.5C1352.89 514.233 1354.08 511.62 1356.46 509.66C1358.84 507.653 1362.62 506.65 1367.8 506.65H1378.44V505.32C1378.44 502.427 1377.6 500.21 1375.92 498.67C1374.24 497.13 1371.77 496.36 1368.5 496.36C1366.31 496.36 1364.16 496.733 1362.06 497.48C1359.96 498.18 1358.19 499.137 1356.74 500.35L1353.94 495.31C1355.86 493.77 1358.14 492.603 1360.8 491.81C1363.46 490.97 1366.29 490.55 1369.27 490.55ZM1367.73 523.24C1370.3 523.24 1372.52 522.68 1374.38 521.56C1376.25 520.393 1377.6 518.76 1378.44 516.66V511.48H1368.08C1362.39 511.48 1359.54 513.393 1359.54 517.22C1359.54 519.087 1360.27 520.557 1361.71 521.63C1363.16 522.703 1365.17 523.24 1367.73 523.24ZM1444.01 490.55C1448.68 490.55 1452.36 491.903 1455.07 494.61C1457.82 497.317 1459.2 501.33 1459.2 506.65V528H1452.48V507.42C1452.48 503.827 1451.64 501.12 1449.96 499.3C1448.33 497.48 1445.97 496.57 1442.89 496.57C1439.48 496.57 1436.78 497.643 1434.77 499.79C1432.76 501.89 1431.76 504.923 1431.76 508.89V528H1425.04V507.42C1425.04 503.827 1424.2 501.12 1422.52 499.3C1420.89 497.48 1418.53 496.57 1415.45 496.57C1412.04 496.57 1409.34 497.643 1407.33 499.79C1405.32 501.89 1404.32 504.923 1404.32 508.89V528H1397.6V490.9H1404.04V496.43C1405.39 494.517 1407.17 493.07 1409.36 492.09C1411.55 491.063 1414.05 490.55 1416.85 490.55C1419.74 490.55 1422.31 491.133 1424.55 492.3C1426.79 493.467 1428.52 495.17 1429.73 497.41C1431.13 495.263 1433.07 493.583 1435.54 492.37C1438.06 491.157 1440.88 490.55 1444.01 490.55Z" fill="black"/>
</g>
<defs>
<clipPath id="clip0">
<rect width="1575" height="558" fill="white"/>
</clipPath>
</defs>
</svg>
